<svg width="61" height="44" viewBox="0 0 61 44" fill="none" xmlns="http://www.w3.org/2000/svg">
<g clip-path="url(#clip0_423_873)">
<path d="M54.6562 0.865479H6.65625C3.34725 0.865479 0.65625 3.27848 0.65625 6.24548V38.5275C0.65625 41.4945 3.34725 43.9075 6.65625 43.9075H54.6562C57.9652 43.9075 60.6562 41.4945 60.6562 38.5275V6.24548C60.6562 3.27848 57.9652 0.865479 54.6562 0.865479ZM32.1562 33.1475C28.0142 33.1475 24.6562 30.1365 24.6562 26.4225C24.6562 22.7085 28.0142 19.6975 32.1562 19.6975C33.7605 19.6932 35.3288 20.1727 36.6562 21.0735C35.7391 21.633 34.9811 22.419 34.4552 23.3559C33.9293 24.2927 33.6531 25.3491 33.6531 26.4235C33.6531 27.4979 33.9293 28.5542 34.4552 29.4911C34.9811 30.428 35.7391 31.2139 36.6562 31.7735C35.3289 32.6746 33.7606 33.1545 32.1562 33.1505V33.1475ZM44.1562 33.1475C40.0143 33.1475 36.6562 30.1365 36.6562 26.4225C36.6562 22.7085 40.0143 19.6975 44.1562 19.6975C48.2982 19.6975 51.6562 22.7075 51.6562 26.4215C51.6562 30.1355 48.2982 33.1475 44.1562 33.1475Z" fill="white"/>
</g>
<defs>
<clipPath id="clip0_423_873">
<rect width="60" height="43.042" fill="white" transform="translate(0.65625 0.865479)"/>
</clipPath>
</defs>
</svg>
