<svg width="61" height="60" viewBox="0 0 61 60" fill="none" xmlns="http://www.w3.org/2000/svg">
<g clip-path="url(#clip0_423_863)">
<path d="M51.4999 0.886597H9.49992C7.07224 0.932088 4.76163 1.93826 3.07457 3.68455C1.38751 5.43084 0.461642 7.77479 0.499921 10.2026V18.9936C0.490351 22.0962 1.54977 25.1075 3.49992 27.5206V56.7816C3.48628 57.5911 3.79462 58.3729 4.35717 58.9551C4.91972 59.5374 5.69044 59.8724 6.49992 59.8866H30.4999C31.3094 59.8724 32.0801 59.5374 32.6427 58.9551C33.2052 58.3729 33.5136 57.5911 33.4999 56.7816V41.2546H45.4999V56.7816C45.4863 57.5911 45.7946 58.3729 46.3572 58.9551C46.9197 59.5374 47.6904 59.8724 48.4999 59.8866H54.4999C55.3094 59.8724 56.0801 59.5374 56.6427 58.9551C57.2052 58.3729 57.5136 57.5911 57.4999 56.7816V27.5176C59.4517 25.1038 60.5112 22.0907 60.4999 18.9866V10.2026C60.5382 7.77479 59.6123 5.43084 57.9253 3.68455C56.2382 1.93826 53.9276 0.932088 51.4999 0.886597ZM54.4999 10.2026V18.9936C54.4999 22.5336 51.9529 25.5516 48.8269 25.7226L48.4999 25.7286C46.8813 25.6986 45.3406 25.0279 44.2158 23.8636C43.091 22.6992 42.474 21.1363 42.4999 19.5176V7.0976H51.4999C52.3091 7.11259 53.0794 7.44787 53.6418 8.02994C54.2042 8.612 54.5128 9.39333 54.4999 10.2026ZM24.4999 19.5186V7.0976H36.4999V19.5186C36.4999 21.1099 35.8678 22.636 34.7426 23.7612C33.6173 24.8865 32.0912 25.5186 30.4999 25.5186C28.9086 25.5186 27.3825 24.8865 26.2573 23.7612C25.1321 22.636 24.4999 21.1099 24.4999 19.5186ZM6.49992 10.2026C6.48707 9.39333 6.79568 8.612 7.35806 8.02994C7.92044 7.44787 8.69069 7.11259 9.49992 7.0976H18.4999V19.5186C18.5259 21.1373 17.9088 22.7002 16.784 23.8646C15.6592 25.0289 14.1185 25.6996 12.4999 25.7296L12.1729 25.7206C9.04692 25.5516 6.49992 22.5336 6.49992 18.9936V10.2026ZM24.4999 44.3606H12.4999V35.0446H24.4999V44.3606Z" fill="white"/>
</g>
<defs>
<clipPath id="clip0_423_863">
<rect width="60" height="59" fill="white" transform="translate(0.5 0.886597)"/>
</clipPath>
</defs>
</svg>
