<svg width="61" height="61" viewBox="0 0 61 61" fill="none" xmlns="http://www.w3.org/2000/svg">
<g clip-path="url(#clip0_423_886)">
<path d="M8.04213 21.6272C10.4687 15.8756 15.046 11.2994 20.7981 8.87419C26.6766 6.43199 33.2775 6.38784 39.1881 8.7512C39.2573 10.4615 39.9127 12.096 41.0444 13.3803C42.1762 14.6645 43.7153 15.5203 45.4033 15.804C47.0914 16.0876 48.8257 15.7819 50.315 14.9381C51.8043 14.0942 52.958 12.7637 53.5823 11.1699C54.2067 9.57609 54.2637 7.81599 53.7438 6.18511C53.2238 4.55423 52.1587 3.15188 50.7271 2.21347C49.2955 1.27507 47.5846 0.857766 45.8817 1.03161C44.1788 1.20546 42.5876 1.95987 41.3751 3.1682C34.0103 0.241258 25.7938 0.304766 18.4751 3.3452C13.0376 5.63568 8.39844 9.48221 5.14051 14.4014C1.88257 19.3206 0.151261 25.093 0.164134 30.9932H6.16413C6.15645 27.7769 6.79508 24.5919 8.04213 21.6272ZM52.2831 40.3592C49.8566 46.1108 45.2793 50.687 39.5271 53.1122C33.6487 55.5544 27.0477 55.5985 21.1371 53.2352C21.0669 51.5262 20.4109 49.8933 19.2792 48.6108C18.1475 47.3282 16.6091 46.474 14.9221 46.1915C13.2351 45.909 11.5023 46.2155 10.0146 47.0595C8.5268 47.9034 7.37465 49.2335 6.75152 50.8264C6.12839 52.4193 6.07221 54.1781 6.59241 55.8076C7.1126 57.437 8.17751 58.8379 9.60837 59.7751C11.0392 60.7122 12.7489 61.1287 14.4505 60.9544C16.1521 60.7802 17.7419 60.0259 18.9531 58.8182C23.5058 60.6642 28.4426 61.3622 33.3286 60.8506C38.2146 60.339 42.8998 58.6335 46.9714 55.8845C51.0429 53.1355 54.3758 49.4272 56.6765 45.0865C58.9771 40.7458 60.1748 35.9059 60.1641 30.9932H54.1641C54.1717 34.2098 53.532 37.395 52.2831 40.3592Z" fill="white"/>
<path d="M30.1643 17.3792C27.4717 17.3792 24.8396 18.1776 22.6008 19.6735C20.362 21.1694 18.617 23.2957 17.5866 25.7833C16.5562 28.2709 16.2866 31.0083 16.8119 33.6491C17.3372 36.29 18.6338 38.7157 20.5377 40.6197C22.4417 42.5237 24.8675 43.8203 27.5083 44.3456C30.1492 44.8709 32.8865 44.6013 35.3742 43.5708C37.8618 42.5404 39.988 40.7955 41.4839 38.5567C42.9799 36.3179 43.7783 33.6857 43.7783 30.9932C43.7741 27.3838 42.3384 23.9235 39.7862 21.3713C37.234 18.8191 33.7737 17.3834 30.1643 17.3792Z" fill="white"/>
</g>
<defs>
<clipPath id="clip0_423_886">
<rect width="60" height="60" fill="white" transform="translate(0.164062 0.993164)"/>
</clipPath>
</defs>
</svg>
