<svg width="61" height="61" viewBox="0 0 61 61" fill="none" xmlns="http://www.w3.org/2000/svg">
<path d="M51.6554 9.17311C46.7476 4.26537 40.2899 1.21118 33.3826 0.53095C26.4754 -0.149284 19.5459 1.58652 13.775 5.44261C8.00411 9.2987 3.74878 15.0365 1.73408 21.6783C-0.280611 28.3201 0.0699861 35.455 2.72614 41.8673C5.38229 48.2797 10.1796 53.5726 16.3008 56.8443C22.422 60.1161 29.4882 61.1642 36.2955 59.81C43.1028 58.4559 49.2299 54.7833 53.633 49.418C58.036 44.0528 60.4425 37.3268 60.4424 30.3861C60.4473 26.4457 59.6735 22.5433 58.1655 18.9028C56.6576 15.2624 54.4452 11.9559 51.6554 9.17311ZM47.4134 47.3571C44.6225 50.1478 41.1865 52.2072 37.4097 53.3528C33.6328 54.4984 29.6318 54.6949 25.7609 53.9249C21.8899 53.1549 18.2687 51.4421 15.2178 48.9383C12.1669 46.4345 9.78058 43.217 8.27021 39.5706C6.75983 35.9243 6.172 31.9618 6.5588 28.034C6.9456 24.1063 8.29508 20.3345 10.4877 17.0528C12.6803 13.7712 15.6485 11.0809 19.1291 9.22033C22.6098 7.35974 26.4956 6.38626 30.4424 6.38611V30.3861H54.4424C54.4511 33.5391 53.8343 36.6626 52.6277 39.5757C51.4212 42.4887 49.6489 45.1336 47.4134 47.3571Z" fill="white"/>
</svg>
