<svg width="683" height="769" viewBox="0 0 683 769" fill="none" xmlns="http://www.w3.org/2000/svg">
<path d="M58.7691 481.45H53.2734L50.5255 476.751L53.2734 472.01H58.7691L61.4324 476.751L58.7691 481.45Z" fill="#0046B0"/>
<path d="M676.915 85.0593H665.264L659.439 75.0979L665.264 65.0469H676.915L682.561 75.0979L676.915 85.0593Z" fill="#0046B0"/>
<path d="M614.064 250.694H608.568L605.82 245.995L608.568 241.254H614.064L616.727 245.995L614.064 250.694Z" fill="#0046B0"/>
<path d="M554.356 486.17H548.861L546.113 481.471L548.861 476.73H554.356L557.02 481.471L554.356 486.17Z" fill="#0046B0"/>
<path d="M156.437 768.125H150.941L148.193 763.426L150.941 758.685H156.437L159.1 763.426L156.437 768.125Z" fill="#0046B0"/>
<path d="M8.75368 9.95979H3.25801L0.510147 5.26081L3.25801 0.519531H8.75368L11.417 5.26081L8.75368 9.95979Z" fill="#0046B0"/>
</svg>
