<svg width="104" height="56" viewBox="0 0 104 56" fill="none" xmlns="http://www.w3.org/2000/svg">
<g clip-path="url(#clip0_423_881)">
<path d="M12.2214 18.5982C12.2782 21.7271 13.5733 24.7057 15.8227 26.8813C18.0722 29.0569 21.0924 30.2518 24.2214 30.2042C27.3505 30.2518 30.3707 29.0569 32.6201 26.8813C34.8696 24.7057 36.1646 21.7271 36.2214 18.5982C36.1644 15.4695 34.8692 12.4911 32.6198 10.3157C30.3704 8.14036 27.3503 6.94556 24.2214 6.99319C21.0926 6.94556 18.0725 8.14036 15.8231 10.3157C13.5737 12.4911 12.2785 15.4695 12.2214 18.5982ZM45.5544 55.9932H48.2214V53.4142C48.2214 43.4622 39.8454 35.3612 29.5544 35.3612H18.8884C8.59444 35.3612 0.221436 43.4622 0.221436 53.4142V55.9932H45.5544Z" fill="white"/>
<path d="M41.2214 12.5982C41.2782 15.7271 42.5733 18.7057 44.8227 20.8813C47.0722 23.0569 50.0924 24.2518 53.2214 24.2042C56.3505 24.2518 59.3707 23.0569 61.6201 20.8813C63.8696 18.7057 65.1646 15.7271 65.2214 12.5982C65.1644 9.4695 63.8692 6.49107 61.6198 4.31571C59.3704 2.14036 56.3503 0.945557 53.2214 0.993193C50.0926 0.945557 47.0725 2.14036 44.8231 4.31571C42.5737 6.49107 41.2785 9.4695 41.2214 12.5982ZM74.5544 49.9932H77.2214V47.4142C77.2214 37.4622 68.8454 29.3612 58.5544 29.3612H47.8884C37.5944 29.3612 29.2214 37.4622 29.2214 47.4142V49.9932H74.5544Z" fill="white"/>
<path d="M67.2214 18.5982C67.2782 21.7271 68.5733 24.7057 70.8227 26.8813C73.0722 29.0569 76.0924 30.2518 79.2214 30.2042C82.3505 30.2518 85.3707 29.0569 87.6201 26.8813C89.8696 24.7057 91.1646 21.7271 91.2214 18.5982C91.1644 15.4695 89.8692 12.4911 87.6198 10.3157C85.3704 8.14036 82.3503 6.94556 79.2214 6.99319C76.0926 6.94556 73.0725 8.14036 70.8231 10.3157C68.5737 12.4911 67.2785 15.4695 67.2214 18.5982ZM100.554 55.9932H103.221V53.4142C103.221 43.4622 94.8454 35.3612 84.5544 35.3612H73.8884C63.5944 35.3612 55.2214 43.4622 55.2214 53.4142V55.9932H100.554Z" fill="white"/>
</g>
<defs>
<clipPath id="clip0_423_881">
<rect width="103" height="55" fill="white" transform="translate(0.221436 0.993164)"/>
</clipPath>
</defs>
</svg>
