<svg width="710" height="881" viewBox="0 0 710 881" fill="none" xmlns="http://www.w3.org/2000/svg">
<g filter="url(#filter0_d_441_1394)">
<mask id="mask0_441_1394" style="mask-type:alpha" maskUnits="userSpaceOnUse" x="50" y="46" width="610" height="781">
<rect x="50.9258" y="46.5166" width="608.148" height="780.335" rx="10" fill="#002F74"/>
</mask>
<g mask="url(#mask0_441_1394)">
<rect x="50.9258" y="46.5166" width="608.148" height="780.335" rx="10" fill="#002F74"/>
<path d="M-115.484 778.122C32.2355 688.737 407.274 560.212 725.672 761.186L-115.484 778.122Z" fill="#0043A3"/>
<path d="M-115.484 817.664C32.2355 728.28 407.274 599.754 725.672 800.728L-115.484 817.664Z" fill="#0075E1"/>
<path d="M-115.484 851.207C32.2355 761.822 407.274 633.297 725.672 834.271L-115.484 851.207Z" fill="#00C2FF"/>
<path d="M233.945 169.017C233.945 167.22 233.469 165.938 232.516 165.173C231.578 164.407 230.258 164.024 228.555 164.024H221.828V174.196H228.555C230.258 174.196 231.578 173.782 232.516 172.954C233.469 172.126 233.945 170.813 233.945 169.017ZM241.094 168.97C241.094 173.048 240.062 175.931 238 177.618C235.938 179.306 232.992 180.149 229.164 180.149H221.828V192.571H214.656V158.024H229.703C233.172 158.024 235.938 158.915 238 160.696C240.062 162.478 241.094 165.235 241.094 168.97ZM259.844 166.415C259.969 166.415 260.07 166.423 260.148 166.438C260.242 166.438 260.438 166.446 260.734 166.462V173.306C260.312 173.259 259.938 173.228 259.609 173.212C259.281 173.196 259.016 173.188 258.812 173.188C256.125 173.188 254.32 174.063 253.398 175.813C252.883 176.798 252.625 178.313 252.625 180.36V192.571H245.898V167.024H252.273V171.478C253.305 169.774 254.203 168.61 254.969 167.985C256.219 166.938 257.844 166.415 259.844 166.415ZM276.133 187.86C278.086 187.86 279.586 187.165 280.633 185.774C281.68 184.384 282.203 182.407 282.203 179.845C282.203 177.282 281.68 175.313 280.633 173.938C279.586 172.548 278.086 171.853 276.133 171.853C274.18 171.853 272.672 172.548 271.609 173.938C270.562 175.313 270.039 177.282 270.039 179.845C270.039 182.407 270.562 184.384 271.609 185.774C272.672 187.165 274.18 187.86 276.133 187.86ZM289.211 179.845C289.211 183.595 288.133 186.806 285.977 189.478C283.82 192.134 280.547 193.462 276.156 193.462C271.766 193.462 268.492 192.134 266.336 189.478C264.18 186.806 263.102 183.595 263.102 179.845C263.102 176.157 264.18 172.962 266.336 170.259C268.492 167.556 271.766 166.204 276.156 166.204C280.547 166.204 283.82 167.556 285.977 170.259C288.133 172.962 289.211 176.157 289.211 179.845ZM303.438 157.673C303.859 157.673 304.242 157.688 304.586 157.72C304.93 157.735 305.398 157.767 305.992 157.813V163.251C305.617 163.204 304.984 163.173 304.094 163.157C303.219 163.126 302.609 163.321 302.266 163.743C301.938 164.149 301.773 164.603 301.773 165.103C301.773 165.603 301.773 166.321 301.773 167.259H306.156V171.97H301.773V192.571H295.117V171.97H291.391V167.259H295.047V165.618C295.047 162.884 295.508 161.001 296.43 159.97C297.398 158.438 299.734 157.673 303.438 157.673ZM320.078 171.853C318.531 171.853 317.328 172.337 316.469 173.306C315.625 174.274 315.094 175.587 314.875 177.243H325.258C325.148 175.478 324.609 174.142 323.641 173.235C322.688 172.313 321.5 171.853 320.078 171.853ZM320.078 166.345C322.203 166.345 324.117 166.743 325.82 167.54C327.523 168.337 328.93 169.595 330.039 171.313C331.039 172.829 331.688 174.587 331.984 176.587C332.156 177.759 332.227 179.446 332.195 181.649H314.711C314.805 184.212 315.609 186.009 317.125 187.04C318.047 187.681 319.156 188.001 320.453 188.001C321.828 188.001 322.945 187.61 323.805 186.829C324.273 186.407 324.688 185.821 325.047 185.071H331.867C331.695 186.587 330.906 188.126 329.5 189.688C327.312 192.173 324.25 193.415 320.312 193.415C317.062 193.415 314.195 192.368 311.711 190.274C309.227 188.181 307.984 184.774 307.984 180.056C307.984 175.634 309.102 172.243 311.336 169.884C313.586 167.524 316.5 166.345 320.078 166.345ZM341.922 184.415C342.062 185.603 342.367 186.446 342.836 186.946C343.664 187.837 345.195 188.282 347.43 188.282C348.742 188.282 349.781 188.087 350.547 187.696C351.328 187.306 351.719 186.72 351.719 185.938C351.719 185.188 351.406 184.618 350.781 184.228C350.156 183.837 347.836 183.165 343.82 182.212C340.93 181.493 338.891 180.595 337.703 179.517C336.516 178.454 335.922 176.923 335.922 174.923C335.922 172.563 336.844 170.54 338.688 168.853C340.547 167.149 343.156 166.298 346.516 166.298C349.703 166.298 352.297 166.938 354.297 168.22C356.312 169.485 357.469 171.681 357.766 174.806H351.086C350.992 173.946 350.75 173.267 350.359 172.767C349.625 171.86 348.375 171.407 346.609 171.407C345.156 171.407 344.117 171.634 343.492 172.087C342.883 172.54 342.578 173.071 342.578 173.681C342.578 174.446 342.906 175.001 343.562 175.345C344.219 175.704 346.539 176.321 350.523 177.196C353.18 177.821 355.172 178.767 356.5 180.032C357.812 181.313 358.469 182.915 358.469 184.837C358.469 187.368 357.523 189.438 355.633 191.048C353.758 192.642 350.852 193.438 346.914 193.438C342.898 193.438 339.93 192.595 338.008 190.907C336.102 189.204 335.148 187.04 335.148 184.415H341.922ZM368.641 184.415C368.781 185.603 369.086 186.446 369.555 186.946C370.383 187.837 371.914 188.282 374.148 188.282C375.461 188.282 376.5 188.087 377.266 187.696C378.047 187.306 378.438 186.72 378.438 185.938C378.438 185.188 378.125 184.618 377.5 184.228C376.875 183.837 374.555 183.165 370.539 182.212C367.648 181.493 365.609 180.595 364.422 179.517C363.234 178.454 362.641 176.923 362.641 174.923C362.641 172.563 363.562 170.54 365.406 168.853C367.266 167.149 369.875 166.298 373.234 166.298C376.422 166.298 379.016 166.938 381.016 168.22C383.031 169.485 384.188 171.681 384.484 174.806H377.805C377.711 173.946 377.469 173.267 377.078 172.767C376.344 171.86 375.094 171.407 373.328 171.407C371.875 171.407 370.836 171.634 370.211 172.087C369.602 172.54 369.297 173.071 369.297 173.681C369.297 174.446 369.625 175.001 370.281 175.345C370.938 175.704 373.258 176.321 377.242 177.196C379.898 177.821 381.891 178.767 383.219 180.032C384.531 181.313 385.188 182.915 385.188 184.837C385.188 187.368 384.242 189.438 382.352 191.048C380.477 192.642 377.57 193.438 373.633 193.438C369.617 193.438 366.648 192.595 364.727 190.907C362.82 189.204 361.867 187.04 361.867 184.415H368.641ZM397.023 163.978H390.25V157.813H397.023V163.978ZM390.25 167.024H397.023V192.571H390.25V167.024ZM414.977 187.86C416.93 187.86 418.43 187.165 419.477 185.774C420.523 184.384 421.047 182.407 421.047 179.845C421.047 177.282 420.523 175.313 419.477 173.938C418.43 172.548 416.93 171.853 414.977 171.853C413.023 171.853 411.516 172.548 410.453 173.938C409.406 175.313 408.883 177.282 408.883 179.845C408.883 182.407 409.406 184.384 410.453 185.774C411.516 187.165 413.023 187.86 414.977 187.86ZM428.055 179.845C428.055 183.595 426.977 186.806 424.82 189.478C422.664 192.134 419.391 193.462 415 193.462C410.609 193.462 407.336 192.134 405.18 189.478C403.023 186.806 401.945 183.595 401.945 179.845C401.945 176.157 403.023 172.962 405.18 170.259C407.336 167.556 410.609 166.204 415 166.204C419.391 166.204 422.664 167.556 424.82 170.259C426.977 172.962 428.055 176.157 428.055 179.845ZM447.016 166.415C449.656 166.415 451.812 167.11 453.484 168.501C455.172 169.876 456.016 172.165 456.016 175.368V192.571H449.172V177.032C449.172 175.688 448.992 174.657 448.633 173.938C447.977 172.626 446.727 171.97 444.883 171.97C442.617 171.97 441.062 172.931 440.219 174.853C439.781 175.868 439.562 177.165 439.562 178.743V192.571H432.906V167.071H439.352V170.798C440.211 169.485 441.023 168.54 441.789 167.962C443.164 166.931 444.906 166.415 447.016 166.415ZM476.289 180.149C475.867 180.415 475.438 180.634 475 180.806C474.578 180.962 473.992 181.11 473.242 181.251L471.742 181.532C470.336 181.782 469.328 182.087 468.719 182.446C467.688 183.056 467.172 184.001 467.172 185.282C467.172 186.423 467.484 187.251 468.109 187.767C468.75 188.267 469.523 188.517 470.43 188.517C471.867 188.517 473.188 188.095 474.391 187.251C475.609 186.407 476.242 184.868 476.289 182.634V180.149ZM472.234 177.032C473.469 176.876 474.352 176.681 474.883 176.446C475.836 176.04 476.312 175.407 476.312 174.548C476.312 173.501 475.945 172.782 475.211 172.392C474.492 171.985 473.43 171.782 472.023 171.782C470.445 171.782 469.328 172.173 468.672 172.954C468.203 173.532 467.891 174.313 467.734 175.298H461.289C461.43 173.063 462.055 171.228 463.164 169.79C464.93 167.54 467.961 166.415 472.258 166.415C475.055 166.415 477.539 166.97 479.711 168.079C481.883 169.188 482.969 171.282 482.969 174.36V186.079C482.969 186.892 482.984 187.876 483.016 189.032C483.062 189.907 483.195 190.501 483.414 190.813C483.633 191.126 483.961 191.384 484.398 191.587V192.571H477.133C476.93 192.056 476.789 191.571 476.711 191.118C476.633 190.665 476.57 190.149 476.523 189.571C475.602 190.571 474.539 191.423 473.336 192.126C471.898 192.954 470.273 193.368 468.461 193.368C466.148 193.368 464.234 192.712 462.719 191.399C461.219 190.071 460.469 188.196 460.469 185.774C460.469 182.634 461.68 180.36 464.102 178.954C465.43 178.188 467.383 177.642 469.961 177.313L472.234 177.032ZM495.742 192.571H489.062V158.024H495.742V192.571Z" fill="white"/>
<path d="M118.234 245.692H134.156V248.505H121.344V255.474H132.609V258.208H121.344V268.646H118.234V245.692ZM143.766 266.833C145.63 266.833 146.906 266.13 147.594 264.724C148.292 263.307 148.641 261.734 148.641 260.005C148.641 258.442 148.391 257.172 147.891 256.192C147.099 254.651 145.734 253.88 143.797 253.88C142.078 253.88 140.828 254.536 140.047 255.849C139.266 257.161 138.875 258.744 138.875 260.599C138.875 262.38 139.266 263.864 140.047 265.052C140.828 266.239 142.068 266.833 143.766 266.833ZM143.875 251.427C146.031 251.427 147.854 252.146 149.344 253.583C150.833 255.021 151.578 257.135 151.578 259.927C151.578 262.625 150.922 264.854 149.609 266.614C148.297 268.375 146.26 269.255 143.5 269.255C141.198 269.255 139.37 268.479 138.016 266.927C136.661 265.364 135.984 263.271 135.984 260.646C135.984 257.833 136.698 255.593 138.125 253.927C139.552 252.26 141.469 251.427 143.875 251.427ZM155.016 251.911H157.688V254.802C157.906 254.239 158.443 253.557 159.297 252.755C160.151 251.942 161.135 251.536 162.25 251.536C162.302 251.536 162.391 251.541 162.516 251.552C162.641 251.562 162.854 251.583 163.156 251.614V254.583C162.99 254.552 162.833 254.531 162.688 254.521C162.552 254.51 162.401 254.505 162.234 254.505C160.818 254.505 159.729 254.963 158.969 255.88C158.208 256.786 157.828 257.833 157.828 259.021V268.646H155.016V251.911ZM174.578 245.692H177.391V268.646H174.578V245.692ZM183.781 264.192C183.781 265.005 184.078 265.646 184.672 266.114C185.266 266.583 185.969 266.817 186.781 266.817C187.771 266.817 188.729 266.588 189.656 266.13C191.219 265.369 192 264.125 192 262.396V260.13C191.656 260.349 191.214 260.531 190.672 260.677C190.13 260.823 189.599 260.927 189.078 260.989L187.375 261.208C186.354 261.343 185.589 261.557 185.078 261.849C184.214 262.338 183.781 263.119 183.781 264.192ZM190.594 258.505C191.24 258.422 191.672 258.151 191.891 257.692C192.016 257.442 192.078 257.083 192.078 256.614C192.078 255.656 191.734 254.963 191.047 254.536C190.37 254.099 189.396 253.88 188.125 253.88C186.656 253.88 185.615 254.276 185 255.067C184.656 255.505 184.432 256.156 184.328 257.021H181.703C181.755 254.958 182.422 253.526 183.703 252.724C184.995 251.911 186.49 251.505 188.188 251.505C190.156 251.505 191.755 251.88 192.984 252.63C194.203 253.38 194.812 254.547 194.812 256.13V265.771C194.812 266.062 194.87 266.297 194.984 266.474C195.109 266.651 195.365 266.739 195.75 266.739C195.875 266.739 196.016 266.734 196.172 266.724C196.328 266.703 196.495 266.677 196.672 266.646V268.724C196.234 268.849 195.901 268.927 195.672 268.958C195.443 268.989 195.13 269.005 194.734 269.005C193.766 269.005 193.062 268.661 192.625 267.974C192.396 267.609 192.234 267.093 192.141 266.427C191.568 267.177 190.745 267.828 189.672 268.38C188.599 268.932 187.417 269.208 186.125 269.208C184.573 269.208 183.302 268.739 182.312 267.802C181.333 266.854 180.844 265.672 180.844 264.255C180.844 262.703 181.328 261.5 182.297 260.646C183.266 259.791 184.536 259.265 186.109 259.067L190.594 258.505ZM199.516 251.911H202.188V254.802C202.406 254.239 202.943 253.557 203.797 252.755C204.651 251.942 205.635 251.536 206.75 251.536C206.802 251.536 206.891 251.541 207.016 251.552C207.141 251.562 207.354 251.583 207.656 251.614V254.583C207.49 254.552 207.333 254.531 207.188 254.521C207.052 254.51 206.901 254.505 206.734 254.505C205.318 254.505 204.229 254.963 203.469 255.88C202.708 256.786 202.328 257.833 202.328 259.021V268.646H199.516V251.911ZM216 251.614C217.312 251.614 218.458 251.937 219.438 252.583C219.969 252.948 220.51 253.479 221.062 254.177V252.067H223.656V267.286C223.656 269.411 223.344 271.088 222.719 272.317C221.552 274.588 219.349 275.724 216.109 275.724C214.307 275.724 212.792 275.317 211.562 274.505C210.333 273.703 209.646 272.442 209.5 270.724H212.359C212.495 271.474 212.766 272.052 213.172 272.458C213.807 273.083 214.807 273.396 216.172 273.396C218.328 273.396 219.74 272.635 220.406 271.114C220.802 270.218 220.984 268.619 220.953 266.317C220.391 267.172 219.714 267.807 218.922 268.224C218.13 268.64 217.083 268.849 215.781 268.849C213.969 268.849 212.38 268.208 211.016 266.927C209.661 265.635 208.984 263.505 208.984 260.536C208.984 257.734 209.667 255.547 211.031 253.974C212.406 252.401 214.062 251.614 216 251.614ZM221.062 260.208C221.062 258.135 220.635 256.599 219.781 255.599C218.927 254.599 217.839 254.099 216.516 254.099C214.536 254.099 213.182 255.026 212.453 256.88C212.068 257.869 211.875 259.166 211.875 260.771C211.875 262.656 212.255 264.093 213.016 265.083C213.786 266.062 214.818 266.552 216.109 266.552C218.13 266.552 219.552 265.64 220.375 263.817C220.833 262.786 221.062 261.583 221.062 260.208ZM234.875 251.536C236.062 251.536 237.214 251.817 238.328 252.38C239.443 252.932 240.292 253.651 240.875 254.536C241.438 255.38 241.812 256.364 242 257.489C242.167 258.26 242.25 259.489 242.25 261.177H229.984C230.036 262.875 230.438 264.239 231.188 265.271C231.938 266.291 233.099 266.802 234.672 266.802C236.141 266.802 237.312 266.317 238.188 265.349C238.688 264.786 239.042 264.135 239.25 263.396H242.016C241.943 264.01 241.698 264.698 241.281 265.458C240.875 266.208 240.417 266.823 239.906 267.302C239.052 268.135 237.995 268.698 236.734 268.989C236.057 269.156 235.292 269.239 234.438 269.239C232.354 269.239 230.589 268.484 229.141 266.974C227.693 265.453 226.969 263.328 226.969 260.599C226.969 257.911 227.698 255.729 229.156 254.052C230.615 252.375 232.521 251.536 234.875 251.536ZM239.359 258.942C239.245 257.724 238.979 256.75 238.562 256.021C237.792 254.666 236.505 253.989 234.703 253.989C233.411 253.989 232.328 254.458 231.453 255.396C230.578 256.323 230.115 257.505 230.062 258.942H239.359ZM245.797 251.911H248.469V254.802C248.688 254.239 249.224 253.557 250.078 252.755C250.932 251.942 251.917 251.536 253.031 251.536C253.083 251.536 253.172 251.541 253.297 251.552C253.422 251.562 253.635 251.583 253.938 251.614V254.583C253.771 254.552 253.615 254.531 253.469 254.521C253.333 254.51 253.182 254.505 253.016 254.505C251.599 254.505 250.51 254.963 249.75 255.88C248.99 256.786 248.609 257.833 248.609 259.021V268.646H245.797V251.911ZM265.844 247.239H268.688V251.911H271.359V254.208H268.688V265.13C268.688 265.713 268.885 266.104 269.281 266.302C269.5 266.416 269.865 266.474 270.375 266.474C270.51 266.474 270.656 266.474 270.812 266.474C270.969 266.463 271.151 266.448 271.359 266.427V268.646C271.036 268.739 270.698 268.807 270.344 268.849C270 268.89 269.625 268.911 269.219 268.911C267.906 268.911 267.016 268.578 266.547 267.911C266.078 267.234 265.844 266.359 265.844 265.286V254.208H263.578V251.911H265.844V247.239ZM281.156 251.536C282.344 251.536 283.495 251.817 284.609 252.38C285.724 252.932 286.573 253.651 287.156 254.536C287.719 255.38 288.094 256.364 288.281 257.489C288.448 258.26 288.531 259.489 288.531 261.177H276.266C276.318 262.875 276.719 264.239 277.469 265.271C278.219 266.291 279.38 266.802 280.953 266.802C282.422 266.802 283.594 266.317 284.469 265.349C284.969 264.786 285.323 264.135 285.531 263.396H288.297C288.224 264.01 287.979 264.698 287.562 265.458C287.156 266.208 286.698 266.823 286.188 267.302C285.333 268.135 284.276 268.698 283.016 268.989C282.339 269.156 281.573 269.239 280.719 269.239C278.635 269.239 276.87 268.484 275.422 266.974C273.974 265.453 273.25 263.328 273.25 260.599C273.25 257.911 273.979 255.729 275.438 254.052C276.896 252.375 278.802 251.536 281.156 251.536ZM285.641 258.942C285.526 257.724 285.26 256.75 284.844 256.021C284.073 254.666 282.786 253.989 280.984 253.989C279.693 253.989 278.609 254.458 277.734 255.396C276.859 256.323 276.396 257.505 276.344 258.942H285.641ZM294.156 264.192C294.156 265.005 294.453 265.646 295.047 266.114C295.641 266.583 296.344 266.817 297.156 266.817C298.146 266.817 299.104 266.588 300.031 266.13C301.594 265.369 302.375 264.125 302.375 262.396V260.13C302.031 260.349 301.589 260.531 301.047 260.677C300.505 260.823 299.974 260.927 299.453 260.989L297.75 261.208C296.729 261.343 295.964 261.557 295.453 261.849C294.589 262.338 294.156 263.119 294.156 264.192ZM300.969 258.505C301.615 258.422 302.047 258.151 302.266 257.692C302.391 257.442 302.453 257.083 302.453 256.614C302.453 255.656 302.109 254.963 301.422 254.536C300.745 254.099 299.771 253.88 298.5 253.88C297.031 253.88 295.99 254.276 295.375 255.067C295.031 255.505 294.807 256.156 294.703 257.021H292.078C292.13 254.958 292.797 253.526 294.078 252.724C295.37 251.911 296.865 251.505 298.562 251.505C300.531 251.505 302.13 251.88 303.359 252.63C304.578 253.38 305.188 254.547 305.188 256.13V265.771C305.188 266.062 305.245 266.297 305.359 266.474C305.484 266.651 305.74 266.739 306.125 266.739C306.25 266.739 306.391 266.734 306.547 266.724C306.703 266.703 306.87 266.677 307.047 266.646V268.724C306.609 268.849 306.276 268.927 306.047 268.958C305.818 268.989 305.505 269.005 305.109 269.005C304.141 269.005 303.438 268.661 303 267.974C302.771 267.609 302.609 267.093 302.516 266.427C301.943 267.177 301.12 267.828 300.047 268.38C298.974 268.932 297.792 269.208 296.5 269.208C294.948 269.208 293.677 268.739 292.688 267.802C291.708 266.854 291.219 265.672 291.219 264.255C291.219 262.703 291.703 261.5 292.672 260.646C293.641 259.791 294.911 259.265 296.484 259.067L300.969 258.505ZM309.812 251.911H312.594V254.286C313.26 253.463 313.865 252.864 314.406 252.489C315.333 251.854 316.385 251.536 317.562 251.536C318.896 251.536 319.969 251.864 320.781 252.521C321.24 252.896 321.656 253.448 322.031 254.177C322.656 253.281 323.391 252.619 324.234 252.192C325.078 251.755 326.026 251.536 327.078 251.536C329.328 251.536 330.859 252.349 331.672 253.974C332.109 254.849 332.328 256.026 332.328 257.505V268.646H329.406V257.021C329.406 255.906 329.125 255.14 328.562 254.724C328.01 254.307 327.333 254.099 326.531 254.099C325.427 254.099 324.474 254.468 323.672 255.208C322.88 255.948 322.484 257.182 322.484 258.911V268.646H319.625V257.724C319.625 256.588 319.49 255.76 319.219 255.239C318.792 254.458 317.995 254.067 316.828 254.067C315.766 254.067 314.797 254.479 313.922 255.302C313.057 256.125 312.625 257.614 312.625 259.771V268.646H309.812V251.911ZM338.141 263.396C338.224 264.333 338.458 265.052 338.844 265.552C339.552 266.458 340.781 266.911 342.531 266.911C343.573 266.911 344.49 266.687 345.281 266.239C346.073 265.781 346.469 265.078 346.469 264.13C346.469 263.411 346.151 262.864 345.516 262.489C345.109 262.26 344.307 261.994 343.109 261.692L340.875 261.13C339.448 260.776 338.396 260.38 337.719 259.942C336.51 259.182 335.906 258.13 335.906 256.786C335.906 255.203 336.474 253.922 337.609 252.942C338.755 251.963 340.292 251.474 342.219 251.474C344.74 251.474 346.557 252.213 347.672 253.692C348.37 254.63 348.708 255.64 348.688 256.724H346.031C345.979 256.088 345.755 255.51 345.359 254.989C344.714 254.25 343.594 253.88 342 253.88C340.938 253.88 340.13 254.083 339.578 254.489C339.036 254.896 338.766 255.432 338.766 256.099C338.766 256.828 339.125 257.411 339.844 257.849C340.26 258.109 340.875 258.338 341.688 258.536L343.547 258.989C345.568 259.479 346.922 259.953 347.609 260.411C348.703 261.13 349.25 262.26 349.25 263.802C349.25 265.291 348.682 266.578 347.547 267.661C346.422 268.744 344.703 269.286 342.391 269.286C339.901 269.286 338.135 268.724 337.094 267.599C336.062 266.463 335.51 265.062 335.438 263.396H338.141ZM361.453 245.692H364.266V268.646H361.453V245.692ZM375.141 266.833C377.005 266.833 378.281 266.13 378.969 264.724C379.667 263.307 380.016 261.734 380.016 260.005C380.016 258.442 379.766 257.172 379.266 256.192C378.474 254.651 377.109 253.88 375.172 253.88C373.453 253.88 372.203 254.536 371.422 255.849C370.641 257.161 370.25 258.744 370.25 260.599C370.25 262.38 370.641 263.864 371.422 265.052C372.203 266.239 373.443 266.833 375.141 266.833ZM375.25 251.427C377.406 251.427 379.229 252.146 380.719 253.583C382.208 255.021 382.953 257.135 382.953 259.927C382.953 262.625 382.297 264.854 380.984 266.614C379.672 268.375 377.635 269.255 374.875 269.255C372.573 269.255 370.745 268.479 369.391 266.927C368.036 265.364 367.359 263.271 367.359 260.646C367.359 257.833 368.073 255.593 369.5 253.927C370.927 252.26 372.844 251.427 375.25 251.427ZM392.953 266.833C394.818 266.833 396.094 266.13 396.781 264.724C397.479 263.307 397.828 261.734 397.828 260.005C397.828 258.442 397.578 257.172 397.078 256.192C396.286 254.651 394.922 253.88 392.984 253.88C391.266 253.88 390.016 254.536 389.234 255.849C388.453 257.161 388.062 258.744 388.062 260.599C388.062 262.38 388.453 263.864 389.234 265.052C390.016 266.239 391.255 266.833 392.953 266.833ZM393.062 251.427C395.219 251.427 397.042 252.146 398.531 253.583C400.021 255.021 400.766 257.135 400.766 259.927C400.766 262.625 400.109 264.854 398.797 266.614C397.484 268.375 395.448 269.255 392.688 269.255C390.385 269.255 388.557 268.479 387.203 266.927C385.849 265.364 385.172 263.271 385.172 260.646C385.172 257.833 385.885 255.593 387.312 253.927C388.74 252.26 390.656 251.427 393.062 251.427ZM404.062 245.692H406.766V259.021L413.984 251.911H417.578L411.172 258.177L417.938 268.646H414.344L409.125 260.208L406.766 262.364V268.646H404.062V245.692ZM420.125 251.989H422.984V268.646H420.125V251.989ZM420.125 245.692H422.984V248.88H420.125V245.692ZM427.25 251.911H429.922V254.286C430.714 253.307 431.552 252.604 432.438 252.177C433.323 251.75 434.307 251.536 435.391 251.536C437.766 251.536 439.37 252.364 440.203 254.021C440.661 254.927 440.891 256.224 440.891 257.911V268.646H438.031V258.099C438.031 257.078 437.88 256.255 437.578 255.63C437.078 254.588 436.172 254.067 434.859 254.067C434.193 254.067 433.646 254.135 433.219 254.271C432.448 254.5 431.771 254.958 431.188 255.646C430.719 256.198 430.411 256.771 430.266 257.364C430.13 257.948 430.062 258.786 430.062 259.88V268.646H427.25V251.911ZM450.969 251.614C452.281 251.614 453.427 251.937 454.406 252.583C454.938 252.948 455.479 253.479 456.031 254.177V252.067H458.625V267.286C458.625 269.411 458.312 271.088 457.688 272.317C456.521 274.588 454.318 275.724 451.078 275.724C449.276 275.724 447.76 275.317 446.531 274.505C445.302 273.703 444.615 272.442 444.469 270.724H447.328C447.464 271.474 447.734 272.052 448.141 272.458C448.776 273.083 449.776 273.396 451.141 273.396C453.297 273.396 454.708 272.635 455.375 271.114C455.771 270.218 455.953 268.619 455.922 266.317C455.359 267.172 454.682 267.807 453.891 268.224C453.099 268.64 452.052 268.849 450.75 268.849C448.938 268.849 447.349 268.208 445.984 266.927C444.63 265.635 443.953 263.505 443.953 260.536C443.953 257.734 444.635 255.547 446 253.974C447.375 252.401 449.031 251.614 450.969 251.614ZM456.031 260.208C456.031 258.135 455.604 256.599 454.75 255.599C453.896 254.599 452.807 254.099 451.484 254.099C449.505 254.099 448.151 255.026 447.422 256.88C447.036 257.869 446.844 259.166 446.844 260.771C446.844 262.656 447.224 264.093 447.984 265.083C448.755 266.062 449.786 266.552 451.078 266.552C453.099 266.552 454.521 265.64 455.344 263.817C455.802 262.786 456.031 261.583 456.031 260.208ZM472.484 249.364C472.526 248.198 472.729 247.343 473.094 246.802C473.75 245.843 475.016 245.364 476.891 245.364C477.068 245.364 477.25 245.369 477.438 245.38C477.625 245.39 477.839 245.406 478.078 245.427V247.989C477.786 247.968 477.573 247.958 477.438 247.958C477.312 247.948 477.193 247.942 477.078 247.942C476.224 247.942 475.714 248.166 475.547 248.614C475.38 249.052 475.297 250.177 475.297 251.989H478.078V254.208H475.266V268.646H472.484V254.208H470.156V251.989H472.484V249.364ZM487.328 266.833C489.193 266.833 490.469 266.13 491.156 264.724C491.854 263.307 492.203 261.734 492.203 260.005C492.203 258.442 491.953 257.172 491.453 256.192C490.661 254.651 489.297 253.88 487.359 253.88C485.641 253.88 484.391 254.536 483.609 255.849C482.828 257.161 482.438 258.744 482.438 260.599C482.438 262.38 482.828 263.864 483.609 265.052C484.391 266.239 485.63 266.833 487.328 266.833ZM487.438 251.427C489.594 251.427 491.417 252.146 492.906 253.583C494.396 255.021 495.141 257.135 495.141 259.927C495.141 262.625 494.484 264.854 493.172 266.614C491.859 268.375 489.823 269.255 487.062 269.255C484.76 269.255 482.932 268.479 481.578 266.927C480.224 265.364 479.547 263.271 479.547 260.646C479.547 257.833 480.26 255.593 481.688 253.927C483.115 252.26 485.031 251.427 487.438 251.427ZM498.578 251.911H501.25V254.802C501.469 254.239 502.005 253.557 502.859 252.755C503.714 251.942 504.698 251.536 505.812 251.536C505.865 251.536 505.953 251.541 506.078 251.552C506.203 251.562 506.417 251.583 506.719 251.614V254.583C506.552 254.552 506.396 254.531 506.25 254.521C506.115 254.51 505.964 254.505 505.797 254.505C504.38 254.505 503.292 254.963 502.531 255.88C501.771 256.786 501.391 257.833 501.391 259.021V268.646H498.578V251.911ZM520.219 264.192C520.219 265.005 520.516 265.646 521.109 266.114C521.703 266.583 522.406 266.817 523.219 266.817C524.208 266.817 525.167 266.588 526.094 266.13C527.656 265.369 528.438 264.125 528.438 262.396V260.13C528.094 260.349 527.651 260.531 527.109 260.677C526.568 260.823 526.036 260.927 525.516 260.989L523.812 261.208C522.792 261.343 522.026 261.557 521.516 261.849C520.651 262.338 520.219 263.119 520.219 264.192ZM527.031 258.505C527.677 258.422 528.109 258.151 528.328 257.692C528.453 257.442 528.516 257.083 528.516 256.614C528.516 255.656 528.172 254.963 527.484 254.536C526.807 254.099 525.833 253.88 524.562 253.88C523.094 253.88 522.052 254.276 521.438 255.067C521.094 255.505 520.87 256.156 520.766 257.021H518.141C518.193 254.958 518.859 253.526 520.141 252.724C521.432 251.911 522.927 251.505 524.625 251.505C526.594 251.505 528.193 251.88 529.422 252.63C530.641 253.38 531.25 254.547 531.25 256.13V265.771C531.25 266.062 531.307 266.297 531.422 266.474C531.547 266.651 531.802 266.739 532.188 266.739C532.312 266.739 532.453 266.734 532.609 266.724C532.766 266.703 532.932 266.677 533.109 266.646V268.724C532.672 268.849 532.339 268.927 532.109 268.958C531.88 268.989 531.568 269.005 531.172 269.005C530.203 269.005 529.5 268.661 529.062 267.974C528.833 267.609 528.672 267.093 528.578 266.427C528.005 267.177 527.182 267.828 526.109 268.38C525.036 268.932 523.854 269.208 522.562 269.208C521.01 269.208 519.74 268.739 518.75 267.802C517.771 266.854 517.281 265.672 517.281 264.255C517.281 262.703 517.766 261.5 518.734 260.646C519.703 259.791 520.974 259.265 522.547 259.067L527.031 258.505ZM535.875 251.911H538.547V254.286C539.339 253.307 540.177 252.604 541.062 252.177C541.948 251.75 542.932 251.536 544.016 251.536C546.391 251.536 547.995 252.364 548.828 254.021C549.286 254.927 549.516 256.224 549.516 257.911V268.646H546.656V258.099C546.656 257.078 546.505 256.255 546.203 255.63C545.703 254.588 544.797 254.067 543.484 254.067C542.818 254.067 542.271 254.135 541.844 254.271C541.073 254.5 540.396 254.958 539.812 255.646C539.344 256.198 539.036 256.771 538.891 257.364C538.755 257.948 538.688 258.786 538.688 259.88V268.646H535.875V251.911ZM117.562 288.989H120.422V305.646H117.562V288.989ZM117.562 282.692H120.422V285.88H117.562V282.692ZM124.688 288.911H127.359V291.286C128.151 290.307 128.99 289.604 129.875 289.177C130.76 288.75 131.745 288.536 132.828 288.536C135.203 288.536 136.807 289.364 137.641 291.021C138.099 291.927 138.328 293.224 138.328 294.911V305.646H135.469V295.099C135.469 294.078 135.318 293.255 135.016 292.63C134.516 291.588 133.609 291.067 132.297 291.067C131.63 291.067 131.083 291.135 130.656 291.271C129.885 291.5 129.208 291.958 128.625 292.646C128.156 293.198 127.849 293.771 127.703 294.364C127.568 294.948 127.5 295.786 127.5 296.88V305.646H124.688V288.911ZM143.062 284.239H145.906V288.911H148.578V291.208H145.906V302.13C145.906 302.713 146.104 303.104 146.5 303.302C146.719 303.416 147.083 303.474 147.594 303.474C147.729 303.474 147.875 303.474 148.031 303.474C148.188 303.463 148.37 303.448 148.578 303.427V305.646C148.255 305.739 147.917 305.807 147.562 305.849C147.219 305.89 146.844 305.911 146.438 305.911C145.125 305.911 144.234 305.578 143.766 304.911C143.297 304.234 143.062 303.359 143.062 302.286V291.208H140.797V288.911H143.062V284.239ZM158.375 288.536C159.562 288.536 160.714 288.817 161.828 289.38C162.943 289.932 163.792 290.651 164.375 291.536C164.938 292.38 165.312 293.364 165.5 294.489C165.667 295.26 165.75 296.489 165.75 298.177H153.484C153.536 299.875 153.938 301.239 154.688 302.271C155.438 303.291 156.599 303.802 158.172 303.802C159.641 303.802 160.812 303.317 161.688 302.349C162.188 301.786 162.542 301.135 162.75 300.396H165.516C165.443 301.01 165.198 301.698 164.781 302.458C164.375 303.208 163.917 303.823 163.406 304.302C162.552 305.135 161.495 305.698 160.234 305.989C159.557 306.156 158.792 306.239 157.938 306.239C155.854 306.239 154.089 305.484 152.641 303.974C151.193 302.453 150.469 300.328 150.469 297.599C150.469 294.911 151.198 292.729 152.656 291.052C154.115 289.375 156.021 288.536 158.375 288.536ZM162.859 295.942C162.745 294.724 162.479 293.75 162.062 293.021C161.292 291.666 160.005 290.989 158.203 290.989C156.911 290.989 155.828 291.458 154.953 292.396C154.078 293.323 153.615 294.505 153.562 295.942H162.859ZM175.125 288.614C176.438 288.614 177.583 288.937 178.562 289.583C179.094 289.948 179.635 290.479 180.188 291.177V289.067H182.781V304.286C182.781 306.411 182.469 308.088 181.844 309.317C180.677 311.588 178.474 312.724 175.234 312.724C173.432 312.724 171.917 312.317 170.688 311.505C169.458 310.703 168.771 309.442 168.625 307.724H171.484C171.62 308.474 171.891 309.052 172.297 309.458C172.932 310.083 173.932 310.396 175.297 310.396C177.453 310.396 178.865 309.635 179.531 308.114C179.927 307.218 180.109 305.619 180.078 303.317C179.516 304.172 178.839 304.807 178.047 305.224C177.255 305.64 176.208 305.849 174.906 305.849C173.094 305.849 171.505 305.208 170.141 303.927C168.786 302.635 168.109 300.505 168.109 297.536C168.109 294.734 168.792 292.547 170.156 290.974C171.531 289.401 173.188 288.614 175.125 288.614ZM180.188 297.208C180.188 295.135 179.76 293.599 178.906 292.599C178.052 291.599 176.964 291.099 175.641 291.099C173.661 291.099 172.307 292.026 171.578 293.88C171.193 294.869 171 296.166 171 297.771C171 299.656 171.38 301.093 172.141 302.083C172.911 303.062 173.943 303.552 175.234 303.552C177.255 303.552 178.677 302.64 179.5 300.817C179.958 299.786 180.188 298.583 180.188 297.208ZM187.109 288.911H189.781V291.802C190 291.239 190.536 290.557 191.391 289.755C192.245 288.942 193.229 288.536 194.344 288.536C194.396 288.536 194.484 288.541 194.609 288.552C194.734 288.562 194.948 288.583 195.25 288.614V291.583C195.083 291.552 194.927 291.531 194.781 291.521C194.646 291.51 194.495 291.505 194.328 291.505C192.911 291.505 191.823 291.963 191.062 292.88C190.302 293.786 189.922 294.833 189.922 296.021V305.646H187.109V288.911ZM199.844 301.192C199.844 302.005 200.141 302.646 200.734 303.114C201.328 303.583 202.031 303.817 202.844 303.817C203.833 303.817 204.792 303.588 205.719 303.13C207.281 302.369 208.062 301.125 208.062 299.396V297.13C207.719 297.349 207.276 297.531 206.734 297.677C206.193 297.823 205.661 297.927 205.141 297.989L203.438 298.208C202.417 298.343 201.651 298.557 201.141 298.849C200.276 299.338 199.844 300.119 199.844 301.192ZM206.656 295.505C207.302 295.422 207.734 295.151 207.953 294.692C208.078 294.442 208.141 294.083 208.141 293.614C208.141 292.656 207.797 291.963 207.109 291.536C206.432 291.099 205.458 290.88 204.188 290.88C202.719 290.88 201.677 291.276 201.062 292.067C200.719 292.505 200.495 293.156 200.391 294.021H197.766C197.818 291.958 198.484 290.526 199.766 289.724C201.057 288.911 202.552 288.505 204.25 288.505C206.219 288.505 207.818 288.88 209.047 289.63C210.266 290.38 210.875 291.547 210.875 293.13V302.771C210.875 303.062 210.932 303.297 211.047 303.474C211.172 303.651 211.427 303.739 211.812 303.739C211.938 303.739 212.078 303.734 212.234 303.724C212.391 303.703 212.557 303.677 212.734 303.646V305.724C212.297 305.849 211.964 305.927 211.734 305.958C211.505 305.989 211.193 306.005 210.797 306.005C209.828 306.005 209.125 305.661 208.688 304.974C208.458 304.609 208.297 304.093 208.203 303.427C207.63 304.177 206.807 304.828 205.734 305.38C204.661 305.932 203.479 306.208 202.188 306.208C200.635 306.208 199.365 305.739 198.375 304.802C197.396 303.854 196.906 302.672 196.906 301.255C196.906 299.703 197.391 298.5 198.359 297.646C199.328 296.791 200.599 296.265 202.172 296.067L206.656 295.505ZM216.062 284.239H218.906V288.911H221.578V291.208H218.906V302.13C218.906 302.713 219.104 303.104 219.5 303.302C219.719 303.416 220.083 303.474 220.594 303.474C220.729 303.474 220.875 303.474 221.031 303.474C221.188 303.463 221.37 303.448 221.578 303.427V305.646C221.255 305.739 220.917 305.807 220.562 305.849C220.219 305.89 219.844 305.911 219.438 305.911C218.125 305.911 217.234 305.578 216.766 304.911C216.297 304.234 216.062 303.359 216.062 302.286V291.208H213.797V288.911H216.062V284.239ZM231.375 288.536C232.562 288.536 233.714 288.817 234.828 289.38C235.943 289.932 236.792 290.651 237.375 291.536C237.938 292.38 238.312 293.364 238.5 294.489C238.667 295.26 238.75 296.489 238.75 298.177H226.484C226.536 299.875 226.938 301.239 227.688 302.271C228.438 303.291 229.599 303.802 231.172 303.802C232.641 303.802 233.812 303.317 234.688 302.349C235.188 301.786 235.542 301.135 235.75 300.396H238.516C238.443 301.01 238.198 301.698 237.781 302.458C237.375 303.208 236.917 303.823 236.406 304.302C235.552 305.135 234.495 305.698 233.234 305.989C232.557 306.156 231.792 306.239 230.938 306.239C228.854 306.239 227.089 305.484 225.641 303.974C224.193 302.453 223.469 300.328 223.469 297.599C223.469 294.911 224.198 292.729 225.656 291.052C227.115 289.375 229.021 288.536 231.375 288.536ZM235.859 295.942C235.745 294.724 235.479 293.75 235.062 293.021C234.292 291.666 233.005 290.989 231.203 290.989C229.911 290.989 228.828 291.458 227.953 292.396C227.078 293.323 226.615 294.505 226.562 295.942H235.859ZM244 297.474C244 299.265 244.38 300.765 245.141 301.974C245.901 303.182 247.12 303.786 248.797 303.786C250.099 303.786 251.167 303.229 252 302.114C252.844 300.989 253.266 299.38 253.266 297.286C253.266 295.172 252.833 293.609 251.969 292.599C251.104 291.578 250.036 291.067 248.766 291.067C247.349 291.067 246.198 291.609 245.312 292.692C244.438 293.776 244 295.369 244 297.474ZM248.234 288.614C249.516 288.614 250.589 288.885 251.453 289.427C251.953 289.739 252.521 290.286 253.156 291.067V282.614H255.859V305.646H253.328V303.317C252.672 304.349 251.896 305.093 251 305.552C250.104 306.01 249.078 306.239 247.922 306.239C246.057 306.239 244.443 305.458 243.078 303.896C241.714 302.323 241.031 300.234 241.031 297.63C241.031 295.192 241.651 293.083 242.891 291.302C244.141 289.51 245.922 288.614 248.234 288.614ZM270.609 300.396C270.693 301.333 270.927 302.052 271.312 302.552C272.021 303.458 273.25 303.911 275 303.911C276.042 303.911 276.958 303.687 277.75 303.239C278.542 302.781 278.938 302.078 278.938 301.13C278.938 300.411 278.62 299.864 277.984 299.489C277.578 299.26 276.776 298.994 275.578 298.692L273.344 298.13C271.917 297.776 270.865 297.38 270.188 296.942C268.979 296.182 268.375 295.13 268.375 293.786C268.375 292.203 268.943 290.922 270.078 289.942C271.224 288.963 272.76 288.474 274.688 288.474C277.208 288.474 279.026 289.213 280.141 290.692C280.839 291.63 281.177 292.64 281.156 293.724H278.5C278.448 293.088 278.224 292.51 277.828 291.989C277.182 291.25 276.062 290.88 274.469 290.88C273.406 290.88 272.599 291.083 272.047 291.489C271.505 291.896 271.234 292.432 271.234 293.099C271.234 293.828 271.594 294.411 272.312 294.849C272.729 295.109 273.344 295.338 274.156 295.536L276.016 295.989C278.036 296.479 279.391 296.953 280.078 297.411C281.172 298.13 281.719 299.26 281.719 300.802C281.719 302.291 281.151 303.578 280.016 304.661C278.891 305.744 277.172 306.286 274.859 306.286C272.37 306.286 270.604 305.724 269.562 304.599C268.531 303.463 267.979 302.062 267.906 300.396H270.609ZM291.578 303.833C293.443 303.833 294.719 303.13 295.406 301.724C296.104 300.307 296.453 298.734 296.453 297.005C296.453 295.442 296.203 294.172 295.703 293.192C294.911 291.651 293.547 290.88 291.609 290.88C289.891 290.88 288.641 291.536 287.859 292.849C287.078 294.161 286.688 295.744 286.688 297.599C286.688 299.38 287.078 300.864 287.859 302.052C288.641 303.239 289.88 303.833 291.578 303.833ZM291.688 288.427C293.844 288.427 295.667 289.146 297.156 290.583C298.646 292.021 299.391 294.135 299.391 296.927C299.391 299.625 298.734 301.854 297.422 303.614C296.109 305.375 294.073 306.255 291.312 306.255C289.01 306.255 287.182 305.479 285.828 303.927C284.474 302.364 283.797 300.271 283.797 297.646C283.797 294.833 284.51 292.593 285.938 290.927C287.365 289.26 289.281 288.427 291.688 288.427ZM302.828 282.692H305.641V305.646H302.828V282.692ZM312.688 288.911V300.021C312.688 300.875 312.823 301.573 313.094 302.114C313.594 303.114 314.526 303.614 315.891 303.614C317.849 303.614 319.182 302.739 319.891 300.989C320.276 300.052 320.469 298.765 320.469 297.13V288.911H323.281V305.646H320.625L320.656 303.177C320.292 303.812 319.839 304.349 319.297 304.786C318.224 305.661 316.922 306.099 315.391 306.099C313.005 306.099 311.38 305.302 310.516 303.708C310.047 302.854 309.812 301.713 309.812 300.286V288.911H312.688ZM328.25 284.239H331.094V288.911H333.766V291.208H331.094V302.13C331.094 302.713 331.292 303.104 331.688 303.302C331.906 303.416 332.271 303.474 332.781 303.474C332.917 303.474 333.062 303.474 333.219 303.474C333.375 303.463 333.557 303.448 333.766 303.427V305.646C333.443 305.739 333.104 305.807 332.75 305.849C332.406 305.89 332.031 305.911 331.625 305.911C330.312 305.911 329.422 305.578 328.953 304.911C328.484 304.234 328.25 303.359 328.25 302.286V291.208H325.984V288.911H328.25V284.239ZM336.594 288.989H339.453V305.646H336.594V288.989ZM336.594 282.692H339.453V285.88H336.594V282.692ZM350.359 303.833C352.224 303.833 353.5 303.13 354.188 301.724C354.885 300.307 355.234 298.734 355.234 297.005C355.234 295.442 354.984 294.172 354.484 293.192C353.693 291.651 352.328 290.88 350.391 290.88C348.672 290.88 347.422 291.536 346.641 292.849C345.859 294.161 345.469 295.744 345.469 297.599C345.469 299.38 345.859 300.864 346.641 302.052C347.422 303.239 348.661 303.833 350.359 303.833ZM350.469 288.427C352.625 288.427 354.448 289.146 355.938 290.583C357.427 292.021 358.172 294.135 358.172 296.927C358.172 299.625 357.516 301.854 356.203 303.614C354.891 305.375 352.854 306.255 350.094 306.255C347.792 306.255 345.964 305.479 344.609 303.927C343.255 302.364 342.578 300.271 342.578 297.646C342.578 294.833 343.292 292.593 344.719 290.927C346.146 289.26 348.062 288.427 350.469 288.427ZM361.531 288.911H364.203V291.286C364.995 290.307 365.833 289.604 366.719 289.177C367.604 288.75 368.589 288.536 369.672 288.536C372.047 288.536 373.651 289.364 374.484 291.021C374.943 291.927 375.172 293.224 375.172 294.911V305.646H372.312V295.099C372.312 294.078 372.161 293.255 371.859 292.63C371.359 291.588 370.453 291.067 369.141 291.067C368.474 291.067 367.927 291.135 367.5 291.271C366.729 291.5 366.052 291.958 365.469 292.646C365 293.198 364.693 293.771 364.547 294.364C364.411 294.948 364.344 295.786 364.344 296.88V305.646H361.531V288.911ZM389.547 288.911L392.766 302.099L396.031 288.911H399.188L402.469 302.021L405.891 288.911H408.703L403.844 305.646H400.922L397.516 292.692L394.219 305.646H391.297L386.469 288.911H389.547ZM411.375 288.989H414.234V305.646H411.375V288.989ZM411.375 282.692H414.234V285.88H411.375V282.692ZM419.062 284.239H421.906V288.911H424.578V291.208H421.906V302.13C421.906 302.713 422.104 303.104 422.5 303.302C422.719 303.416 423.083 303.474 423.594 303.474C423.729 303.474 423.875 303.474 424.031 303.474C424.188 303.463 424.37 303.448 424.578 303.427V305.646C424.255 305.739 423.917 305.807 423.562 305.849C423.219 305.89 422.844 305.911 422.438 305.911C421.125 305.911 420.234 305.578 419.766 304.911C419.297 304.234 419.062 303.359 419.062 302.286V291.208H416.797V288.911H419.062V284.239ZM427.406 282.614H430.219V291.177C430.885 290.333 431.484 289.739 432.016 289.396C432.922 288.802 434.052 288.505 435.406 288.505C437.833 288.505 439.479 289.354 440.344 291.052C440.812 291.979 441.047 293.265 441.047 294.911V305.646H438.156V295.099C438.156 293.869 438 292.968 437.688 292.396C437.177 291.479 436.219 291.021 434.812 291.021C433.646 291.021 432.589 291.422 431.641 292.224C430.693 293.026 430.219 294.541 430.219 296.771V305.646H427.406V282.614ZM461.094 288.536C462.281 288.536 463.432 288.817 464.547 289.38C465.661 289.932 466.51 290.651 467.094 291.536C467.656 292.38 468.031 293.364 468.219 294.489C468.385 295.26 468.469 296.489 468.469 298.177H456.203C456.255 299.875 456.656 301.239 457.406 302.271C458.156 303.291 459.318 303.802 460.891 303.802C462.359 303.802 463.531 303.317 464.406 302.349C464.906 301.786 465.26 301.135 465.469 300.396H468.234C468.161 301.01 467.917 301.698 467.5 302.458C467.094 303.208 466.635 303.823 466.125 304.302C465.271 305.135 464.214 305.698 462.953 305.989C462.276 306.156 461.51 306.239 460.656 306.239C458.573 306.239 456.807 305.484 455.359 303.974C453.911 302.453 453.188 300.328 453.188 297.599C453.188 294.911 453.917 292.729 455.375 291.052C456.833 289.375 458.74 288.536 461.094 288.536ZM465.578 295.942C465.464 294.724 465.198 293.75 464.781 293.021C464.01 291.666 462.724 290.989 460.922 290.989C459.63 290.989 458.547 291.458 457.672 292.396C456.797 293.323 456.333 294.505 456.281 295.942H465.578ZM471.938 288.911H474.609V291.286C475.401 290.307 476.24 289.604 477.125 289.177C478.01 288.75 478.995 288.536 480.078 288.536C482.453 288.536 484.057 289.364 484.891 291.021C485.349 291.927 485.578 293.224 485.578 294.911V305.646H482.719V295.099C482.719 294.078 482.568 293.255 482.266 292.63C481.766 291.588 480.859 291.067 479.547 291.067C478.88 291.067 478.333 291.135 477.906 291.271C477.135 291.5 476.458 291.958 475.875 292.646C475.406 293.198 475.099 293.771 474.953 294.364C474.818 294.948 474.75 295.786 474.75 296.88V305.646H471.938V288.911ZM490.312 284.239H493.156V288.911H495.828V291.208H493.156V302.13C493.156 302.713 493.354 303.104 493.75 303.302C493.969 303.416 494.333 303.474 494.844 303.474C494.979 303.474 495.125 303.474 495.281 303.474C495.438 303.463 495.62 303.448 495.828 303.427V305.646C495.505 305.739 495.167 305.807 494.812 305.849C494.469 305.89 494.094 305.911 493.688 305.911C492.375 305.911 491.484 305.578 491.016 304.911C490.547 304.234 490.312 303.359 490.312 302.286V291.208H488.047V288.911H490.312V284.239ZM505.625 288.536C506.812 288.536 507.964 288.817 509.078 289.38C510.193 289.932 511.042 290.651 511.625 291.536C512.188 292.38 512.562 293.364 512.75 294.489C512.917 295.26 513 296.489 513 298.177H500.734C500.786 299.875 501.188 301.239 501.938 302.271C502.688 303.291 503.849 303.802 505.422 303.802C506.891 303.802 508.062 303.317 508.938 302.349C509.438 301.786 509.792 301.135 510 300.396H512.766C512.693 301.01 512.448 301.698 512.031 302.458C511.625 303.208 511.167 303.823 510.656 304.302C509.802 305.135 508.745 305.698 507.484 305.989C506.807 306.156 506.042 306.239 505.188 306.239C503.104 306.239 501.339 305.484 499.891 303.974C498.443 302.453 497.719 300.328 497.719 297.599C497.719 294.911 498.448 292.729 499.906 291.052C501.365 289.375 503.271 288.536 505.625 288.536ZM510.109 295.942C509.995 294.724 509.729 293.75 509.312 293.021C508.542 291.666 507.255 290.989 505.453 290.989C504.161 290.989 503.078 291.458 502.203 292.396C501.328 293.323 500.865 294.505 500.812 295.942H510.109ZM516.547 288.911H519.219V291.802C519.438 291.239 519.974 290.557 520.828 289.755C521.682 288.942 522.667 288.536 523.781 288.536C523.833 288.536 523.922 288.541 524.047 288.552C524.172 288.562 524.385 288.583 524.688 288.614V291.583C524.521 291.552 524.365 291.531 524.219 291.521C524.083 291.51 523.932 291.505 523.766 291.505C522.349 291.505 521.26 291.963 520.5 292.88C519.74 293.786 519.359 294.833 519.359 296.021V305.646H516.547V288.911ZM534.188 303.755C535.5 303.755 536.589 303.208 537.453 302.114C538.328 301.01 538.766 299.364 538.766 297.177C538.766 295.843 538.573 294.698 538.188 293.739C537.458 291.896 536.125 290.974 534.188 290.974C532.24 290.974 530.906 291.948 530.188 293.896C529.802 294.937 529.609 296.26 529.609 297.864C529.609 299.156 529.802 300.255 530.188 301.161C530.917 302.89 532.25 303.755 534.188 303.755ZM526.906 288.989H529.641V291.208C530.203 290.448 530.818 289.859 531.484 289.442C532.432 288.817 533.547 288.505 534.828 288.505C536.724 288.505 538.333 289.234 539.656 290.692C540.979 292.14 541.641 294.213 541.641 296.911C541.641 300.557 540.688 303.161 538.781 304.724C537.573 305.713 536.167 306.208 534.562 306.208C533.302 306.208 532.245 305.932 531.391 305.38C530.891 305.067 530.333 304.531 529.719 303.771V312.317H526.906V288.989ZM545.016 288.911H547.688V291.802C547.906 291.239 548.443 290.557 549.297 289.755C550.151 288.942 551.135 288.536 552.25 288.536C552.302 288.536 552.391 288.541 552.516 288.552C552.641 288.562 552.854 288.583 553.156 288.614V291.583C552.99 291.552 552.833 291.531 552.688 291.521C552.552 291.51 552.401 291.505 552.234 291.505C550.818 291.505 549.729 291.963 548.969 292.88C548.208 293.786 547.828 294.833 547.828 296.021V305.646H545.016V288.911ZM555.594 288.989H558.453V305.646H555.594V288.989ZM555.594 282.692H558.453V285.88H555.594V282.692ZM564.391 300.396C564.474 301.333 564.708 302.052 565.094 302.552C565.802 303.458 567.031 303.911 568.781 303.911C569.823 303.911 570.74 303.687 571.531 303.239C572.323 302.781 572.719 302.078 572.719 301.13C572.719 300.411 572.401 299.864 571.766 299.489C571.359 299.26 570.557 298.994 569.359 298.692L567.125 298.13C565.698 297.776 564.646 297.38 563.969 296.942C562.76 296.182 562.156 295.13 562.156 293.786C562.156 292.203 562.724 290.922 563.859 289.942C565.005 288.963 566.542 288.474 568.469 288.474C570.99 288.474 572.807 289.213 573.922 290.692C574.62 291.63 574.958 292.64 574.938 293.724H572.281C572.229 293.088 572.005 292.51 571.609 291.989C570.964 291.25 569.844 290.88 568.25 290.88C567.188 290.88 566.38 291.083 565.828 291.489C565.286 291.896 565.016 292.432 565.016 293.099C565.016 293.828 565.375 294.411 566.094 294.849C566.51 295.109 567.125 295.338 567.938 295.536L569.797 295.989C571.818 296.479 573.172 296.953 573.859 297.411C574.953 298.13 575.5 299.26 575.5 300.802C575.5 302.291 574.932 303.578 573.797 304.661C572.672 305.744 570.953 306.286 568.641 306.286C566.151 306.286 564.385 305.724 563.344 304.599C562.312 303.463 561.76 302.062 561.688 300.396H564.391ZM585.688 288.536C586.875 288.536 588.026 288.817 589.141 289.38C590.255 289.932 591.104 290.651 591.688 291.536C592.25 292.38 592.625 293.364 592.812 294.489C592.979 295.26 593.062 296.489 593.062 298.177H580.797C580.849 299.875 581.25 301.239 582 302.271C582.75 303.291 583.911 303.802 585.484 303.802C586.953 303.802 588.125 303.317 589 302.349C589.5 301.786 589.854 301.135 590.062 300.396H592.828C592.755 301.01 592.51 301.698 592.094 302.458C591.688 303.208 591.229 303.823 590.719 304.302C589.865 305.135 588.807 305.698 587.547 305.989C586.87 306.156 586.104 306.239 585.25 306.239C583.167 306.239 581.401 305.484 579.953 303.974C578.505 302.453 577.781 300.328 577.781 297.599C577.781 294.911 578.51 292.729 579.969 291.052C581.427 289.375 583.333 288.536 585.688 288.536ZM590.172 295.942C590.057 294.724 589.792 293.75 589.375 293.021C588.604 291.666 587.318 290.989 585.516 290.989C584.224 290.989 583.141 291.458 582.266 292.396C581.391 293.323 580.927 294.505 580.875 295.942H590.172ZM119.719 338.192C119.719 339.005 120.016 339.646 120.609 340.114C121.203 340.583 121.906 340.817 122.719 340.817C123.708 340.817 124.667 340.588 125.594 340.13C127.156 339.369 127.938 338.125 127.938 336.396V334.13C127.594 334.349 127.151 334.531 126.609 334.677C126.068 334.823 125.536 334.927 125.016 334.989L123.312 335.208C122.292 335.343 121.526 335.557 121.016 335.849C120.151 336.338 119.719 337.119 119.719 338.192ZM126.531 332.505C127.177 332.422 127.609 332.151 127.828 331.692C127.953 331.442 128.016 331.083 128.016 330.614C128.016 329.656 127.672 328.963 126.984 328.536C126.307 328.099 125.333 327.88 124.062 327.88C122.594 327.88 121.552 328.276 120.938 329.067C120.594 329.505 120.37 330.156 120.266 331.021H117.641C117.693 328.958 118.359 327.526 119.641 326.724C120.932 325.911 122.427 325.505 124.125 325.505C126.094 325.505 127.693 325.88 128.922 326.63C130.141 327.38 130.75 328.547 130.75 330.13V339.771C130.75 340.062 130.807 340.297 130.922 340.474C131.047 340.651 131.302 340.739 131.688 340.739C131.812 340.739 131.953 340.734 132.109 340.724C132.266 340.703 132.432 340.677 132.609 340.646V342.724C132.172 342.849 131.839 342.927 131.609 342.958C131.38 342.989 131.068 343.005 130.672 343.005C129.703 343.005 129 342.661 128.562 341.974C128.333 341.609 128.172 341.093 128.078 340.427C127.505 341.177 126.682 341.828 125.609 342.38C124.536 342.932 123.354 343.208 122.062 343.208C120.51 343.208 119.24 342.739 118.25 341.802C117.271 340.854 116.781 339.672 116.781 338.255C116.781 336.703 117.266 335.5 118.234 334.646C119.203 333.791 120.474 333.265 122.047 333.067L126.531 332.505ZM141.828 325.427C143.714 325.427 145.245 325.885 146.422 326.802C147.609 327.718 148.323 329.297 148.562 331.536H145.828C145.661 330.505 145.281 329.651 144.688 328.974C144.094 328.286 143.141 327.942 141.828 327.942C140.036 327.942 138.755 328.817 137.984 330.567C137.484 331.703 137.234 333.104 137.234 334.771C137.234 336.448 137.589 337.859 138.297 339.005C139.005 340.151 140.12 340.724 141.641 340.724C142.807 340.724 143.729 340.369 144.406 339.661C145.094 338.942 145.568 337.963 145.828 336.724H148.562C148.25 338.942 147.469 340.567 146.219 341.599C144.969 342.619 143.37 343.13 141.422 343.13C139.234 343.13 137.49 342.333 136.188 340.739C134.885 339.135 134.234 337.135 134.234 334.739C134.234 331.802 134.948 329.515 136.375 327.88C137.802 326.244 139.62 325.427 141.828 325.427ZM157.828 325.427C159.714 325.427 161.245 325.885 162.422 326.802C163.609 327.718 164.323 329.297 164.562 331.536H161.828C161.661 330.505 161.281 329.651 160.688 328.974C160.094 328.286 159.141 327.942 157.828 327.942C156.036 327.942 154.755 328.817 153.984 330.567C153.484 331.703 153.234 333.104 153.234 334.771C153.234 336.448 153.589 337.859 154.297 339.005C155.005 340.151 156.12 340.724 157.641 340.724C158.807 340.724 159.729 340.369 160.406 339.661C161.094 338.942 161.568 337.963 161.828 336.724H164.562C164.25 338.942 163.469 340.567 162.219 341.599C160.969 342.619 159.37 343.13 157.422 343.13C155.234 343.13 153.49 342.333 152.188 340.739C150.885 339.135 150.234 337.135 150.234 334.739C150.234 331.802 150.948 329.515 152.375 327.88C153.802 326.244 155.62 325.427 157.828 325.427ZM174.016 340.833C175.88 340.833 177.156 340.13 177.844 338.724C178.542 337.307 178.891 335.734 178.891 334.005C178.891 332.442 178.641 331.172 178.141 330.192C177.349 328.651 175.984 327.88 174.047 327.88C172.328 327.88 171.078 328.536 170.297 329.849C169.516 331.161 169.125 332.744 169.125 334.599C169.125 336.38 169.516 337.864 170.297 339.052C171.078 340.239 172.318 340.833 174.016 340.833ZM174.125 325.427C176.281 325.427 178.104 326.146 179.594 327.583C181.083 329.021 181.828 331.135 181.828 333.927C181.828 336.625 181.172 338.854 179.859 340.614C178.547 342.375 176.51 343.255 173.75 343.255C171.448 343.255 169.62 342.479 168.266 340.927C166.911 339.364 166.234 337.271 166.234 334.646C166.234 331.833 166.948 329.593 168.375 327.927C169.802 326.26 171.719 325.427 174.125 325.427ZM188 325.911V337.021C188 337.875 188.135 338.573 188.406 339.114C188.906 340.114 189.839 340.614 191.203 340.614C193.161 340.614 194.495 339.739 195.203 337.989C195.589 337.052 195.781 335.765 195.781 334.13V325.911H198.594V342.646H195.938L195.969 340.177C195.604 340.812 195.151 341.349 194.609 341.786C193.536 342.661 192.234 343.099 190.703 343.099C188.318 343.099 186.693 342.302 185.828 340.708C185.359 339.854 185.125 338.713 185.125 337.286V325.911H188ZM203 325.911H205.672V328.286C206.464 327.307 207.302 326.604 208.188 326.177C209.073 325.75 210.057 325.536 211.141 325.536C213.516 325.536 215.12 326.364 215.953 328.021C216.411 328.927 216.641 330.224 216.641 331.911V342.646H213.781V332.099C213.781 331.078 213.63 330.255 213.328 329.63C212.828 328.588 211.922 328.067 210.609 328.067C209.943 328.067 209.396 328.135 208.969 328.271C208.198 328.5 207.521 328.958 206.938 329.646C206.469 330.198 206.161 330.771 206.016 331.364C205.88 331.948 205.812 332.786 205.812 333.88V342.646H203V325.911ZM221.375 321.239H224.219V325.911H226.891V328.208H224.219V339.13C224.219 339.713 224.417 340.104 224.812 340.302C225.031 340.416 225.396 340.474 225.906 340.474C226.042 340.474 226.188 340.474 226.344 340.474C226.5 340.463 226.682 340.448 226.891 340.427V342.646C226.568 342.739 226.229 342.807 225.875 342.849C225.531 342.89 225.156 342.911 224.75 342.911C223.438 342.911 222.547 342.578 222.078 341.911C221.609 341.234 221.375 340.359 221.375 339.286V328.208H219.109V325.911H221.375V321.239ZM229.719 325.989H232.578V342.646H229.719V325.989ZM229.719 319.692H232.578V322.88H229.719V319.692ZM236.844 325.911H239.516V328.286C240.307 327.307 241.146 326.604 242.031 326.177C242.917 325.75 243.901 325.536 244.984 325.536C247.359 325.536 248.964 326.364 249.797 328.021C250.255 328.927 250.484 330.224 250.484 331.911V342.646H247.625V332.099C247.625 331.078 247.474 330.255 247.172 329.63C246.672 328.588 245.766 328.067 244.453 328.067C243.786 328.067 243.24 328.135 242.812 328.271C242.042 328.5 241.365 328.958 240.781 329.646C240.312 330.198 240.005 330.771 239.859 331.364C239.724 331.948 239.656 332.786 239.656 333.88V342.646H236.844V325.911ZM260.562 325.614C261.875 325.614 263.021 325.937 264 326.583C264.531 326.948 265.073 327.479 265.625 328.177V326.067H268.219V341.286C268.219 343.411 267.906 345.088 267.281 346.317C266.115 348.588 263.911 349.724 260.672 349.724C258.87 349.724 257.354 349.317 256.125 348.505C254.896 347.703 254.208 346.442 254.062 344.724H256.922C257.057 345.474 257.328 346.052 257.734 346.458C258.37 347.083 259.37 347.396 260.734 347.396C262.891 347.396 264.302 346.635 264.969 345.114C265.365 344.218 265.547 342.619 265.516 340.317C264.953 341.172 264.276 341.807 263.484 342.224C262.693 342.64 261.646 342.849 260.344 342.849C258.531 342.849 256.943 342.208 255.578 340.927C254.224 339.635 253.547 337.505 253.547 334.536C253.547 331.734 254.229 329.547 255.594 327.974C256.969 326.401 258.625 325.614 260.562 325.614ZM265.625 334.208C265.625 332.135 265.198 330.599 264.344 329.599C263.49 328.599 262.401 328.099 261.078 328.099C259.099 328.099 257.745 329.026 257.016 330.88C256.63 331.869 256.438 333.166 256.438 334.771C256.438 336.656 256.818 338.093 257.578 339.083C258.349 340.062 259.38 340.552 260.672 340.552C262.693 340.552 264.115 339.64 264.938 337.817C265.396 336.786 265.625 335.583 265.625 334.208ZM283.531 338.192C283.531 339.005 283.828 339.646 284.422 340.114C285.016 340.583 285.719 340.817 286.531 340.817C287.521 340.817 288.479 340.588 289.406 340.13C290.969 339.369 291.75 338.125 291.75 336.396V334.13C291.406 334.349 290.964 334.531 290.422 334.677C289.88 334.823 289.349 334.927 288.828 334.989L287.125 335.208C286.104 335.343 285.339 335.557 284.828 335.849C283.964 336.338 283.531 337.119 283.531 338.192ZM290.344 332.505C290.99 332.422 291.422 332.151 291.641 331.692C291.766 331.442 291.828 331.083 291.828 330.614C291.828 329.656 291.484 328.963 290.797 328.536C290.12 328.099 289.146 327.88 287.875 327.88C286.406 327.88 285.365 328.276 284.75 329.067C284.406 329.505 284.182 330.156 284.078 331.021H281.453C281.505 328.958 282.172 327.526 283.453 326.724C284.745 325.911 286.24 325.505 287.938 325.505C289.906 325.505 291.505 325.88 292.734 326.63C293.953 327.38 294.562 328.547 294.562 330.13V339.771C294.562 340.062 294.62 340.297 294.734 340.474C294.859 340.651 295.115 340.739 295.5 340.739C295.625 340.739 295.766 340.734 295.922 340.724C296.078 340.703 296.245 340.677 296.422 340.646V342.724C295.984 342.849 295.651 342.927 295.422 342.958C295.193 342.989 294.88 343.005 294.484 343.005C293.516 343.005 292.812 342.661 292.375 341.974C292.146 341.609 291.984 341.093 291.891 340.427C291.318 341.177 290.495 341.828 289.422 342.38C288.349 342.932 287.167 343.208 285.875 343.208C284.323 343.208 283.052 342.739 282.062 341.802C281.083 340.854 280.594 339.672 280.594 338.255C280.594 336.703 281.078 335.5 282.047 334.646C283.016 333.791 284.286 333.265 285.859 333.067L290.344 332.505ZM299.188 325.911H301.859V328.286C302.651 327.307 303.49 326.604 304.375 326.177C305.26 325.75 306.245 325.536 307.328 325.536C309.703 325.536 311.307 326.364 312.141 328.021C312.599 328.927 312.828 330.224 312.828 331.911V342.646H309.969V332.099C309.969 331.078 309.818 330.255 309.516 329.63C309.016 328.588 308.109 328.067 306.797 328.067C306.13 328.067 305.583 328.135 305.156 328.271C304.385 328.5 303.708 328.958 303.125 329.646C302.656 330.198 302.349 330.771 302.203 331.364C302.068 331.948 302 332.786 302 333.88V342.646H299.188V325.911ZM318.781 334.474C318.781 336.265 319.161 337.765 319.922 338.974C320.682 340.182 321.901 340.786 323.578 340.786C324.88 340.786 325.948 340.229 326.781 339.114C327.625 337.989 328.047 336.38 328.047 334.286C328.047 332.172 327.615 330.609 326.75 329.599C325.885 328.578 324.818 328.067 323.547 328.067C322.13 328.067 320.979 328.609 320.094 329.692C319.219 330.776 318.781 332.369 318.781 334.474ZM323.016 325.614C324.297 325.614 325.37 325.885 326.234 326.427C326.734 326.739 327.302 327.286 327.938 328.067V319.614H330.641V342.646H328.109V340.317C327.453 341.349 326.677 342.093 325.781 342.552C324.885 343.01 323.859 343.239 322.703 343.239C320.839 343.239 319.224 342.458 317.859 340.896C316.495 339.323 315.812 337.234 315.812 334.63C315.812 332.192 316.432 330.083 317.672 328.302C318.922 326.51 320.703 325.614 323.016 325.614ZM345.016 325.911L348.234 339.099L351.5 325.911H354.656L357.938 339.021L361.359 325.911H364.172L359.312 342.646H356.391L352.984 329.692L349.688 342.646H346.766L341.938 325.911H345.016ZM369 338.192C369 339.005 369.297 339.646 369.891 340.114C370.484 340.583 371.188 340.817 372 340.817C372.99 340.817 373.948 340.588 374.875 340.13C376.438 339.369 377.219 338.125 377.219 336.396V334.13C376.875 334.349 376.432 334.531 375.891 334.677C375.349 334.823 374.818 334.927 374.297 334.989L372.594 335.208C371.573 335.343 370.807 335.557 370.297 335.849C369.432 336.338 369 337.119 369 338.192ZM375.812 332.505C376.458 332.422 376.891 332.151 377.109 331.692C377.234 331.442 377.297 331.083 377.297 330.614C377.297 329.656 376.953 328.963 376.266 328.536C375.589 328.099 374.615 327.88 373.344 327.88C371.875 327.88 370.833 328.276 370.219 329.067C369.875 329.505 369.651 330.156 369.547 331.021H366.922C366.974 328.958 367.641 327.526 368.922 326.724C370.214 325.911 371.708 325.505 373.406 325.505C375.375 325.505 376.974 325.88 378.203 326.63C379.422 327.38 380.031 328.547 380.031 330.13V339.771C380.031 340.062 380.089 340.297 380.203 340.474C380.328 340.651 380.583 340.739 380.969 340.739C381.094 340.739 381.234 340.734 381.391 340.724C381.547 340.703 381.714 340.677 381.891 340.646V342.724C381.453 342.849 381.12 342.927 380.891 342.958C380.661 342.989 380.349 343.005 379.953 343.005C378.984 343.005 378.281 342.661 377.844 341.974C377.615 341.609 377.453 341.093 377.359 340.427C376.786 341.177 375.964 341.828 374.891 342.38C373.818 342.932 372.635 343.208 371.344 343.208C369.792 343.208 368.521 342.739 367.531 341.802C366.552 340.854 366.062 339.672 366.062 338.255C366.062 336.703 366.547 335.5 367.516 334.646C368.484 333.791 369.755 333.265 371.328 333.067L375.812 332.505ZM384.734 325.911H387.406V328.802C387.625 328.239 388.161 327.557 389.016 326.755C389.87 325.942 390.854 325.536 391.969 325.536C392.021 325.536 392.109 325.541 392.234 325.552C392.359 325.562 392.573 325.583 392.875 325.614V328.583C392.708 328.552 392.552 328.531 392.406 328.521C392.271 328.51 392.12 328.505 391.953 328.505C390.536 328.505 389.448 328.963 388.688 329.88C387.927 330.786 387.547 331.833 387.547 333.021V342.646H384.734V325.911ZM402.281 325.536C403.469 325.536 404.62 325.817 405.734 326.38C406.849 326.932 407.698 327.651 408.281 328.536C408.844 329.38 409.219 330.364 409.406 331.489C409.573 332.26 409.656 333.489 409.656 335.177H397.391C397.443 336.875 397.844 338.239 398.594 339.271C399.344 340.291 400.505 340.802 402.078 340.802C403.547 340.802 404.719 340.317 405.594 339.349C406.094 338.786 406.448 338.135 406.656 337.396H409.422C409.349 338.01 409.104 338.698 408.688 339.458C408.281 340.208 407.823 340.823 407.312 341.302C406.458 342.135 405.401 342.698 404.141 342.989C403.464 343.156 402.698 343.239 401.844 343.239C399.76 343.239 397.995 342.484 396.547 340.974C395.099 339.453 394.375 337.328 394.375 334.599C394.375 331.911 395.104 329.729 396.562 328.052C398.021 326.375 399.927 325.536 402.281 325.536ZM406.766 332.942C406.651 331.724 406.385 330.75 405.969 330.021C405.198 328.666 403.911 327.989 402.109 327.989C400.818 327.989 399.734 328.458 398.859 329.396C397.984 330.323 397.521 331.505 397.469 332.942H406.766ZM413.125 319.614H415.938V328.177C416.604 327.333 417.203 326.739 417.734 326.396C418.641 325.802 419.771 325.505 421.125 325.505C423.552 325.505 425.198 326.354 426.062 328.052C426.531 328.979 426.766 330.265 426.766 331.911V342.646H423.875V332.099C423.875 330.869 423.719 329.968 423.406 329.396C422.896 328.479 421.938 328.021 420.531 328.021C419.365 328.021 418.307 328.422 417.359 329.224C416.411 330.026 415.938 331.541 415.938 333.771V342.646H413.125V319.614ZM437.578 340.833C439.443 340.833 440.719 340.13 441.406 338.724C442.104 337.307 442.453 335.734 442.453 334.005C442.453 332.442 442.203 331.172 441.703 330.192C440.911 328.651 439.547 327.88 437.609 327.88C435.891 327.88 434.641 328.536 433.859 329.849C433.078 331.161 432.688 332.744 432.688 334.599C432.688 336.38 433.078 337.864 433.859 339.052C434.641 340.239 435.88 340.833 437.578 340.833ZM437.688 325.427C439.844 325.427 441.667 326.146 443.156 327.583C444.646 329.021 445.391 331.135 445.391 333.927C445.391 336.625 444.734 338.854 443.422 340.614C442.109 342.375 440.073 343.255 437.312 343.255C435.01 343.255 433.182 342.479 431.828 340.927C430.474 339.364 429.797 337.271 429.797 334.646C429.797 331.833 430.51 329.593 431.938 327.927C433.365 326.26 435.281 325.427 437.688 325.427ZM451.562 325.911V337.021C451.562 337.875 451.698 338.573 451.969 339.114C452.469 340.114 453.401 340.614 454.766 340.614C456.724 340.614 458.057 339.739 458.766 337.989C459.151 337.052 459.344 335.765 459.344 334.13V325.911H462.156V342.646H459.5L459.531 340.177C459.167 340.812 458.714 341.349 458.172 341.786C457.099 342.661 455.797 343.099 454.266 343.099C451.88 343.099 450.255 342.302 449.391 340.708C448.922 339.854 448.688 338.713 448.688 337.286V325.911H451.562ZM468.234 337.396C468.318 338.333 468.552 339.052 468.938 339.552C469.646 340.458 470.875 340.911 472.625 340.911C473.667 340.911 474.583 340.687 475.375 340.239C476.167 339.781 476.562 339.078 476.562 338.13C476.562 337.411 476.245 336.864 475.609 336.489C475.203 336.26 474.401 335.994 473.203 335.692L470.969 335.13C469.542 334.776 468.49 334.38 467.812 333.942C466.604 333.182 466 332.13 466 330.786C466 329.203 466.568 327.922 467.703 326.942C468.849 325.963 470.385 325.474 472.312 325.474C474.833 325.474 476.651 326.213 477.766 327.692C478.464 328.63 478.802 329.64 478.781 330.724H476.125C476.073 330.088 475.849 329.51 475.453 328.989C474.807 328.25 473.688 327.88 472.094 327.88C471.031 327.88 470.224 328.083 469.672 328.489C469.13 328.896 468.859 329.432 468.859 330.099C468.859 330.828 469.219 331.411 469.938 331.849C470.354 332.109 470.969 332.338 471.781 332.536L473.641 332.989C475.661 333.479 477.016 333.953 477.703 334.411C478.797 335.13 479.344 336.26 479.344 337.802C479.344 339.291 478.776 340.578 477.641 341.661C476.516 342.744 474.797 343.286 472.484 343.286C469.995 343.286 468.229 342.724 467.188 341.599C466.156 340.463 465.604 339.062 465.531 337.396H468.234ZM482.562 325.989H485.422V342.646H482.562V325.989ZM482.562 319.692H485.422V322.88H482.562V319.692ZM489.688 325.911H492.359V328.286C493.151 327.307 493.99 326.604 494.875 326.177C495.76 325.75 496.745 325.536 497.828 325.536C500.203 325.536 501.807 326.364 502.641 328.021C503.099 328.927 503.328 330.224 503.328 331.911V342.646H500.469V332.099C500.469 331.078 500.318 330.255 500.016 329.63C499.516 328.588 498.609 328.067 497.297 328.067C496.63 328.067 496.083 328.135 495.656 328.271C494.885 328.5 494.208 328.958 493.625 329.646C493.156 330.198 492.849 330.771 492.703 331.364C492.568 331.948 492.5 332.786 492.5 333.88V342.646H489.688V325.911ZM513.406 325.614C514.719 325.614 515.865 325.937 516.844 326.583C517.375 326.948 517.917 327.479 518.469 328.177V326.067H521.062V341.286C521.062 343.411 520.75 345.088 520.125 346.317C518.958 348.588 516.755 349.724 513.516 349.724C511.714 349.724 510.198 349.317 508.969 348.505C507.74 347.703 507.052 346.442 506.906 344.724H509.766C509.901 345.474 510.172 346.052 510.578 346.458C511.214 347.083 512.214 347.396 513.578 347.396C515.734 347.396 517.146 346.635 517.812 345.114C518.208 344.218 518.391 342.619 518.359 340.317C517.797 341.172 517.12 341.807 516.328 342.224C515.536 342.64 514.49 342.849 513.188 342.849C511.375 342.849 509.786 342.208 508.422 340.927C507.068 339.635 506.391 337.505 506.391 334.536C506.391 331.734 507.073 329.547 508.438 327.974C509.812 326.401 511.469 325.614 513.406 325.614ZM518.469 334.208C518.469 332.135 518.042 330.599 517.188 329.599C516.333 328.599 515.245 328.099 513.922 328.099C511.943 328.099 510.589 329.026 509.859 330.88C509.474 331.869 509.281 333.166 509.281 334.771C509.281 336.656 509.661 338.093 510.422 339.083C511.193 340.062 512.224 340.552 513.516 340.552C515.536 340.552 516.958 339.64 517.781 337.817C518.24 336.786 518.469 335.583 518.469 334.208ZM525.984 339.239H529.25V342.646H525.984V339.239Z" fill="#8EBCFF"/>
<path d="M235.961 537.149C237.195 536.993 238.094 536.712 238.656 536.306C239.641 535.587 240.133 534.345 240.133 532.579C240.133 531.235 239.672 530.173 238.75 529.392C238.203 528.938 237.273 528.47 235.961 527.985V537.149ZM233.734 512.657C232.375 512.688 231.367 513.056 230.711 513.759C230.055 514.446 229.727 515.392 229.727 516.595C229.727 517.907 230.219 518.946 231.203 519.712C231.75 520.134 232.594 520.524 233.734 520.884V512.657ZM236.008 547.087H233.734V542.423C230.656 542.079 228.359 541.407 226.844 540.407C224.172 538.61 222.859 535.548 222.906 531.22H229.234C229.453 533.188 229.758 534.509 230.148 535.181C230.758 536.228 231.953 536.907 233.734 537.22V527.212L231.836 526.649C228.852 525.774 226.742 524.556 225.508 522.993C224.289 521.431 223.68 519.548 223.68 517.345C223.68 515.892 223.914 514.571 224.383 513.384C224.867 512.196 225.539 511.173 226.398 510.313C227.508 509.204 228.742 508.438 230.102 508.017C230.93 507.751 232.141 507.556 233.734 507.431V504.313H235.961V507.478C238.508 507.681 240.508 508.306 241.961 509.353C244.602 511.024 245.969 513.735 246.062 517.485H239.898C239.773 516.095 239.539 515.079 239.195 514.438C238.602 513.329 237.523 512.72 235.961 512.61V521.54C239.68 522.821 242.18 523.954 243.461 524.938C245.57 526.579 246.625 528.892 246.625 531.876C246.625 535.813 245.18 538.673 242.289 540.454C240.523 541.548 238.43 542.188 236.008 542.376V547.087ZM256.07 531.103C256.07 532.462 256.289 533.587 256.727 534.478C257.539 536.118 259.016 536.938 261.156 536.938C262.469 536.938 263.609 536.493 264.578 535.603C265.562 534.696 266.055 533.399 266.055 531.712C266.055 529.478 265.148 527.985 263.336 527.235C262.305 526.813 260.68 526.603 258.461 526.603V521.821C260.633 521.79 262.148 521.579 263.008 521.188C264.492 520.532 265.234 519.204 265.234 517.204C265.234 515.907 264.852 514.853 264.086 514.04C263.336 513.228 262.273 512.821 260.898 512.821C259.32 512.821 258.156 513.321 257.406 514.321C256.672 515.321 256.32 516.657 256.352 518.329H250.117C250.18 516.642 250.469 515.04 250.984 513.524C251.531 512.196 252.391 510.97 253.562 509.845C254.438 509.048 255.477 508.438 256.68 508.017C257.883 507.595 259.359 507.384 261.109 507.384C264.359 507.384 266.977 508.228 268.961 509.915C270.961 511.587 271.961 513.837 271.961 516.665C271.961 518.665 271.367 520.353 270.18 521.728C269.43 522.587 268.648 523.173 267.836 523.485C268.445 523.485 269.32 524.009 270.461 525.056C272.164 526.634 273.016 528.79 273.016 531.524C273.016 534.399 272.016 536.931 270.016 539.118C268.031 541.29 265.086 542.376 261.18 542.376C256.367 542.376 253.023 540.806 251.148 537.665C250.164 535.993 249.617 533.806 249.508 531.103H256.07ZM276.391 519.501C276.391 515.86 277.438 512.915 279.531 510.665C281.641 508.399 284.375 507.267 287.734 507.267C292.906 507.267 296.453 509.556 298.375 514.134C299.469 516.728 300.016 520.142 300.016 524.376C300.016 528.485 299.492 531.915 298.445 534.665C296.445 539.899 292.773 542.517 287.43 542.517C284.883 542.517 282.594 541.767 280.562 540.267C278.531 538.751 277.367 536.548 277.07 533.657H283.727C283.883 534.657 284.305 535.47 284.992 536.095C285.68 536.72 286.594 537.032 287.734 537.032C289.938 537.032 291.484 535.813 292.375 533.376C292.859 532.032 293.164 530.071 293.289 527.493C292.68 528.259 292.031 528.845 291.344 529.251C290.094 530.001 288.555 530.376 286.727 530.376C284.023 530.376 281.625 529.446 279.531 527.587C277.438 525.712 276.391 523.017 276.391 519.501ZM288.18 524.938C289.102 524.938 289.969 524.673 290.781 524.142C292.297 523.173 293.055 521.493 293.055 519.103C293.055 517.181 292.602 515.657 291.695 514.532C290.805 513.407 289.578 512.845 288.016 512.845C286.875 512.845 285.898 513.165 285.086 513.806C283.805 514.806 283.164 516.501 283.164 518.892C283.164 520.907 283.57 522.423 284.383 523.438C285.211 524.438 286.477 524.938 288.18 524.938ZM303.109 519.501C303.109 515.86 304.156 512.915 306.25 510.665C308.359 508.399 311.094 507.267 314.453 507.267C319.625 507.267 323.172 509.556 325.094 514.134C326.188 516.728 326.734 520.142 326.734 524.376C326.734 528.485 326.211 531.915 325.164 534.665C323.164 539.899 319.492 542.517 314.148 542.517C311.602 542.517 309.312 541.767 307.281 540.267C305.25 538.751 304.086 536.548 303.789 533.657H310.445C310.602 534.657 311.023 535.47 311.711 536.095C312.398 536.72 313.312 537.032 314.453 537.032C316.656 537.032 318.203 535.813 319.094 533.376C319.578 532.032 319.883 530.071 320.008 527.493C319.398 528.259 318.75 528.845 318.062 529.251C316.812 530.001 315.273 530.376 313.445 530.376C310.742 530.376 308.344 529.446 306.25 527.587C304.156 525.712 303.109 523.017 303.109 519.501ZM314.898 524.938C315.82 524.938 316.688 524.673 317.5 524.142C319.016 523.173 319.773 521.493 319.773 519.103C319.773 517.181 319.32 515.657 318.414 514.532C317.523 513.407 316.297 512.845 314.734 512.845C313.594 512.845 312.617 513.165 311.805 513.806C310.523 514.806 309.883 516.501 309.883 518.892C309.883 520.907 310.289 522.423 311.102 523.438C311.93 524.438 313.195 524.938 314.898 524.938ZM339.156 505.931H344.711L331.281 541.532H325.773L339.156 505.931ZM373.422 515.423C374.547 515.423 375.656 515.642 376.75 516.079C377.844 516.517 378.836 517.282 379.727 518.376C380.445 519.267 380.93 520.36 381.18 521.657C381.336 522.517 381.414 523.774 381.414 525.431L381.367 541.532H374.523V525.267C374.523 524.298 374.367 523.501 374.055 522.876C373.461 521.688 372.367 521.095 370.773 521.095C368.93 521.095 367.656 521.86 366.953 523.392C366.594 524.204 366.414 525.181 366.414 526.321V541.532H359.688V526.321C359.688 524.806 359.531 523.704 359.219 523.017C358.656 521.782 357.555 521.165 355.914 521.165C354.008 521.165 352.727 521.782 352.07 523.017C351.711 523.72 351.531 524.767 351.531 526.157V541.532H344.758V516.032H351.25V519.759C352.078 518.431 352.859 517.485 353.594 516.923C354.891 515.923 356.57 515.423 358.633 515.423C360.586 515.423 362.164 515.853 363.367 516.712C364.336 517.509 365.07 518.532 365.57 519.782C366.445 518.282 367.531 517.181 368.828 516.478C370.203 515.774 371.734 515.423 373.422 515.423ZM399.039 536.821C400.992 536.821 402.492 536.126 403.539 534.735C404.586 533.345 405.109 531.368 405.109 528.806C405.109 526.243 404.586 524.274 403.539 522.899C402.492 521.509 400.992 520.813 399.039 520.813C397.086 520.813 395.578 521.509 394.516 522.899C393.469 524.274 392.945 526.243 392.945 528.806C392.945 531.368 393.469 533.345 394.516 534.735C395.578 536.126 397.086 536.821 399.039 536.821ZM412.117 528.806C412.117 532.556 411.039 535.767 408.883 538.438C406.727 541.095 403.453 542.423 399.062 542.423C394.672 542.423 391.398 541.095 389.242 538.438C387.086 535.767 386.008 532.556 386.008 528.806C386.008 525.118 387.086 521.923 389.242 519.22C391.398 516.517 394.672 515.165 399.062 515.165C403.453 515.165 406.727 516.517 408.883 519.22C411.039 521.923 412.117 525.118 412.117 528.806ZM431.078 515.376C433.719 515.376 435.875 516.071 437.547 517.462C439.234 518.837 440.078 521.126 440.078 524.329V541.532H433.234V525.993C433.234 524.649 433.055 523.618 432.695 522.899C432.039 521.587 430.789 520.931 428.945 520.931C426.68 520.931 425.125 521.892 424.281 523.813C423.844 524.829 423.625 526.126 423.625 527.704V541.532H416.969V516.032H423.414V519.759C424.273 518.446 425.086 517.501 425.852 516.923C427.227 515.892 428.969 515.376 431.078 515.376ZM443.641 520.978V516.22H447.203V509.095H453.812V516.22H457.961V520.978H453.812V534.478C453.812 535.524 453.945 536.181 454.211 536.446C454.477 536.696 455.289 536.821 456.648 536.821C456.852 536.821 457.062 536.821 457.281 536.821C457.516 536.806 457.742 536.79 457.961 536.774V541.767L454.797 541.884C451.641 541.993 449.484 541.446 448.328 540.243C447.578 539.478 447.203 538.298 447.203 536.704V520.978H443.641ZM476.336 515.329C477.914 515.329 479.344 515.603 480.625 516.149C481.922 516.696 482.984 517.532 483.812 518.657C484.516 519.61 484.945 520.595 485.102 521.61C485.258 522.61 485.336 524.251 485.336 526.532V541.532H478.516V525.993C478.516 524.618 478.281 523.509 477.812 522.665C477.203 521.478 476.047 520.884 474.344 520.884C472.578 520.884 471.234 521.478 470.312 522.665C469.406 523.837 468.953 525.517 468.953 527.704V541.532H462.297V507.103H468.953V519.313C469.922 517.829 471.039 516.798 472.305 516.22C473.586 515.626 474.93 515.329 476.336 515.329Z" fill="white"/>
<path d="M279.969 597.813C281.75 597.73 282.979 597.079 283.656 595.86C284.01 595.235 284.188 594.511 284.188 593.688C284.188 592.386 283.708 591.397 282.75 590.72C282.198 590.324 281.271 589.949 279.969 589.595V597.813ZM274.672 582.735C274.672 583.767 275.01 584.574 275.688 585.157C276.375 585.741 277.297 586.147 278.453 586.376V579.032C277.089 579.084 276.115 579.501 275.531 580.282C274.958 581.063 274.672 581.881 274.672 582.735ZM271.859 582.923C271.859 581.34 272.438 579.912 273.594 578.642C274.76 577.371 276.391 576.725 278.484 576.704V574.626H279.969V576.673C282.042 576.819 283.63 577.433 284.734 578.517C285.849 579.59 286.432 581.011 286.484 582.782H283.75C283.677 581.991 283.464 581.308 283.109 580.735C282.453 579.683 281.406 579.131 279.969 579.079V586.673C282.385 587.35 284.026 587.985 284.891 588.579C286.297 589.558 287 591.006 287 592.923C287 595.694 286.099 597.662 284.297 598.829C283.297 599.475 281.854 599.902 279.969 600.11V603.142H278.484V600.11C275.453 599.912 273.396 598.84 272.312 596.892C271.719 595.84 271.422 594.418 271.422 592.626H274.188C274.271 594.053 274.495 595.095 274.859 595.751C275.505 596.928 276.703 597.59 278.453 597.735V589.22C276.203 588.793 274.542 588.079 273.469 587.079C272.396 586.079 271.859 584.694 271.859 582.923ZM296.547 600.048C293.901 600.048 291.979 599.324 290.781 597.876C289.594 596.418 289 594.647 289 592.563H291.938C292.062 594.011 292.333 595.063 292.75 595.72C293.479 596.897 294.797 597.485 296.703 597.485C298.182 597.485 299.37 597.09 300.266 596.298C301.161 595.506 301.609 594.485 301.609 593.235C301.609 591.694 301.135 590.616 300.188 590.001C299.25 589.386 297.943 589.079 296.266 589.079C296.078 589.079 295.885 589.084 295.688 589.095C295.5 589.095 295.307 589.1 295.109 589.11V586.626C295.401 586.657 295.646 586.678 295.844 586.688C296.042 586.699 296.255 586.704 296.484 586.704C297.536 586.704 298.401 586.537 299.078 586.204C300.266 585.621 300.859 584.579 300.859 583.079C300.859 581.965 300.464 581.105 299.672 580.501C298.88 579.897 297.958 579.595 296.906 579.595C295.031 579.595 293.734 580.22 293.016 581.47C292.62 582.157 292.396 583.136 292.344 584.407H289.562C289.562 582.741 289.896 581.324 290.562 580.157C291.708 578.074 293.724 577.032 296.609 577.032C298.891 577.032 300.656 577.543 301.906 578.563C303.156 579.574 303.781 581.043 303.781 582.97C303.781 584.345 303.411 585.459 302.672 586.313C302.214 586.845 301.62 587.261 300.891 587.563C302.068 587.886 302.984 588.511 303.641 589.438C304.307 590.355 304.641 591.48 304.641 592.813C304.641 594.949 303.938 596.688 302.531 598.032C301.125 599.376 299.13 600.048 296.547 600.048ZM308.703 602.704C309.422 602.579 309.927 602.074 310.219 601.188C310.375 600.72 310.453 600.267 310.453 599.829C310.453 599.756 310.448 599.688 310.438 599.626C310.438 599.574 310.427 599.511 310.406 599.438H308.703V596.032H312.047V599.188C312.047 600.428 311.797 601.517 311.297 602.454C310.797 603.392 309.932 603.97 308.703 604.188V602.704ZM319.203 594.032C319.286 595.584 319.885 596.657 321 597.251C321.573 597.563 322.219 597.72 322.938 597.72C324.281 597.72 325.427 597.162 326.375 596.048C327.323 594.923 327.995 592.647 328.391 589.22C327.766 590.209 326.99 590.907 326.062 591.313C325.146 591.709 324.156 591.907 323.094 591.907C320.938 591.907 319.229 591.235 317.969 589.892C316.719 588.548 316.094 586.819 316.094 584.704C316.094 582.673 316.714 580.886 317.953 579.345C319.193 577.803 321.021 577.032 323.438 577.032C326.698 577.032 328.948 578.501 330.188 581.438C330.875 583.053 331.219 585.074 331.219 587.501C331.219 590.241 330.807 592.668 329.984 594.782C328.62 598.303 326.307 600.063 323.047 600.063C320.859 600.063 319.198 599.491 318.062 598.345C316.927 597.199 316.359 595.761 316.359 594.032H319.203ZM323.469 589.438C324.583 589.438 325.599 589.074 326.516 588.345C327.443 587.605 327.906 586.319 327.906 584.485C327.906 582.84 327.49 581.616 326.656 580.813C325.833 580.001 324.781 579.595 323.5 579.595C322.125 579.595 321.031 580.058 320.219 580.985C319.417 581.902 319.016 583.131 319.016 584.673C319.016 586.131 319.37 587.293 320.078 588.157C320.786 589.011 321.917 589.438 323.469 589.438ZM337.016 594.032C337.099 595.584 337.698 596.657 338.812 597.251C339.385 597.563 340.031 597.72 340.75 597.72C342.094 597.72 343.24 597.162 344.188 596.048C345.135 594.923 345.807 592.647 346.203 589.22C345.578 590.209 344.802 590.907 343.875 591.313C342.958 591.709 341.969 591.907 340.906 591.907C338.75 591.907 337.042 591.235 335.781 589.892C334.531 588.548 333.906 586.819 333.906 584.704C333.906 582.673 334.526 580.886 335.766 579.345C337.005 577.803 338.833 577.032 341.25 577.032C344.51 577.032 346.76 578.501 348 581.438C348.688 583.053 349.031 585.074 349.031 587.501C349.031 590.241 348.62 592.668 347.797 594.782C346.432 598.303 344.12 600.063 340.859 600.063C338.672 600.063 337.01 599.491 335.875 598.345C334.74 597.199 334.172 595.761 334.172 594.032H337.016ZM341.281 589.438C342.396 589.438 343.411 589.074 344.328 588.345C345.255 587.605 345.719 586.319 345.719 584.485C345.719 582.84 345.302 581.616 344.469 580.813C343.646 580.001 342.594 579.595 341.312 579.595C339.938 579.595 338.844 580.058 338.031 580.985C337.229 581.902 336.828 583.131 336.828 584.673C336.828 586.131 337.182 587.293 337.891 588.157C338.599 589.011 339.729 589.438 341.281 589.438ZM359.234 577.063C362.13 577.063 364.224 578.256 365.516 580.642C366.516 582.485 367.016 585.011 367.016 588.22C367.016 591.261 366.562 593.777 365.656 595.767C364.344 598.621 362.198 600.048 359.219 600.048C356.531 600.048 354.531 598.881 353.219 596.548C352.125 594.6 351.578 591.985 351.578 588.704C351.578 586.162 351.906 583.98 352.562 582.157C353.792 578.761 356.016 577.063 359.234 577.063ZM359.203 597.485C360.661 597.485 361.823 596.84 362.688 595.548C363.552 594.256 363.984 591.85 363.984 588.329C363.984 585.787 363.672 583.699 363.047 582.063C362.422 580.418 361.208 579.595 359.406 579.595C357.75 579.595 356.536 580.376 355.766 581.938C355.005 583.491 354.625 585.782 354.625 588.813C354.625 591.095 354.87 592.928 355.359 594.313C356.109 596.428 357.391 597.485 359.203 597.485ZM375.672 576.485H378.047L370.766 599.438H368.391L375.672 576.485ZM389.812 582.704H392.922C392.526 583.777 391.646 586.225 390.281 590.048C389.26 592.923 388.406 595.267 387.719 597.079C386.094 601.35 384.948 603.954 384.281 604.892C383.615 605.829 382.469 606.298 380.844 606.298C380.448 606.298 380.141 606.282 379.922 606.251C379.714 606.22 379.453 606.162 379.141 606.079V603.517C379.63 603.652 379.984 603.735 380.203 603.767C380.422 603.798 380.615 603.813 380.781 603.813C381.302 603.813 381.682 603.725 381.922 603.548C382.172 603.381 382.38 603.173 382.547 602.923C382.599 602.84 382.786 602.412 383.109 601.642C383.432 600.871 383.667 600.298 383.812 599.923L377.625 582.704H380.812L385.297 596.329L389.812 582.704ZM402.328 582.329C403.516 582.329 404.667 582.61 405.781 583.173C406.896 583.725 407.745 584.444 408.328 585.329C408.891 586.173 409.266 587.157 409.453 588.282C409.62 589.053 409.703 590.282 409.703 591.97H397.438C397.49 593.668 397.891 595.032 398.641 596.063C399.391 597.084 400.552 597.595 402.125 597.595C403.594 597.595 404.766 597.11 405.641 596.142C406.141 595.579 406.495 594.928 406.703 594.188H409.469C409.396 594.803 409.151 595.491 408.734 596.251C408.328 597.001 407.87 597.616 407.359 598.095C406.505 598.928 405.448 599.491 404.188 599.782C403.51 599.949 402.745 600.032 401.891 600.032C399.807 600.032 398.042 599.277 396.594 597.767C395.146 596.246 394.422 594.121 394.422 591.392C394.422 588.704 395.151 586.522 396.609 584.845C398.068 583.168 399.974 582.329 402.328 582.329ZM406.812 589.735C406.698 588.517 406.432 587.543 406.016 586.813C405.245 585.459 403.958 584.782 402.156 584.782C400.865 584.782 399.781 585.251 398.906 586.188C398.031 587.116 397.568 588.298 397.516 589.735H406.812ZM415.328 594.985C415.328 595.798 415.625 596.438 416.219 596.907C416.812 597.376 417.516 597.61 418.328 597.61C419.318 597.61 420.276 597.381 421.203 596.923C422.766 596.162 423.547 594.918 423.547 593.188V590.923C423.203 591.142 422.76 591.324 422.219 591.47C421.677 591.616 421.146 591.72 420.625 591.782L418.922 592.001C417.901 592.136 417.135 592.35 416.625 592.642C415.76 593.131 415.328 593.912 415.328 594.985ZM422.141 589.298C422.786 589.215 423.219 588.944 423.438 588.485C423.562 588.235 423.625 587.876 423.625 587.407C423.625 586.449 423.281 585.756 422.594 585.329C421.917 584.892 420.943 584.673 419.672 584.673C418.203 584.673 417.161 585.069 416.547 585.86C416.203 586.298 415.979 586.949 415.875 587.813H413.25C413.302 585.751 413.969 584.319 415.25 583.517C416.542 582.704 418.036 582.298 419.734 582.298C421.703 582.298 423.302 582.673 424.531 583.423C425.75 584.173 426.359 585.34 426.359 586.923V596.563C426.359 596.855 426.417 597.09 426.531 597.267C426.656 597.444 426.911 597.532 427.297 597.532C427.422 597.532 427.562 597.527 427.719 597.517C427.875 597.496 428.042 597.47 428.219 597.438V599.517C427.781 599.642 427.448 599.72 427.219 599.751C426.99 599.782 426.677 599.798 426.281 599.798C425.312 599.798 424.609 599.454 424.172 598.767C423.943 598.402 423.781 597.886 423.688 597.22C423.115 597.97 422.292 598.621 421.219 599.173C420.146 599.725 418.964 600.001 417.672 600.001C416.12 600.001 414.849 599.532 413.859 598.595C412.88 597.647 412.391 596.465 412.391 595.048C412.391 593.496 412.875 592.293 413.844 591.438C414.812 590.584 416.083 590.058 417.656 589.86L422.141 589.298ZM431.062 582.704H433.734V585.595C433.953 585.032 434.49 584.35 435.344 583.548C436.198 582.735 437.182 582.329 438.297 582.329C438.349 582.329 438.438 582.334 438.562 582.345C438.688 582.355 438.901 582.376 439.203 582.407V585.376C439.036 585.345 438.88 585.324 438.734 585.313C438.599 585.303 438.448 585.298 438.281 585.298C436.865 585.298 435.776 585.756 435.016 586.673C434.255 587.579 433.875 588.626 433.875 589.813V599.438H431.062V582.704Z" fill="white"/>
</g>
</g>
<defs>
<filter id="filter0_d_441_1394" x="0.925781" y="0.516602" width="708.148" height="880.334" filterUnits="userSpaceOnUse" color-interpolation-filters="sRGB">
<feFlood flood-opacity="0" result="BackgroundImageFix"/>
<feColorMatrix in="SourceAlpha" type="matrix" values="0 0 0 0 0 0 0 0 0 0 0 0 0 0 0 0 0 0 127 0" result="hardAlpha"/>
<feOffset dy="4"/>
<feGaussianBlur stdDeviation="25"/>
<feComposite in2="hardAlpha" operator="out"/>
<feColorMatrix type="matrix" values="0 0 0 0 0 0 0 0 0 0.0772059 0 0 0 0 0.1875 0 0 0 0.3 0"/>
<feBlend mode="normal" in2="BackgroundImageFix" result="effect1_dropShadow_441_1394"/>
<feBlend mode="normal" in="SourceGraphic" in2="effect1_dropShadow_441_1394" result="shape"/>
</filter>
</defs>
</svg>
