<svg width="473" height="607" viewBox="0 0 473 607" fill="none" xmlns="http://www.w3.org/2000/svg">
<mask id="mask0_441_1374" style="mask-type:alpha" maskUnits="userSpaceOnUse" x="0" y="0" width="473" height="607">
<rect x="0.79248" y="0.571289" width="472.107" height="605.776" rx="10" fill="#00204E"/>
</mask>
<g mask="url(#mask0_441_1374)">
<rect x="0.79248" y="0.571289" width="472.107" height="605.776" rx="10" fill="#00204E"/>
<path d="M163.005 115.88H147.771V121.993H161.755V126.993H147.771V134.396H163.708V139.571H141.892V110.782H163.005V115.88ZM179.744 117.774C181.944 117.774 183.741 118.354 185.134 119.513C186.541 120.659 187.244 122.566 187.244 125.235V139.571H181.541V126.622C181.541 125.502 181.391 124.643 181.091 124.044C180.544 122.95 179.503 122.403 177.966 122.403C176.078 122.403 174.783 123.204 174.08 124.806C173.715 125.652 173.533 126.733 173.533 128.048V139.571H167.986V118.321H173.357V121.427C174.073 120.333 174.75 119.545 175.388 119.063C176.534 118.204 177.986 117.774 179.744 117.774ZM190.212 122.442V118.478H193.181V112.54H198.689V118.478H202.146V122.442H198.689V133.692C198.689 134.565 198.8 135.112 199.021 135.333C199.242 135.541 199.919 135.646 201.052 135.646C201.222 135.646 201.397 135.646 201.58 135.646C201.775 135.632 201.964 135.619 202.146 135.606V139.767L199.509 139.864C196.879 139.955 195.082 139.5 194.119 138.497C193.494 137.859 193.181 136.876 193.181 135.548V122.442H190.212ZM214.119 122.306C212.83 122.306 211.827 122.709 211.111 123.517C210.408 124.324 209.965 125.418 209.783 126.798H218.435C218.344 125.326 217.895 124.213 217.087 123.458C216.293 122.69 215.304 122.306 214.119 122.306ZM214.119 117.716C215.889 117.716 217.485 118.048 218.904 118.712C220.323 119.376 221.495 120.424 222.419 121.856C223.253 123.119 223.793 124.584 224.041 126.251C224.184 127.228 224.242 128.634 224.216 130.47H209.646C209.724 132.605 210.395 134.103 211.658 134.962C212.426 135.496 213.35 135.763 214.431 135.763C215.577 135.763 216.508 135.437 217.224 134.786C217.615 134.435 217.96 133.946 218.259 133.321H223.943C223.8 134.584 223.142 135.867 221.97 137.169C220.147 139.239 217.595 140.274 214.314 140.274C211.606 140.274 209.216 139.402 207.146 137.657C205.076 135.912 204.041 133.074 204.041 129.142C204.041 125.457 204.972 122.631 206.833 120.665C208.708 118.699 211.137 117.716 214.119 117.716ZM239.548 117.774C239.653 117.774 239.737 117.781 239.802 117.794C239.88 117.794 240.043 117.8 240.291 117.813V123.517C239.939 123.478 239.626 123.451 239.353 123.438C239.08 123.425 238.858 123.419 238.689 123.419C236.449 123.419 234.945 124.148 234.177 125.606C233.748 126.427 233.533 127.69 233.533 129.396V139.571H227.927V118.282H233.24V121.993C234.099 120.574 234.848 119.604 235.486 119.083C236.528 118.211 237.882 117.774 239.548 117.774ZM258.24 128.927C258.24 127.286 257.862 125.834 257.107 124.571C256.365 123.308 255.154 122.677 253.474 122.677C251.456 122.677 250.069 123.634 249.314 125.548C248.923 126.563 248.728 127.853 248.728 129.415C248.728 131.889 249.386 133.627 250.701 134.63C251.482 135.216 252.406 135.509 253.474 135.509C255.024 135.509 256.202 134.91 257.009 133.712C257.83 132.514 258.24 130.919 258.24 128.927ZM255.076 117.813C257.563 117.813 259.666 118.731 261.384 120.567C263.116 122.403 263.982 125.099 263.982 128.653C263.982 132.403 263.136 135.261 261.443 137.228C259.763 139.194 257.595 140.177 254.939 140.177C253.246 140.177 251.84 139.754 250.72 138.907C250.108 138.438 249.509 137.755 248.923 136.856V147.95H243.416V118.282H248.748V121.427C249.347 120.502 249.985 119.773 250.662 119.239C251.899 118.289 253.37 117.813 255.076 117.813ZM279.587 117.774C279.692 117.774 279.776 117.781 279.841 117.794C279.919 117.794 280.082 117.8 280.33 117.813V123.517C279.978 123.478 279.666 123.451 279.392 123.438C279.119 123.425 278.897 123.419 278.728 123.419C276.488 123.419 274.985 124.148 274.216 125.606C273.787 126.427 273.572 127.69 273.572 129.396V139.571H267.966V118.282H273.279V121.993C274.138 120.574 274.887 119.604 275.525 119.083C276.567 118.211 277.921 117.774 279.587 117.774ZM289.333 115.743H283.689V110.606H289.333V115.743ZM283.689 118.282H289.333V139.571H283.689V118.282ZM299.08 132.774C299.197 133.764 299.451 134.467 299.841 134.884C300.531 135.626 301.807 135.997 303.669 135.997C304.763 135.997 305.629 135.834 306.267 135.509C306.918 135.183 307.244 134.695 307.244 134.044C307.244 133.419 306.983 132.944 306.462 132.618C305.942 132.293 304.008 131.733 300.662 130.938C298.253 130.34 296.554 129.591 295.564 128.692C294.574 127.807 294.08 126.531 294.08 124.864C294.08 122.898 294.848 121.212 296.384 119.806C297.934 118.386 300.108 117.677 302.908 117.677C305.564 117.677 307.725 118.211 309.392 119.278C311.072 120.333 312.035 122.162 312.283 124.767H306.716C306.638 124.05 306.436 123.484 306.111 123.067C305.499 122.312 304.457 121.935 302.986 121.935C301.775 121.935 300.909 122.123 300.388 122.501C299.88 122.879 299.626 123.321 299.626 123.829C299.626 124.467 299.9 124.929 300.447 125.216C300.994 125.515 302.927 126.03 306.248 126.759C308.461 127.28 310.121 128.067 311.228 129.122C312.322 130.19 312.869 131.524 312.869 133.126C312.869 135.235 312.081 136.961 310.505 138.302C308.943 139.63 306.521 140.294 303.24 140.294C299.893 140.294 297.419 139.591 295.818 138.185C294.229 136.765 293.435 134.962 293.435 132.774H299.08ZM325.408 122.306C324.119 122.306 323.116 122.709 322.4 123.517C321.697 124.324 321.254 125.418 321.072 126.798H329.724C329.633 125.326 329.184 124.213 328.376 123.458C327.582 122.69 326.593 122.306 325.408 122.306ZM325.408 117.716C327.179 117.716 328.774 118.048 330.193 118.712C331.612 119.376 332.784 120.424 333.708 121.856C334.542 123.119 335.082 124.584 335.33 126.251C335.473 127.228 335.531 128.634 335.505 130.47H320.935C321.013 132.605 321.684 134.103 322.947 134.962C323.715 135.496 324.639 135.763 325.72 135.763C326.866 135.763 327.797 135.437 328.513 134.786C328.904 134.435 329.249 133.946 329.548 133.321H335.232C335.089 134.584 334.431 135.867 333.259 137.169C331.436 139.239 328.884 140.274 325.603 140.274C322.895 140.274 320.505 139.402 318.435 137.657C316.365 135.912 315.33 133.074 315.33 129.142C315.33 125.457 316.261 122.631 318.123 120.665C319.998 118.699 322.426 117.716 325.408 117.716Z" fill="white"/>
<path d="M87.2241 197.431H99.1655V199.54H89.5562V204.767H98.0054V206.817H89.5562V214.646H87.2241V197.431ZM106.373 213.286C107.771 213.286 108.728 212.759 109.244 211.704C109.767 210.642 110.029 209.462 110.029 208.165C110.029 206.993 109.841 206.04 109.466 205.306C108.873 204.149 107.849 203.571 106.396 203.571C105.107 203.571 104.169 204.063 103.583 205.048C102.998 206.032 102.705 207.22 102.705 208.61C102.705 209.946 102.998 211.06 103.583 211.95C104.169 212.841 105.099 213.286 106.373 213.286ZM106.455 201.731C108.072 201.731 109.439 202.271 110.556 203.349C111.673 204.427 112.232 206.013 112.232 208.106C112.232 210.13 111.74 211.802 110.755 213.122C109.771 214.442 108.244 215.103 106.173 215.103C104.447 215.103 103.076 214.521 102.06 213.356C101.044 212.185 100.537 210.614 100.537 208.646C100.537 206.536 101.072 204.856 102.142 203.606C103.212 202.356 104.65 201.731 106.455 201.731ZM114.81 202.095H116.814V204.263C116.978 203.841 117.38 203.329 118.021 202.728C118.662 202.118 119.4 201.813 120.236 201.813C120.275 201.813 120.341 201.817 120.435 201.825C120.529 201.833 120.689 201.849 120.916 201.872V204.099C120.791 204.075 120.673 204.06 120.564 204.052C120.462 204.044 120.349 204.04 120.224 204.04C119.162 204.04 118.345 204.384 117.775 205.071C117.205 205.751 116.919 206.536 116.919 207.427V214.646H114.81V202.095ZM129.482 197.431H131.591V214.646H129.482V197.431ZM136.384 211.306C136.384 211.915 136.607 212.396 137.052 212.747C137.498 213.099 138.025 213.274 138.634 213.274C139.376 213.274 140.095 213.103 140.791 212.759C141.962 212.188 142.548 211.255 142.548 209.958V208.259C142.291 208.423 141.958 208.56 141.552 208.669C141.146 208.778 140.748 208.856 140.357 208.903L139.08 209.067C138.314 209.169 137.74 209.329 137.357 209.548C136.708 209.915 136.384 210.501 136.384 211.306ZM141.494 207.04C141.978 206.978 142.302 206.774 142.466 206.431C142.56 206.243 142.607 205.974 142.607 205.622C142.607 204.903 142.349 204.384 141.833 204.063C141.326 203.735 140.595 203.571 139.642 203.571C138.541 203.571 137.759 203.868 137.298 204.462C137.041 204.79 136.873 205.278 136.794 205.927H134.826C134.865 204.38 135.365 203.306 136.326 202.704C137.294 202.095 138.416 201.79 139.689 201.79C141.166 201.79 142.365 202.071 143.287 202.634C144.201 203.196 144.658 204.071 144.658 205.259V212.489C144.658 212.708 144.701 212.884 144.787 213.017C144.88 213.149 145.072 213.216 145.361 213.216C145.455 213.216 145.56 213.212 145.677 213.204C145.794 213.188 145.919 213.169 146.052 213.146V214.704C145.724 214.798 145.474 214.856 145.302 214.88C145.13 214.903 144.896 214.915 144.599 214.915C143.873 214.915 143.345 214.657 143.017 214.142C142.845 213.868 142.724 213.481 142.654 212.981C142.224 213.544 141.607 214.032 140.802 214.446C139.998 214.86 139.111 215.067 138.142 215.067C136.978 215.067 136.025 214.716 135.283 214.013C134.548 213.302 134.181 212.415 134.181 211.353C134.181 210.188 134.544 209.286 135.271 208.646C135.998 208.005 136.951 207.61 138.13 207.462L141.494 207.04ZM148.185 202.095H150.189V204.263C150.353 203.841 150.755 203.329 151.396 202.728C152.037 202.118 152.775 201.813 153.611 201.813C153.65 201.813 153.716 201.817 153.81 201.825C153.904 201.833 154.064 201.849 154.291 201.872V204.099C154.166 204.075 154.048 204.06 153.939 204.052C153.837 204.044 153.724 204.04 153.599 204.04C152.537 204.04 151.72 204.384 151.15 205.071C150.58 205.751 150.294 206.536 150.294 207.427V214.646H148.185V202.095ZM160.548 201.872C161.533 201.872 162.392 202.114 163.126 202.599C163.525 202.872 163.931 203.271 164.345 203.794V202.212H166.291V213.626C166.291 215.22 166.056 216.478 165.587 217.399C164.712 219.103 163.06 219.954 160.63 219.954C159.279 219.954 158.142 219.649 157.22 219.04C156.298 218.438 155.783 217.493 155.673 216.204H157.818C157.919 216.767 158.123 217.2 158.427 217.505C158.904 217.974 159.654 218.208 160.677 218.208C162.294 218.208 163.353 217.638 163.853 216.497C164.15 215.825 164.287 214.626 164.263 212.899C163.841 213.54 163.333 214.017 162.74 214.329C162.146 214.642 161.361 214.798 160.384 214.798C159.025 214.798 157.833 214.317 156.81 213.356C155.794 212.388 155.287 210.79 155.287 208.563C155.287 206.462 155.798 204.821 156.822 203.642C157.853 202.462 159.095 201.872 160.548 201.872ZM164.345 208.317C164.345 206.763 164.025 205.61 163.384 204.86C162.744 204.11 161.927 203.735 160.935 203.735C159.451 203.735 158.435 204.431 157.888 205.821C157.599 206.563 157.455 207.536 157.455 208.739C157.455 210.153 157.74 211.231 158.31 211.974C158.888 212.708 159.662 213.075 160.63 213.075C162.146 213.075 163.212 212.392 163.83 211.024C164.173 210.251 164.345 209.349 164.345 208.317ZM174.705 201.813C175.595 201.813 176.458 202.024 177.294 202.446C178.13 202.86 178.767 203.399 179.205 204.063C179.626 204.696 179.908 205.435 180.048 206.278C180.173 206.856 180.236 207.778 180.236 209.044H171.037C171.076 210.317 171.376 211.341 171.939 212.114C172.501 212.88 173.373 213.263 174.552 213.263C175.654 213.263 176.533 212.899 177.189 212.173C177.564 211.751 177.83 211.263 177.986 210.708H180.06C180.005 211.169 179.822 211.685 179.509 212.255C179.205 212.817 178.861 213.278 178.478 213.638C177.837 214.263 177.044 214.685 176.099 214.903C175.591 215.028 175.017 215.091 174.376 215.091C172.814 215.091 171.49 214.524 170.404 213.392C169.318 212.251 168.775 210.657 168.775 208.61C168.775 206.595 169.322 204.958 170.416 203.7C171.509 202.442 172.939 201.813 174.705 201.813ZM178.068 207.368C177.982 206.454 177.783 205.724 177.47 205.177C176.892 204.161 175.927 203.653 174.576 203.653C173.607 203.653 172.794 204.005 172.138 204.708C171.482 205.403 171.134 206.29 171.095 207.368H178.068ZM182.896 202.095H184.9V204.263C185.064 203.841 185.466 203.329 186.107 202.728C186.748 202.118 187.486 201.813 188.322 201.813C188.361 201.813 188.427 201.817 188.521 201.825C188.615 201.833 188.775 201.849 189.001 201.872V204.099C188.876 204.075 188.759 204.06 188.65 204.052C188.548 204.044 188.435 204.04 188.31 204.04C187.248 204.04 186.431 204.384 185.861 205.071C185.291 205.751 185.005 206.536 185.005 207.427V214.646H182.896V202.095ZM202.49 213.286C203.888 213.286 204.845 212.759 205.361 211.704C205.884 210.642 206.146 209.462 206.146 208.165C206.146 206.993 205.958 206.04 205.583 205.306C204.99 204.149 203.966 203.571 202.513 203.571C201.224 203.571 200.287 204.063 199.701 205.048C199.115 206.032 198.822 207.22 198.822 208.61C198.822 209.946 199.115 211.06 199.701 211.95C200.287 212.841 201.216 213.286 202.49 213.286ZM202.572 201.731C204.189 201.731 205.556 202.271 206.673 203.349C207.791 204.427 208.349 206.013 208.349 208.106C208.349 210.13 207.857 211.802 206.873 213.122C205.888 214.442 204.361 215.103 202.291 215.103C200.564 215.103 199.193 214.521 198.177 213.356C197.162 212.185 196.654 210.614 196.654 208.646C196.654 206.536 197.189 204.856 198.259 203.606C199.33 202.356 200.767 201.731 202.572 201.731ZM210.927 202.095H212.931V204.263C213.095 203.841 213.498 203.329 214.138 202.728C214.779 202.118 215.517 201.813 216.353 201.813C216.392 201.813 216.458 201.817 216.552 201.825C216.646 201.833 216.806 201.849 217.033 201.872V204.099C216.908 204.075 216.791 204.06 216.681 204.052C216.58 204.044 216.466 204.04 216.341 204.04C215.279 204.04 214.462 204.384 213.892 205.071C213.322 205.751 213.037 206.536 213.037 207.427V214.646H210.927V202.095ZM223.291 201.872C224.275 201.872 225.134 202.114 225.869 202.599C226.267 202.872 226.673 203.271 227.087 203.794V202.212H229.033V213.626C229.033 215.22 228.798 216.478 228.33 217.399C227.455 219.103 225.802 219.954 223.373 219.954C222.021 219.954 220.884 219.649 219.962 219.04C219.041 218.438 218.525 217.493 218.416 216.204H220.56C220.662 216.767 220.865 217.2 221.169 217.505C221.646 217.974 222.396 218.208 223.419 218.208C225.037 218.208 226.095 217.638 226.595 216.497C226.892 215.825 227.029 214.626 227.005 212.899C226.583 213.54 226.076 214.017 225.482 214.329C224.888 214.642 224.103 214.798 223.126 214.798C221.767 214.798 220.576 214.317 219.552 213.356C218.537 212.388 218.029 210.79 218.029 208.563C218.029 206.462 218.541 204.821 219.564 203.642C220.595 202.462 221.837 201.872 223.291 201.872ZM227.087 208.317C227.087 206.763 226.767 205.61 226.126 204.86C225.486 204.11 224.669 203.735 223.677 203.735C222.193 203.735 221.177 204.431 220.63 205.821C220.341 206.563 220.197 207.536 220.197 208.739C220.197 210.153 220.482 211.231 221.052 211.974C221.63 212.708 222.404 213.075 223.373 213.075C224.888 213.075 225.955 212.392 226.572 211.024C226.916 210.251 227.087 209.349 227.087 208.317ZM233.837 211.306C233.837 211.915 234.06 212.396 234.505 212.747C234.951 213.099 235.478 213.274 236.087 213.274C236.83 213.274 237.548 213.103 238.244 212.759C239.416 212.188 240.001 211.255 240.001 209.958V208.259C239.744 208.423 239.412 208.56 239.005 208.669C238.599 208.778 238.201 208.856 237.81 208.903L236.533 209.067C235.767 209.169 235.193 209.329 234.81 209.548C234.162 209.915 233.837 210.501 233.837 211.306ZM238.947 207.04C239.431 206.978 239.755 206.774 239.919 206.431C240.013 206.243 240.06 205.974 240.06 205.622C240.06 204.903 239.802 204.384 239.287 204.063C238.779 203.735 238.048 203.571 237.095 203.571C235.994 203.571 235.212 203.868 234.751 204.462C234.494 204.79 234.326 205.278 234.248 205.927H232.279C232.318 204.38 232.818 203.306 233.779 202.704C234.748 202.095 235.869 201.79 237.142 201.79C238.619 201.79 239.818 202.071 240.74 202.634C241.654 203.196 242.111 204.071 242.111 205.259V212.489C242.111 212.708 242.154 212.884 242.24 213.017C242.333 213.149 242.525 213.216 242.814 213.216C242.908 213.216 243.013 213.212 243.13 213.204C243.248 213.188 243.373 213.169 243.505 213.146V214.704C243.177 214.798 242.927 214.856 242.755 214.88C242.583 214.903 242.349 214.915 242.052 214.915C241.326 214.915 240.798 214.657 240.47 214.142C240.298 213.868 240.177 213.481 240.107 212.981C239.677 213.544 239.06 214.032 238.255 214.446C237.451 214.86 236.564 215.067 235.595 215.067C234.431 215.067 233.478 214.716 232.736 214.013C232.001 213.302 231.634 212.415 231.634 211.353C231.634 210.188 231.998 209.286 232.724 208.646C233.451 208.005 234.404 207.61 235.583 207.462L238.947 207.04ZM245.58 202.095H247.583V203.876C248.177 203.142 248.806 202.614 249.47 202.294C250.134 201.974 250.873 201.813 251.685 201.813C253.466 201.813 254.669 202.435 255.294 203.677C255.638 204.356 255.81 205.329 255.81 206.595V214.646H253.666V206.735C253.666 205.97 253.552 205.353 253.326 204.884C252.951 204.103 252.271 203.712 251.287 203.712C250.787 203.712 250.376 203.763 250.056 203.864C249.478 204.036 248.97 204.38 248.533 204.896C248.181 205.31 247.951 205.739 247.841 206.185C247.74 206.622 247.689 207.251 247.689 208.071V214.646H245.58V202.095ZM258.939 202.153H261.083V214.646H258.939V202.153ZM258.939 197.431H261.083V199.821H258.939V197.431ZM263.345 212.981L270.787 203.981H263.896V202.095H273.623V203.817L266.228 212.759H273.845V214.646H263.345V212.981ZM277.9 211.306C277.9 211.915 278.123 212.396 278.568 212.747C279.013 213.099 279.541 213.274 280.15 213.274C280.892 213.274 281.611 213.103 282.306 212.759C283.478 212.188 284.064 211.255 284.064 209.958V208.259C283.806 208.423 283.474 208.56 283.068 208.669C282.662 208.778 282.263 208.856 281.873 208.903L280.595 209.067C279.83 209.169 279.255 209.329 278.873 209.548C278.224 209.915 277.9 210.501 277.9 211.306ZM283.009 207.04C283.494 206.978 283.818 206.774 283.982 206.431C284.076 206.243 284.123 205.974 284.123 205.622C284.123 204.903 283.865 204.384 283.349 204.063C282.841 203.735 282.111 203.571 281.158 203.571C280.056 203.571 279.275 203.868 278.814 204.462C278.556 204.79 278.388 205.278 278.31 205.927H276.341C276.38 204.38 276.88 203.306 277.841 202.704C278.81 202.095 279.931 201.79 281.205 201.79C282.681 201.79 283.88 202.071 284.802 202.634C285.716 203.196 286.173 204.071 286.173 205.259V212.489C286.173 212.708 286.216 212.884 286.302 213.017C286.396 213.149 286.587 213.216 286.876 213.216C286.97 213.216 287.076 213.212 287.193 213.204C287.31 213.188 287.435 213.169 287.568 213.146V214.704C287.24 214.798 286.99 214.856 286.818 214.88C286.646 214.903 286.412 214.915 286.115 214.915C285.388 214.915 284.861 214.657 284.533 214.142C284.361 213.868 284.24 213.481 284.169 212.981C283.74 213.544 283.123 214.032 282.318 214.446C281.513 214.86 280.626 215.067 279.658 215.067C278.494 215.067 277.541 214.716 276.798 214.013C276.064 213.302 275.697 212.415 275.697 211.353C275.697 210.188 276.06 209.286 276.787 208.646C277.513 208.005 278.466 207.61 279.646 207.462L283.009 207.04ZM290.064 198.591H292.197V202.095H294.201V203.817H292.197V212.009C292.197 212.446 292.345 212.739 292.642 212.888C292.806 212.974 293.08 213.017 293.462 213.017C293.564 213.017 293.673 213.017 293.791 213.017C293.908 213.009 294.044 212.997 294.201 212.981V214.646C293.958 214.716 293.705 214.767 293.439 214.798C293.181 214.829 292.9 214.845 292.595 214.845C291.611 214.845 290.943 214.595 290.591 214.095C290.24 213.587 290.064 212.931 290.064 212.126V203.817H288.365V202.095H290.064V198.591ZM296.322 202.153H298.466V214.646H296.322V202.153ZM296.322 197.431H298.466V199.821H296.322V197.431ZM306.646 213.286C308.044 213.286 309.001 212.759 309.517 211.704C310.041 210.642 310.302 209.462 310.302 208.165C310.302 206.993 310.115 206.04 309.74 205.306C309.146 204.149 308.123 203.571 306.669 203.571C305.38 203.571 304.443 204.063 303.857 205.048C303.271 206.032 302.978 207.22 302.978 208.61C302.978 209.946 303.271 211.06 303.857 211.95C304.443 212.841 305.373 213.286 306.646 213.286ZM306.728 201.731C308.345 201.731 309.712 202.271 310.83 203.349C311.947 204.427 312.505 206.013 312.505 208.106C312.505 210.13 312.013 211.802 311.029 213.122C310.044 214.442 308.517 215.103 306.447 215.103C304.72 215.103 303.349 214.521 302.333 213.356C301.318 212.185 300.81 210.614 300.81 208.646C300.81 206.536 301.345 204.856 302.416 203.606C303.486 202.356 304.923 201.731 306.728 201.731ZM315.025 202.095H317.029V203.876C317.623 203.142 318.251 202.614 318.916 202.294C319.58 201.974 320.318 201.813 321.13 201.813C322.912 201.813 324.115 202.435 324.74 203.677C325.083 204.356 325.255 205.329 325.255 206.595V214.646H323.111V206.735C323.111 205.97 322.998 205.353 322.771 204.884C322.396 204.103 321.716 203.712 320.732 203.712C320.232 203.712 319.822 203.763 319.501 203.864C318.923 204.036 318.416 204.38 317.978 204.896C317.626 205.31 317.396 205.739 317.287 206.185C317.185 206.622 317.134 207.251 317.134 208.071V214.646H315.025V202.095ZM329.638 210.708C329.701 211.411 329.876 211.95 330.166 212.325C330.697 213.005 331.619 213.345 332.931 213.345C333.712 213.345 334.4 213.177 334.994 212.841C335.587 212.497 335.884 211.97 335.884 211.259C335.884 210.72 335.646 210.31 335.169 210.028C334.865 209.856 334.263 209.657 333.365 209.431L331.689 209.009C330.619 208.743 329.83 208.446 329.322 208.118C328.416 207.548 327.962 206.759 327.962 205.751C327.962 204.563 328.388 203.603 329.24 202.868C330.099 202.134 331.251 201.767 332.697 201.767C334.587 201.767 335.951 202.321 336.787 203.431C337.31 204.134 337.564 204.892 337.548 205.704H335.556C335.517 205.228 335.349 204.794 335.052 204.403C334.568 203.849 333.728 203.571 332.533 203.571C331.736 203.571 331.13 203.724 330.716 204.028C330.31 204.333 330.107 204.735 330.107 205.235C330.107 205.782 330.376 206.22 330.916 206.548C331.228 206.743 331.689 206.915 332.298 207.063L333.693 207.403C335.208 207.771 336.224 208.126 336.74 208.47C337.56 209.009 337.97 209.856 337.97 211.013C337.97 212.13 337.544 213.095 336.693 213.907C335.849 214.72 334.56 215.126 332.826 215.126C330.958 215.126 329.634 214.704 328.853 213.86C328.08 213.009 327.666 211.958 327.611 210.708H329.638ZM340.83 217.095C341.369 217.001 341.748 216.622 341.966 215.958C342.083 215.606 342.142 215.267 342.142 214.938C342.142 214.884 342.138 214.833 342.13 214.786C342.13 214.747 342.123 214.7 342.107 214.646H340.83V212.091H343.337V214.458C343.337 215.388 343.15 216.204 342.775 216.907C342.4 217.61 341.751 218.044 340.83 218.208V217.095ZM353.744 202.153H355.888V214.646H353.744V202.153ZM353.744 197.431H355.888V199.821H353.744V197.431ZM359.087 202.095H361.091V203.876C361.685 203.142 362.314 202.614 362.978 202.294C363.642 201.974 364.38 201.813 365.193 201.813C366.974 201.813 368.177 202.435 368.802 203.677C369.146 204.356 369.318 205.329 369.318 206.595V214.646H367.173V206.735C367.173 205.97 367.06 205.353 366.833 204.884C366.458 204.103 365.779 203.712 364.794 203.712C364.294 203.712 363.884 203.763 363.564 203.864C362.986 204.036 362.478 204.38 362.041 204.896C361.689 205.31 361.458 205.739 361.349 206.185C361.248 206.622 361.197 207.251 361.197 208.071V214.646H359.087V202.095ZM377.287 201.731C378.701 201.731 379.849 202.075 380.732 202.763C381.623 203.45 382.158 204.634 382.337 206.313H380.287C380.162 205.54 379.876 204.899 379.431 204.392C378.986 203.876 378.271 203.618 377.287 203.618C375.943 203.618 374.982 204.274 374.404 205.587C374.029 206.438 373.841 207.489 373.841 208.739C373.841 209.997 374.107 211.056 374.638 211.915C375.169 212.774 376.005 213.204 377.146 213.204C378.021 213.204 378.712 212.938 379.22 212.407C379.736 211.868 380.091 211.134 380.287 210.204H382.337C382.103 211.868 381.517 213.087 380.58 213.86C379.642 214.626 378.443 215.009 376.982 215.009C375.341 215.009 374.033 214.411 373.056 213.216C372.08 212.013 371.591 210.513 371.591 208.716C371.591 206.513 372.126 204.798 373.197 203.571C374.267 202.345 375.63 201.731 377.287 201.731ZM384.505 197.431H386.615V214.646H384.505V197.431ZM391.9 202.095V210.427C391.9 211.067 392.001 211.591 392.205 211.997C392.58 212.747 393.279 213.122 394.302 213.122C395.771 213.122 396.771 212.466 397.302 211.153C397.591 210.45 397.736 209.485 397.736 208.259V202.095H399.845V214.646H397.853L397.876 212.794C397.603 213.271 397.263 213.673 396.857 214.001C396.052 214.657 395.076 214.985 393.927 214.985C392.138 214.985 390.919 214.388 390.271 213.192C389.919 212.552 389.744 211.696 389.744 210.626V202.095H391.9ZM404.486 208.517C404.486 209.86 404.771 210.985 405.341 211.892C405.912 212.798 406.826 213.251 408.083 213.251C409.06 213.251 409.861 212.833 410.486 211.997C411.119 211.153 411.435 209.946 411.435 208.376C411.435 206.79 411.111 205.618 410.462 204.86C409.814 204.095 409.013 203.712 408.06 203.712C406.998 203.712 406.134 204.118 405.47 204.931C404.814 205.743 404.486 206.938 404.486 208.517ZM407.662 201.872C408.623 201.872 409.427 202.075 410.076 202.481C410.451 202.716 410.876 203.126 411.353 203.712V197.372H413.38V214.646H411.482V212.899C410.99 213.673 410.408 214.231 409.736 214.575C409.064 214.919 408.294 215.091 407.427 215.091C406.029 215.091 404.818 214.505 403.794 213.333C402.771 212.153 402.259 210.587 402.259 208.634C402.259 206.806 402.724 205.224 403.654 203.888C404.591 202.544 405.927 201.872 407.662 201.872ZM416.509 202.153H418.654V214.646H416.509V202.153ZM416.509 197.431H418.654V199.821H416.509V197.431ZM421.853 202.095H423.857V203.876C424.451 203.142 425.08 202.614 425.744 202.294C426.408 201.974 427.146 201.813 427.958 201.813C429.74 201.813 430.943 202.435 431.568 203.677C431.912 204.356 432.083 205.329 432.083 206.595V214.646H429.939V206.735C429.939 205.97 429.826 205.353 429.599 204.884C429.224 204.103 428.544 203.712 427.56 203.712C427.06 203.712 426.65 203.763 426.33 203.864C425.751 204.036 425.244 204.38 424.806 204.896C424.455 205.31 424.224 205.739 424.115 206.185C424.013 206.622 423.962 207.251 423.962 208.071V214.646H421.853V202.095ZM439.642 201.872C440.626 201.872 441.486 202.114 442.22 202.599C442.619 202.872 443.025 203.271 443.439 203.794V202.212H445.384V213.626C445.384 215.22 445.15 216.478 444.681 217.399C443.806 219.103 442.154 219.954 439.724 219.954C438.373 219.954 437.236 219.649 436.314 219.04C435.392 218.438 434.876 217.493 434.767 216.204H436.912C437.013 216.767 437.216 217.2 437.521 217.505C437.998 217.974 438.748 218.208 439.771 218.208C441.388 218.208 442.447 217.638 442.947 216.497C443.244 215.825 443.38 214.626 443.357 212.899C442.935 213.54 442.427 214.017 441.833 214.329C441.24 214.642 440.455 214.798 439.478 214.798C438.119 214.798 436.927 214.317 435.904 213.356C434.888 212.388 434.38 210.79 434.38 208.563C434.38 206.462 434.892 204.821 435.916 203.642C436.947 202.462 438.189 201.872 439.642 201.872ZM443.439 208.317C443.439 206.763 443.119 205.61 442.478 204.86C441.837 204.11 441.021 203.735 440.029 203.735C438.544 203.735 437.529 204.431 436.982 205.821C436.693 206.563 436.548 207.536 436.548 208.739C436.548 210.153 436.833 211.231 437.404 211.974C437.982 212.708 438.755 213.075 439.724 213.075C441.24 213.075 442.306 212.392 442.923 211.024C443.267 210.251 443.439 209.349 443.439 208.317ZM88.8296 230.095V238.427C88.8296 239.067 88.9312 239.591 89.1343 239.997C89.5093 240.747 90.2085 241.122 91.2319 241.122C92.7007 241.122 93.7007 240.466 94.2319 239.153C94.521 238.45 94.6655 237.485 94.6655 236.259V230.095H96.7749V242.646H94.7827L94.8062 240.794C94.5327 241.271 94.1929 241.673 93.7866 242.001C92.9819 242.657 92.0054 242.985 90.8569 242.985C89.0679 242.985 87.8491 242.388 87.2007 241.192C86.8491 240.552 86.6733 239.696 86.6733 238.626V230.095H88.8296ZM100.08 230.095H102.083V231.876C102.677 231.142 103.306 230.614 103.97 230.294C104.634 229.974 105.373 229.813 106.185 229.813C107.966 229.813 109.169 230.435 109.794 231.677C110.138 232.356 110.31 233.329 110.31 234.595V242.646H108.166V234.735C108.166 233.97 108.052 233.353 107.826 232.884C107.451 232.103 106.771 231.712 105.787 231.712C105.287 231.712 104.876 231.763 104.556 231.864C103.978 232.036 103.47 232.38 103.033 232.896C102.681 233.31 102.451 233.739 102.341 234.185C102.24 234.622 102.189 235.251 102.189 236.071V242.646H100.08V230.095ZM113.498 225.431H115.607V242.646H113.498V225.431ZM118.783 230.153H120.927V242.646H118.783V230.153ZM118.783 225.431H120.927V227.821H118.783V225.431ZM124.126 230.095H126.212V231.876C126.712 231.259 127.166 230.81 127.572 230.528C128.267 230.052 129.056 229.813 129.939 229.813C130.939 229.813 131.744 230.06 132.353 230.552C132.697 230.833 133.009 231.247 133.291 231.794C133.759 231.122 134.31 230.626 134.943 230.306C135.576 229.978 136.287 229.813 137.076 229.813C138.763 229.813 139.912 230.423 140.521 231.642C140.849 232.298 141.013 233.181 141.013 234.29V242.646H138.822V233.927C138.822 233.091 138.611 232.517 138.189 232.204C137.775 231.892 137.267 231.735 136.666 231.735C135.837 231.735 135.123 232.013 134.521 232.567C133.927 233.122 133.63 234.048 133.63 235.345V242.646H131.486V234.454C131.486 233.603 131.384 232.981 131.181 232.591C130.861 232.005 130.263 231.712 129.388 231.712C128.591 231.712 127.865 232.021 127.208 232.638C126.56 233.255 126.236 234.372 126.236 235.989V242.646H124.126V230.095ZM144.119 230.153H146.263V242.646H144.119V230.153ZM144.119 225.431H146.263V227.821H144.119V225.431ZM149.884 226.591H152.017V230.095H154.021V231.817H152.017V240.009C152.017 240.446 152.166 240.739 152.462 240.888C152.626 240.974 152.9 241.017 153.283 241.017C153.384 241.017 153.494 241.017 153.611 241.017C153.728 241.009 153.865 240.997 154.021 240.981V242.646C153.779 242.716 153.525 242.767 153.259 242.798C153.001 242.829 152.72 242.845 152.416 242.845C151.431 242.845 150.763 242.595 150.412 242.095C150.06 241.587 149.884 240.931 149.884 240.126V231.817H148.185V230.095H149.884V226.591ZM161.369 229.813C162.259 229.813 163.123 230.024 163.958 230.446C164.794 230.86 165.431 231.399 165.869 232.063C166.291 232.696 166.572 233.435 166.712 234.278C166.837 234.856 166.9 235.778 166.9 237.044H157.701C157.74 238.317 158.041 239.341 158.603 240.114C159.166 240.88 160.037 241.263 161.216 241.263C162.318 241.263 163.197 240.899 163.853 240.173C164.228 239.751 164.494 239.263 164.65 238.708H166.724C166.669 239.169 166.486 239.685 166.173 240.255C165.869 240.817 165.525 241.278 165.142 241.638C164.501 242.263 163.708 242.685 162.763 242.903C162.255 243.028 161.681 243.091 161.041 243.091C159.478 243.091 158.154 242.524 157.068 241.392C155.982 240.251 155.439 238.657 155.439 236.61C155.439 234.595 155.986 232.958 157.08 231.7C158.173 230.442 159.603 229.813 161.369 229.813ZM164.732 235.368C164.646 234.454 164.447 233.724 164.134 233.177C163.556 232.161 162.591 231.653 161.24 231.653C160.271 231.653 159.458 232.005 158.802 232.708C158.146 233.403 157.798 234.29 157.759 235.368H164.732ZM170.837 236.517C170.837 237.86 171.123 238.985 171.693 239.892C172.263 240.798 173.177 241.251 174.435 241.251C175.412 241.251 176.212 240.833 176.837 239.997C177.47 239.153 177.787 237.946 177.787 236.376C177.787 234.79 177.462 233.618 176.814 232.86C176.166 232.095 175.365 231.712 174.412 231.712C173.349 231.712 172.486 232.118 171.822 232.931C171.166 233.743 170.837 234.938 170.837 236.517ZM174.013 229.872C174.974 229.872 175.779 230.075 176.427 230.481C176.802 230.716 177.228 231.126 177.705 231.712V225.372H179.732V242.646H177.833V240.899C177.341 241.673 176.759 242.231 176.087 242.575C175.416 242.919 174.646 243.091 173.779 243.091C172.38 243.091 171.169 242.505 170.146 241.333C169.123 240.153 168.611 238.587 168.611 236.634C168.611 234.806 169.076 233.224 170.005 231.888C170.943 230.544 172.279 229.872 174.013 229.872ZM194.38 229.731C195.794 229.731 196.943 230.075 197.826 230.763C198.716 231.45 199.251 232.634 199.431 234.313H197.38C197.255 233.54 196.97 232.899 196.525 232.392C196.08 231.876 195.365 231.618 194.38 231.618C193.037 231.618 192.076 232.274 191.498 233.587C191.123 234.438 190.935 235.489 190.935 236.739C190.935 237.997 191.201 239.056 191.732 239.915C192.263 240.774 193.099 241.204 194.24 241.204C195.115 241.204 195.806 240.938 196.314 240.407C196.83 239.868 197.185 239.134 197.38 238.204H199.431C199.197 239.868 198.611 241.087 197.673 241.86C196.736 242.626 195.537 243.009 194.076 243.009C192.435 243.009 191.126 242.411 190.15 241.216C189.173 240.013 188.685 238.513 188.685 236.716C188.685 234.513 189.22 232.798 190.291 231.571C191.361 230.345 192.724 229.731 194.38 229.731ZM203.65 230.095V238.427C203.65 239.067 203.751 239.591 203.955 239.997C204.33 240.747 205.029 241.122 206.052 241.122C207.521 241.122 208.521 240.466 209.052 239.153C209.341 238.45 209.486 237.485 209.486 236.259V230.095H211.595V242.646H209.603L209.626 240.794C209.353 241.271 209.013 241.673 208.607 242.001C207.802 242.657 206.826 242.985 205.677 242.985C203.888 242.985 202.669 242.388 202.021 241.192C201.669 240.552 201.494 239.696 201.494 238.626V230.095H203.65ZM216.154 238.708C216.216 239.411 216.392 239.95 216.681 240.325C217.212 241.005 218.134 241.345 219.447 241.345C220.228 241.345 220.916 241.177 221.509 240.841C222.103 240.497 222.4 239.97 222.4 239.259C222.4 238.72 222.162 238.31 221.685 238.028C221.38 237.856 220.779 237.657 219.88 237.431L218.205 237.009C217.134 236.743 216.345 236.446 215.837 236.118C214.931 235.548 214.478 234.759 214.478 233.751C214.478 232.563 214.904 231.603 215.755 230.868C216.615 230.134 217.767 229.767 219.212 229.767C221.103 229.767 222.466 230.321 223.302 231.431C223.826 232.134 224.08 232.892 224.064 233.704H222.072C222.033 233.228 221.865 232.794 221.568 232.403C221.083 231.849 220.244 231.571 219.048 231.571C218.251 231.571 217.646 231.724 217.232 232.028C216.826 232.333 216.623 232.735 216.623 233.235C216.623 233.782 216.892 234.22 217.431 234.548C217.744 234.743 218.205 234.915 218.814 235.063L220.208 235.403C221.724 235.771 222.74 236.126 223.255 236.47C224.076 237.009 224.486 237.856 224.486 239.013C224.486 240.13 224.06 241.095 223.208 241.907C222.365 242.72 221.076 243.126 219.341 243.126C217.474 243.126 216.15 242.704 215.369 241.86C214.595 241.009 214.181 239.958 214.126 238.708H216.154ZM227.322 226.591H229.455V230.095H231.458V231.817H229.455V240.009C229.455 240.446 229.603 240.739 229.9 240.888C230.064 240.974 230.337 241.017 230.72 241.017C230.822 241.017 230.931 241.017 231.048 241.017C231.166 241.009 231.302 240.997 231.458 240.981V242.646C231.216 242.716 230.962 242.767 230.697 242.798C230.439 242.829 230.158 242.845 229.853 242.845C228.869 242.845 228.201 242.595 227.849 242.095C227.498 241.587 227.322 240.931 227.322 240.126V231.817H225.623V230.095H227.322V226.591ZM238.56 241.286C239.958 241.286 240.916 240.759 241.431 239.704C241.955 238.642 242.216 237.462 242.216 236.165C242.216 234.993 242.029 234.04 241.654 233.306C241.06 232.149 240.037 231.571 238.583 231.571C237.294 231.571 236.357 232.063 235.771 233.048C235.185 234.032 234.892 235.22 234.892 236.61C234.892 237.946 235.185 239.06 235.771 239.95C236.357 240.841 237.287 241.286 238.56 241.286ZM238.642 229.731C240.259 229.731 241.626 230.271 242.744 231.349C243.861 232.427 244.419 234.013 244.419 236.106C244.419 238.13 243.927 239.802 242.943 241.122C241.958 242.442 240.431 243.103 238.361 243.103C236.634 243.103 235.263 242.521 234.248 241.356C233.232 240.185 232.724 238.614 232.724 236.646C232.724 234.536 233.259 232.856 234.33 231.606C235.4 230.356 236.837 229.731 238.642 229.731ZM246.939 230.095H249.025V231.876C249.525 231.259 249.978 230.81 250.384 230.528C251.08 230.052 251.869 229.813 252.751 229.813C253.751 229.813 254.556 230.06 255.166 230.552C255.509 230.833 255.822 231.247 256.103 231.794C256.572 231.122 257.123 230.626 257.755 230.306C258.388 229.978 259.099 229.813 259.888 229.813C261.576 229.813 262.724 230.423 263.333 231.642C263.662 232.298 263.826 233.181 263.826 234.29V242.646H261.634V233.927C261.634 233.091 261.423 232.517 261.001 232.204C260.587 231.892 260.08 231.735 259.478 231.735C258.65 231.735 257.935 232.013 257.333 232.567C256.74 233.122 256.443 234.048 256.443 235.345V242.646H254.298V234.454C254.298 233.603 254.197 232.981 253.994 232.591C253.673 232.005 253.076 231.712 252.201 231.712C251.404 231.712 250.677 232.021 250.021 232.638C249.373 233.255 249.048 234.372 249.048 235.989V242.646H246.939V230.095ZM266.931 230.153H269.076V242.646H266.931V230.153ZM266.931 225.431H269.076V227.821H266.931V225.431ZM271.337 240.981L278.779 231.981H271.888V230.095H281.615V231.817L274.22 240.759H281.837V242.646H271.337V240.981ZM285.892 239.306C285.892 239.915 286.115 240.396 286.56 240.747C287.005 241.099 287.533 241.274 288.142 241.274C288.884 241.274 289.603 241.103 290.298 240.759C291.47 240.188 292.056 239.255 292.056 237.958V236.259C291.798 236.423 291.466 236.56 291.06 236.669C290.654 236.778 290.255 236.856 289.865 236.903L288.587 237.067C287.822 237.169 287.248 237.329 286.865 237.548C286.216 237.915 285.892 238.501 285.892 239.306ZM291.001 235.04C291.486 234.978 291.81 234.774 291.974 234.431C292.068 234.243 292.115 233.974 292.115 233.622C292.115 232.903 291.857 232.384 291.341 232.063C290.833 231.735 290.103 231.571 289.15 231.571C288.048 231.571 287.267 231.868 286.806 232.462C286.548 232.79 286.38 233.278 286.302 233.927H284.333C284.373 232.38 284.873 231.306 285.833 230.704C286.802 230.095 287.923 229.79 289.197 229.79C290.673 229.79 291.873 230.071 292.794 230.634C293.708 231.196 294.166 232.071 294.166 233.259V240.489C294.166 240.708 294.208 240.884 294.294 241.017C294.388 241.149 294.58 241.216 294.869 241.216C294.962 241.216 295.068 241.212 295.185 241.204C295.302 241.188 295.427 241.169 295.56 241.146V242.704C295.232 242.798 294.982 242.856 294.81 242.88C294.638 242.903 294.404 242.915 294.107 242.915C293.38 242.915 292.853 242.657 292.525 242.142C292.353 241.868 292.232 241.481 292.162 240.981C291.732 241.544 291.115 242.032 290.31 242.446C289.505 242.86 288.619 243.067 287.65 243.067C286.486 243.067 285.533 242.716 284.791 242.013C284.056 241.302 283.689 240.415 283.689 239.353C283.689 238.188 284.052 237.286 284.779 236.646C285.505 236.005 286.458 235.61 287.638 235.462L291.001 235.04ZM298.056 226.591H300.189V230.095H302.193V231.817H300.189V240.009C300.189 240.446 300.337 240.739 300.634 240.888C300.798 240.974 301.072 241.017 301.455 241.017C301.556 241.017 301.666 241.017 301.783 241.017C301.9 241.009 302.037 240.997 302.193 240.981V242.646C301.951 242.716 301.697 242.767 301.431 242.798C301.173 242.829 300.892 242.845 300.587 242.845C299.603 242.845 298.935 242.595 298.583 242.095C298.232 241.587 298.056 240.931 298.056 240.126V231.817H296.357V230.095H298.056V226.591ZM304.314 230.153H306.458V242.646H304.314V230.153ZM304.314 225.431H306.458V227.821H304.314V225.431ZM314.638 241.286C316.037 241.286 316.994 240.759 317.509 239.704C318.033 238.642 318.294 237.462 318.294 236.165C318.294 234.993 318.107 234.04 317.732 233.306C317.138 232.149 316.115 231.571 314.662 231.571C313.373 231.571 312.435 232.063 311.849 233.048C311.263 234.032 310.97 235.22 310.97 236.61C310.97 237.946 311.263 239.06 311.849 239.95C312.435 240.841 313.365 241.286 314.638 241.286ZM314.72 229.731C316.337 229.731 317.705 230.271 318.822 231.349C319.939 232.427 320.498 234.013 320.498 236.106C320.498 238.13 320.005 239.802 319.021 241.122C318.037 242.442 316.509 243.103 314.439 243.103C312.712 243.103 311.341 242.521 310.326 241.356C309.31 240.185 308.802 238.614 308.802 236.646C308.802 234.536 309.337 232.856 310.408 231.606C311.478 230.356 312.916 229.731 314.72 229.731ZM323.017 230.095H325.021V231.876C325.615 231.142 326.244 230.614 326.908 230.294C327.572 229.974 328.31 229.813 329.123 229.813C330.904 229.813 332.107 230.435 332.732 231.677C333.076 232.356 333.248 233.329 333.248 234.595V242.646H331.103V234.735C331.103 233.97 330.99 233.353 330.763 232.884C330.388 232.103 329.708 231.712 328.724 231.712C328.224 231.712 327.814 231.763 327.494 231.864C326.916 232.036 326.408 232.38 325.97 232.896C325.619 233.31 325.388 233.739 325.279 234.185C325.177 234.622 325.126 235.251 325.126 236.071V242.646H323.017V230.095ZM336.88 240.091H339.33V242.646H336.88V240.091Z" fill="#8EBCFF"/>
<path d="M137.974 408.488C139.003 408.358 139.751 408.124 140.22 407.785C141.041 407.186 141.451 406.151 141.451 404.68C141.451 403.56 141.067 402.674 140.298 402.023C139.843 401.646 139.068 401.255 137.974 400.852V408.488ZM136.119 388.078C134.986 388.104 134.146 388.41 133.599 388.996C133.052 389.569 132.779 390.357 132.779 391.359C132.779 392.453 133.189 393.319 134.009 393.957C134.465 394.309 135.168 394.634 136.119 394.934V388.078ZM138.013 416.77H136.119V412.883C133.554 412.596 131.639 412.036 130.376 411.203C128.15 409.706 127.056 407.154 127.095 403.547H132.369C132.551 405.188 132.805 406.288 133.13 406.848C133.638 407.72 134.634 408.286 136.119 408.547V400.207L134.537 399.738C132.05 399.009 130.292 397.993 129.263 396.691C128.248 395.389 127.74 393.82 127.74 391.984C127.74 390.773 127.935 389.673 128.326 388.684C128.729 387.694 129.289 386.841 130.005 386.125C130.93 385.201 131.958 384.562 133.091 384.211C133.781 383.99 134.791 383.827 136.119 383.723V381.125H137.974V383.762C140.097 383.931 141.763 384.452 142.974 385.324C145.175 386.717 146.314 388.977 146.392 392.102H141.255C141.151 390.943 140.956 390.096 140.669 389.562C140.175 388.638 139.276 388.13 137.974 388.039V395.48C141.073 396.548 143.156 397.492 144.224 398.312C145.982 399.68 146.861 401.607 146.861 404.094C146.861 407.375 145.656 409.758 143.248 411.242C141.776 412.154 140.031 412.688 138.013 412.844V416.77ZM155.044 403.176C155.044 404.699 155.455 405.943 156.275 406.906C157.095 407.87 158.137 408.352 159.4 408.352C160.637 408.352 161.607 407.889 162.31 406.965C163.026 406.027 163.384 404.816 163.384 403.332C163.384 401.678 162.981 400.415 162.173 399.543C161.366 398.658 160.376 398.215 159.205 398.215C158.254 398.215 157.414 398.501 156.685 399.074C155.591 399.921 155.044 401.288 155.044 403.176ZM162.876 390.949C162.876 390.493 162.701 389.992 162.349 389.445C161.75 388.56 160.845 388.117 159.634 388.117C157.824 388.117 156.535 389.133 155.767 391.164C155.35 392.284 155.064 393.938 154.908 396.125C155.598 395.305 156.399 394.706 157.31 394.328C158.222 393.951 159.263 393.762 160.435 393.762C162.948 393.762 165.005 394.615 166.607 396.32C168.222 398.026 169.029 400.207 169.029 402.863C169.029 405.507 168.241 407.837 166.666 409.855C165.09 411.874 162.642 412.883 159.322 412.883C155.754 412.883 153.124 411.392 151.431 408.41C150.116 406.079 149.458 403.072 149.458 399.387C149.458 397.225 149.55 395.467 149.732 394.113C150.057 391.704 150.689 389.699 151.626 388.098C152.434 386.73 153.488 385.63 154.791 384.797C156.106 383.964 157.675 383.547 159.498 383.547C162.128 383.547 164.224 384.224 165.787 385.578C167.349 386.919 168.228 388.71 168.423 390.949H162.876ZM171.666 393.781C171.666 390.747 172.538 388.293 174.283 386.418C176.041 384.53 178.319 383.586 181.119 383.586C185.429 383.586 188.384 385.493 189.986 389.309C190.897 391.47 191.353 394.315 191.353 397.844C191.353 401.268 190.917 404.126 190.044 406.418C188.378 410.78 185.318 412.961 180.865 412.961C178.742 412.961 176.835 412.336 175.142 411.086C173.449 409.823 172.479 407.987 172.232 405.578H177.779C177.909 406.411 178.261 407.089 178.833 407.609C179.406 408.13 180.168 408.391 181.119 408.391C182.955 408.391 184.244 407.375 184.986 405.344C185.389 404.224 185.643 402.59 185.748 400.441C185.24 401.079 184.699 401.568 184.126 401.906C183.085 402.531 181.802 402.844 180.279 402.844C178.026 402.844 176.028 402.069 174.283 400.52C172.538 398.957 171.666 396.711 171.666 393.781ZM181.49 398.312C182.258 398.312 182.981 398.091 183.658 397.648C184.921 396.841 185.552 395.441 185.552 393.449C185.552 391.848 185.175 390.578 184.419 389.641C183.677 388.703 182.655 388.234 181.353 388.234C180.403 388.234 179.589 388.501 178.912 389.035C177.844 389.868 177.31 391.281 177.31 393.273C177.31 394.953 177.649 396.216 178.326 397.062C179.016 397.896 180.07 398.312 181.49 398.312ZM193.931 393.781C193.931 390.747 194.804 388.293 196.548 386.418C198.306 384.53 200.585 383.586 203.384 383.586C207.694 383.586 210.65 385.493 212.251 389.309C213.163 391.47 213.619 394.315 213.619 397.844C213.619 401.268 213.182 404.126 212.31 406.418C210.643 410.78 207.583 412.961 203.13 412.961C201.008 412.961 199.1 412.336 197.408 411.086C195.715 409.823 194.745 407.987 194.498 405.578H200.044C200.175 406.411 200.526 407.089 201.099 407.609C201.672 408.13 202.434 408.391 203.384 408.391C205.22 408.391 206.509 407.375 207.251 405.344C207.655 404.224 207.909 402.59 208.013 400.441C207.505 401.079 206.965 401.568 206.392 401.906C205.35 402.531 204.068 402.844 202.544 402.844C200.292 402.844 198.293 402.069 196.548 400.52C194.804 398.957 193.931 396.711 193.931 393.781ZM203.755 398.312C204.524 398.312 205.246 398.091 205.923 397.648C207.186 396.841 207.818 395.441 207.818 393.449C207.818 391.848 207.44 390.578 206.685 389.641C205.943 388.703 204.921 388.234 203.619 388.234C202.668 388.234 201.854 388.501 201.177 389.035C200.11 389.868 199.576 391.281 199.576 393.273C199.576 394.953 199.914 396.216 200.591 397.062C201.281 397.896 202.336 398.312 203.755 398.312ZM223.97 382.473H228.599L217.408 412.141H212.818L223.97 382.473ZM252.525 390.383C253.462 390.383 254.387 390.565 255.298 390.93C256.21 391.294 257.037 391.932 257.779 392.844C258.378 393.586 258.781 394.497 258.99 395.578C259.12 396.294 259.185 397.342 259.185 398.723L259.146 412.141H253.443V398.586C253.443 397.779 253.313 397.115 253.052 396.594C252.557 395.604 251.646 395.109 250.318 395.109C248.781 395.109 247.72 395.747 247.134 397.023C246.835 397.701 246.685 398.514 246.685 399.465V412.141H241.08V399.465C241.08 398.202 240.949 397.284 240.689 396.711C240.22 395.682 239.302 395.168 237.935 395.168C236.347 395.168 235.279 395.682 234.732 396.711C234.432 397.297 234.283 398.169 234.283 399.328V412.141H228.638V390.891H234.048V393.996C234.738 392.889 235.389 392.102 236.001 391.633C237.082 390.799 238.482 390.383 240.201 390.383C241.828 390.383 243.143 390.741 244.146 391.457C244.953 392.121 245.565 392.974 245.982 394.016C246.711 392.766 247.616 391.848 248.697 391.262C249.843 390.676 251.119 390.383 252.525 390.383ZM273.873 408.215C275.5 408.215 276.75 407.635 277.623 406.477C278.495 405.318 278.931 403.671 278.931 401.535C278.931 399.4 278.495 397.759 277.623 396.613C276.75 395.454 275.5 394.875 273.873 394.875C272.245 394.875 270.988 395.454 270.103 396.613C269.231 397.759 268.794 399.4 268.794 401.535C268.794 403.671 269.231 405.318 270.103 406.477C270.988 407.635 272.245 408.215 273.873 408.215ZM284.771 401.535C284.771 404.66 283.873 407.336 282.076 409.562C280.279 411.776 277.551 412.883 273.892 412.883C270.233 412.883 267.505 411.776 265.708 409.562C263.912 407.336 263.013 404.66 263.013 401.535C263.013 398.462 263.912 395.799 265.708 393.547C267.505 391.294 270.233 390.168 273.892 390.168C277.551 390.168 280.279 391.294 282.076 393.547C283.873 395.799 284.771 398.462 284.771 401.535ZM300.572 390.344C302.772 390.344 304.569 390.923 305.962 392.082C307.369 393.228 308.072 395.135 308.072 397.805V412.141H302.369V399.191C302.369 398.072 302.219 397.212 301.919 396.613C301.373 395.52 300.331 394.973 298.794 394.973C296.906 394.973 295.611 395.773 294.908 397.375C294.543 398.221 294.361 399.302 294.361 400.617V412.141H288.814V390.891H294.185V393.996C294.901 392.902 295.578 392.115 296.216 391.633C297.362 390.773 298.814 390.344 300.572 390.344ZM311.041 395.012V391.047H314.009V385.109H319.517V391.047H322.974V395.012H319.517V406.262C319.517 407.134 319.628 407.681 319.849 407.902C320.07 408.111 320.748 408.215 321.88 408.215C322.05 408.215 322.225 408.215 322.408 408.215C322.603 408.202 322.792 408.189 322.974 408.176V412.336L320.337 412.434C317.707 412.525 315.91 412.069 314.947 411.066C314.322 410.428 314.009 409.445 314.009 408.117V395.012H311.041ZM338.287 390.305C339.602 390.305 340.793 390.533 341.861 390.988C342.942 391.444 343.827 392.141 344.517 393.078C345.103 393.872 345.461 394.693 345.591 395.539C345.722 396.372 345.787 397.74 345.787 399.641V412.141H340.103V399.191C340.103 398.046 339.908 397.121 339.517 396.418C339.009 395.428 338.046 394.934 336.626 394.934C335.155 394.934 334.035 395.428 333.267 396.418C332.512 397.395 332.134 398.794 332.134 400.617V412.141H326.587V383.449H332.134V393.625C332.942 392.388 333.873 391.529 334.927 391.047C335.995 390.552 337.115 390.305 338.287 390.305Z" fill="white"/>
<path d="M181.4 458.828C182.736 458.766 183.658 458.277 184.166 457.363C184.431 456.895 184.564 456.352 184.564 455.734C184.564 454.758 184.205 454.016 183.486 453.508C183.072 453.211 182.376 452.93 181.4 452.664V458.828ZM177.427 447.52C177.427 448.293 177.681 448.898 178.189 449.336C178.705 449.773 179.396 450.078 180.263 450.25V444.742C179.24 444.781 178.509 445.094 178.072 445.68C177.642 446.266 177.427 446.879 177.427 447.52ZM175.318 447.66C175.318 446.473 175.751 445.402 176.619 444.449C177.494 443.496 178.716 443.012 180.287 442.996V441.438H181.4V442.973C182.955 443.082 184.146 443.543 184.974 444.355C185.81 445.16 186.248 446.227 186.287 447.555H184.236C184.181 446.961 184.021 446.449 183.755 446.02C183.263 445.23 182.478 444.816 181.4 444.777V450.473C183.212 450.98 184.443 451.457 185.091 451.902C186.146 452.637 186.673 453.723 186.673 455.16C186.673 457.238 185.998 458.715 184.646 459.59C183.896 460.074 182.814 460.395 181.4 460.551V462.824H180.287V460.551C178.013 460.402 176.47 459.598 175.658 458.137C175.212 457.348 174.99 456.281 174.99 454.938H177.064C177.126 456.008 177.294 456.789 177.568 457.281C178.052 458.164 178.951 458.66 180.263 458.77V452.383C178.576 452.062 177.33 451.527 176.525 450.777C175.72 450.027 175.318 448.988 175.318 447.66ZM194.619 443.195C196.494 443.195 197.798 443.684 198.533 444.66C199.275 445.629 199.646 446.629 199.646 447.66H197.56C197.435 446.996 197.236 446.477 196.962 446.102C196.455 445.398 195.685 445.047 194.654 445.047C193.474 445.047 192.537 445.594 191.841 446.688C191.146 447.773 190.759 449.332 190.681 451.363C191.166 450.652 191.775 450.121 192.509 449.77C193.181 449.457 193.931 449.301 194.759 449.301C196.166 449.301 197.392 449.75 198.439 450.648C199.486 451.547 200.009 452.887 200.009 454.668C200.009 456.191 199.513 457.543 198.521 458.723C197.529 459.895 196.115 460.48 194.279 460.48C192.708 460.48 191.353 459.887 190.212 458.699C189.072 457.504 188.501 455.496 188.501 452.676C188.501 450.59 188.755 448.82 189.263 447.367C190.24 444.586 192.025 443.195 194.619 443.195ZM194.466 458.605C195.576 458.605 196.404 458.234 196.951 457.492C197.505 456.742 197.783 455.859 197.783 454.844C197.783 453.984 197.537 453.168 197.044 452.395C196.552 451.613 195.658 451.223 194.361 451.223C193.455 451.223 192.658 451.523 191.97 452.125C191.291 452.727 190.951 453.633 190.951 454.844C190.951 455.906 191.259 456.801 191.876 457.527C192.501 458.246 193.365 458.605 194.466 458.605ZM202.951 462.496C203.49 462.402 203.869 462.023 204.087 461.359C204.205 461.008 204.263 460.668 204.263 460.34C204.263 460.285 204.259 460.234 204.251 460.188C204.251 460.148 204.244 460.102 204.228 460.047H202.951V457.492H205.458V459.859C205.458 460.789 205.271 461.605 204.896 462.309C204.521 463.012 203.873 463.445 202.951 463.609V462.496ZM210.826 455.992C210.888 457.156 211.337 457.961 212.173 458.406C212.603 458.641 213.087 458.758 213.626 458.758C214.634 458.758 215.494 458.34 216.205 457.504C216.916 456.66 217.419 454.953 217.716 452.383C217.248 453.125 216.666 453.648 215.97 453.953C215.283 454.25 214.541 454.398 213.744 454.398C212.126 454.398 210.845 453.895 209.9 452.887C208.962 451.879 208.494 450.582 208.494 448.996C208.494 447.473 208.958 446.133 209.888 444.977C210.818 443.82 212.189 443.242 214.001 443.242C216.447 443.242 218.134 444.344 219.064 446.547C219.58 447.758 219.837 449.273 219.837 451.094C219.837 453.148 219.529 454.969 218.912 456.555C217.888 459.195 216.154 460.516 213.708 460.516C212.068 460.516 210.822 460.086 209.97 459.227C209.119 458.367 208.693 457.289 208.693 455.992H210.826ZM214.025 452.547C214.861 452.547 215.623 452.273 216.31 451.727C217.005 451.172 217.353 450.207 217.353 448.832C217.353 447.598 217.041 446.68 216.416 446.078C215.798 445.469 215.009 445.164 214.048 445.164C213.017 445.164 212.197 445.512 211.587 446.207C210.986 446.895 210.685 447.816 210.685 448.973C210.685 450.066 210.951 450.938 211.482 451.586C212.013 452.227 212.861 452.547 214.025 452.547ZM224.185 455.992C224.248 457.156 224.697 457.961 225.533 458.406C225.962 458.641 226.447 458.758 226.986 458.758C227.994 458.758 228.853 458.34 229.564 457.504C230.275 456.66 230.779 454.953 231.076 452.383C230.607 453.125 230.025 453.648 229.33 453.953C228.642 454.25 227.9 454.398 227.103 454.398C225.486 454.398 224.205 453.895 223.259 452.887C222.322 451.879 221.853 450.582 221.853 448.996C221.853 447.473 222.318 446.133 223.248 444.977C224.177 443.82 225.548 443.242 227.361 443.242C229.806 443.242 231.494 444.344 232.423 446.547C232.939 447.758 233.197 449.273 233.197 451.094C233.197 453.148 232.888 454.969 232.271 456.555C231.248 459.195 229.513 460.516 227.068 460.516C225.427 460.516 224.181 460.086 223.33 459.227C222.478 458.367 222.052 457.289 222.052 455.992H224.185ZM227.384 452.547C228.22 452.547 228.982 452.273 229.669 451.727C230.365 451.172 230.712 450.207 230.712 448.832C230.712 447.598 230.4 446.68 229.775 446.078C229.158 445.469 228.369 445.164 227.408 445.164C226.376 445.164 225.556 445.512 224.947 446.207C224.345 446.895 224.044 447.816 224.044 448.973C224.044 450.066 224.31 450.938 224.841 451.586C225.373 452.227 226.22 452.547 227.384 452.547ZM240.849 443.266C243.021 443.266 244.591 444.16 245.56 445.949C246.31 447.332 246.685 449.227 246.685 451.633C246.685 453.914 246.345 455.801 245.666 457.293C244.681 459.434 243.072 460.504 240.837 460.504C238.822 460.504 237.322 459.629 236.337 457.879C235.517 456.418 235.107 454.457 235.107 451.996C235.107 450.09 235.353 448.453 235.845 447.086C236.767 444.539 238.435 443.266 240.849 443.266ZM240.826 458.582C241.919 458.582 242.791 458.098 243.439 457.129C244.087 456.16 244.412 454.355 244.412 451.715C244.412 449.809 244.177 448.242 243.708 447.016C243.24 445.781 242.33 445.164 240.978 445.164C239.736 445.164 238.826 445.75 238.248 446.922C237.677 448.086 237.392 449.805 237.392 452.078C237.392 453.789 237.576 455.164 237.943 456.203C238.505 457.789 239.466 458.582 240.826 458.582ZM253.177 442.832H254.958L249.498 460.047H247.716L253.177 442.832ZM263.783 447.496H266.115C265.818 448.301 265.158 450.137 264.134 453.004C263.369 455.16 262.728 456.918 262.212 458.277C260.994 461.48 260.134 463.434 259.634 464.137C259.134 464.84 258.275 465.191 257.056 465.191C256.759 465.191 256.529 465.18 256.365 465.156C256.208 465.133 256.013 465.09 255.779 465.027V463.105C256.146 463.207 256.412 463.27 256.576 463.293C256.74 463.316 256.884 463.328 257.009 463.328C257.4 463.328 257.685 463.262 257.865 463.129C258.052 463.004 258.208 462.848 258.333 462.66C258.373 462.598 258.513 462.277 258.755 461.699C258.998 461.121 259.173 460.691 259.283 460.41L254.642 447.496H257.033L260.396 457.715L263.783 447.496ZM273.169 447.215C274.06 447.215 274.923 447.426 275.759 447.848C276.595 448.262 277.232 448.801 277.669 449.465C278.091 450.098 278.373 450.836 278.513 451.68C278.638 452.258 278.701 453.18 278.701 454.445H269.501C269.541 455.719 269.841 456.742 270.404 457.516C270.966 458.281 271.837 458.664 273.017 458.664C274.119 458.664 274.998 458.301 275.654 457.574C276.029 457.152 276.294 456.664 276.451 456.109H278.525C278.47 456.57 278.287 457.086 277.974 457.656C277.669 458.219 277.326 458.68 276.943 459.039C276.302 459.664 275.509 460.086 274.564 460.305C274.056 460.43 273.482 460.492 272.841 460.492C271.279 460.492 269.955 459.926 268.869 458.793C267.783 457.652 267.24 456.059 267.24 454.012C267.24 451.996 267.787 450.359 268.88 449.102C269.974 447.844 271.404 447.215 273.169 447.215ZM276.533 452.77C276.447 451.855 276.248 451.125 275.935 450.578C275.357 449.562 274.392 449.055 273.041 449.055C272.072 449.055 271.259 449.406 270.603 450.109C269.947 450.805 269.599 451.691 269.56 452.77H276.533ZM282.919 456.707C282.919 457.316 283.142 457.797 283.587 458.148C284.033 458.5 284.56 458.676 285.169 458.676C285.912 458.676 286.63 458.504 287.326 458.16C288.498 457.59 289.083 456.656 289.083 455.359V453.66C288.826 453.824 288.494 453.961 288.087 454.07C287.681 454.18 287.283 454.258 286.892 454.305L285.615 454.469C284.849 454.57 284.275 454.73 283.892 454.949C283.244 455.316 282.919 455.902 282.919 456.707ZM288.029 452.441C288.513 452.379 288.837 452.176 289.001 451.832C289.095 451.645 289.142 451.375 289.142 451.023C289.142 450.305 288.884 449.785 288.369 449.465C287.861 449.137 287.13 448.973 286.177 448.973C285.076 448.973 284.294 449.27 283.833 449.863C283.576 450.191 283.408 450.68 283.33 451.328H281.361C281.4 449.781 281.9 448.707 282.861 448.105C283.83 447.496 284.951 447.191 286.224 447.191C287.701 447.191 288.9 447.473 289.822 448.035C290.736 448.598 291.193 449.473 291.193 450.66V457.891C291.193 458.109 291.236 458.285 291.322 458.418C291.416 458.551 291.607 458.617 291.896 458.617C291.99 458.617 292.095 458.613 292.212 458.605C292.33 458.59 292.455 458.57 292.587 458.547V460.105C292.259 460.199 292.009 460.258 291.837 460.281C291.666 460.305 291.431 460.316 291.134 460.316C290.408 460.316 289.88 460.059 289.552 459.543C289.38 459.27 289.259 458.883 289.189 458.383C288.759 458.945 288.142 459.434 287.337 459.848C286.533 460.262 285.646 460.469 284.677 460.469C283.513 460.469 282.56 460.117 281.818 459.414C281.083 458.703 280.716 457.816 280.716 456.754C280.716 455.59 281.08 454.688 281.806 454.047C282.533 453.406 283.486 453.012 284.666 452.863L288.029 452.441ZM294.72 447.496H296.724V449.664C296.888 449.242 297.291 448.73 297.931 448.129C298.572 447.52 299.31 447.215 300.146 447.215C300.185 447.215 300.251 447.219 300.345 447.227C300.439 447.234 300.599 447.25 300.826 447.273V449.5C300.701 449.477 300.583 449.461 300.474 449.453C300.373 449.445 300.259 449.441 300.134 449.441C299.072 449.441 298.255 449.785 297.685 450.473C297.115 451.152 296.83 451.938 296.83 452.828V460.047H294.72V447.496Z" fill="white"/>
<path d="M-214.405 622.05C-66.685 532.665 308.354 404.14 626.751 605.114L-214.405 622.05Z" fill="#0043A3"/>
<path d="M-214.405 661.592C-66.685 572.208 308.354 443.682 626.751 644.656L-214.405 661.592Z" fill="#0057D4"/>
<path d="M-214.405 690.135C-66.685 600.75 308.354 472.225 626.751 673.199L-214.405 690.135Z" fill="#0069FF"/>
</g>
</svg>
