<svg width="473" height="607" viewBox="0 0 473 607" fill="none" xmlns="http://www.w3.org/2000/svg">
<mask id="mask0_441_1384" style="mask-type:alpha" maskUnits="userSpaceOnUse" x="0" y="0" width="473" height="607">
<rect x="0.120117" y="0.571289" width="472.107" height="605.776" rx="10" fill="#00204E"/>
</mask>
<g mask="url(#mask0_441_1384)">
<rect x="0.120117" y="0.571289" width="472.107" height="605.776" rx="10" fill="#00204E"/>
<path d="M-215.404 622.05C-67.6845 532.665 307.355 404.14 625.752 605.114L-215.404 622.05Z" fill="#0043A3"/>
<path d="M-215.404 661.592C-67.6845 572.208 307.355 443.682 625.752 644.656L-215.404 661.592Z" fill="#0057D4"/>
<path d="M-215.404 690.135C-67.6845 600.75 307.355 472.225 625.752 673.199L-215.404 690.135Z" fill="#0069FF"/>
<path d="M156.838 130.685C157.02 132 157.378 132.983 157.912 133.634C158.889 134.819 160.562 135.411 162.932 135.411C164.351 135.411 165.503 135.255 166.389 134.942C168.068 134.343 168.908 133.23 168.908 131.603C168.908 130.652 168.492 129.916 167.658 129.396C166.825 128.888 165.516 128.438 163.732 128.048L160.686 127.364C157.691 126.687 155.62 125.951 154.475 125.157C152.535 123.829 151.564 121.752 151.564 118.927C151.564 116.349 152.502 114.207 154.377 112.501C156.252 110.795 159.006 109.942 162.639 109.942C165.673 109.942 168.257 110.75 170.393 112.364C172.541 113.966 173.667 116.297 173.771 119.356H167.99C167.886 117.625 167.131 116.394 165.725 115.665C164.787 115.183 163.622 114.942 162.229 114.942C160.679 114.942 159.442 115.255 158.518 115.88C157.593 116.505 157.131 117.377 157.131 118.497C157.131 119.526 157.587 120.294 158.498 120.802C159.084 121.14 160.334 121.537 162.248 121.993L167.209 123.185C169.383 123.705 171.024 124.402 172.131 125.274C173.85 126.629 174.709 128.588 174.709 131.153C174.709 133.784 173.7 135.971 171.682 137.716C169.676 139.448 166.838 140.313 163.166 140.313C159.416 140.313 156.467 139.461 154.318 137.755C152.17 136.036 151.096 133.679 151.096 130.685H156.838ZM176.525 122.442V118.478H179.494V112.54H185.002V118.478H188.459V122.442H185.002V133.692C185.002 134.565 185.113 135.112 185.334 135.333C185.555 135.541 186.232 135.646 187.365 135.646C187.535 135.646 187.71 135.646 187.893 135.646C188.088 135.632 188.277 135.619 188.459 135.606V139.767L185.822 139.864C183.192 139.955 181.395 139.5 180.432 138.497C179.807 137.859 179.494 136.876 179.494 135.548V122.442H176.525ZM203.771 129.22C203.42 129.441 203.062 129.623 202.697 129.767C202.346 129.897 201.857 130.021 201.232 130.138L199.982 130.372C198.811 130.58 197.971 130.834 197.463 131.134C196.604 131.642 196.174 132.429 196.174 133.497C196.174 134.448 196.434 135.138 196.955 135.567C197.489 135.984 198.133 136.192 198.889 136.192C200.087 136.192 201.187 135.841 202.189 135.138C203.205 134.435 203.732 133.152 203.771 131.29V129.22ZM200.393 126.622C201.421 126.492 202.157 126.329 202.6 126.134C203.394 125.795 203.791 125.268 203.791 124.552C203.791 123.679 203.485 123.08 202.873 122.755C202.274 122.416 201.389 122.247 200.217 122.247C198.902 122.247 197.971 122.573 197.424 123.224C197.033 123.705 196.773 124.356 196.643 125.177H191.271C191.389 123.315 191.91 121.785 192.834 120.587C194.305 118.712 196.831 117.774 200.412 117.774C202.743 117.774 204.813 118.237 206.623 119.161C208.433 120.086 209.338 121.83 209.338 124.396V134.161C209.338 134.838 209.351 135.659 209.377 136.622C209.416 137.351 209.527 137.846 209.709 138.106C209.891 138.367 210.165 138.582 210.529 138.751V139.571H204.475C204.305 139.142 204.188 138.738 204.123 138.36C204.058 137.983 204.006 137.553 203.967 137.071C203.199 137.905 202.313 138.614 201.311 139.2C200.113 139.89 198.758 140.235 197.248 140.235C195.321 140.235 193.726 139.688 192.463 138.595C191.213 137.488 190.588 135.925 190.588 133.907C190.588 131.29 191.597 129.396 193.615 128.224C194.722 127.586 196.35 127.13 198.498 126.856L200.393 126.622ZM226.096 117.774C228.296 117.774 230.093 118.354 231.486 119.513C232.893 120.659 233.596 122.566 233.596 125.235V139.571H227.893V126.622C227.893 125.502 227.743 124.643 227.443 124.044C226.896 122.95 225.855 122.403 224.318 122.403C222.43 122.403 221.135 123.204 220.432 124.806C220.067 125.652 219.885 126.733 219.885 128.048V139.571H214.338V118.321H219.709V121.427C220.425 120.333 221.102 119.545 221.74 119.063C222.886 118.204 224.338 117.774 226.096 117.774ZM246.604 117.774C247.893 117.774 249.038 118.061 250.041 118.634C251.044 119.194 251.857 119.975 252.482 120.978V110.821H258.127V139.571H252.717V136.622C251.923 137.885 251.018 138.803 250.002 139.376C248.986 139.949 247.723 140.235 246.213 140.235C243.726 140.235 241.63 139.233 239.924 137.228C238.231 135.209 237.385 132.625 237.385 129.474C237.385 125.841 238.218 122.983 239.885 120.899C241.564 118.816 243.804 117.774 246.604 117.774ZM247.814 135.548C249.39 135.548 250.588 134.962 251.408 133.79C252.229 132.618 252.639 131.101 252.639 129.239C252.639 126.635 251.981 124.773 250.666 123.653C249.859 122.976 248.921 122.638 247.854 122.638C246.226 122.638 245.028 123.256 244.26 124.493C243.505 125.717 243.127 127.241 243.127 129.063C243.127 131.03 243.511 132.605 244.279 133.79C245.061 134.962 246.239 135.548 247.814 135.548ZM274.943 129.22C274.592 129.441 274.234 129.623 273.869 129.767C273.518 129.897 273.029 130.021 272.404 130.138L271.154 130.372C269.982 130.58 269.143 130.834 268.635 131.134C267.775 131.642 267.346 132.429 267.346 133.497C267.346 134.448 267.606 135.138 268.127 135.567C268.661 135.984 269.305 136.192 270.061 136.192C271.258 136.192 272.359 135.841 273.361 135.138C274.377 134.435 274.904 133.152 274.943 131.29V129.22ZM271.564 126.622C272.593 126.492 273.329 126.329 273.771 126.134C274.566 125.795 274.963 125.268 274.963 124.552C274.963 123.679 274.657 123.08 274.045 122.755C273.446 122.416 272.561 122.247 271.389 122.247C270.074 122.247 269.143 122.573 268.596 123.224C268.205 123.705 267.945 124.356 267.814 125.177H262.443C262.561 123.315 263.081 121.785 264.006 120.587C265.477 118.712 268.003 117.774 271.584 117.774C273.915 117.774 275.985 118.237 277.795 119.161C279.605 120.086 280.51 121.83 280.51 124.396V134.161C280.51 134.838 280.523 135.659 280.549 136.622C280.588 137.351 280.699 137.846 280.881 138.106C281.063 138.367 281.337 138.582 281.701 138.751V139.571H275.646C275.477 139.142 275.36 138.738 275.295 138.36C275.23 137.983 275.178 137.553 275.139 137.071C274.37 137.905 273.485 138.614 272.482 139.2C271.285 139.89 269.93 140.235 268.42 140.235C266.493 140.235 264.898 139.688 263.635 138.595C262.385 137.488 261.76 135.925 261.76 133.907C261.76 131.29 262.769 129.396 264.787 128.224C265.894 127.586 267.521 127.13 269.67 126.856L271.564 126.622ZM297.033 117.774C297.137 117.774 297.222 117.781 297.287 117.794C297.365 117.794 297.528 117.8 297.775 117.813V123.517C297.424 123.478 297.111 123.451 296.838 123.438C296.564 123.425 296.343 123.419 296.174 123.419C293.934 123.419 292.43 124.148 291.662 125.606C291.232 126.427 291.018 127.69 291.018 129.396V139.571H285.412V118.282H290.725V121.993C291.584 120.574 292.333 119.604 292.971 119.083C294.012 118.211 295.367 117.774 297.033 117.774ZM308.908 117.774C310.197 117.774 311.343 118.061 312.346 118.634C313.348 119.194 314.162 119.975 314.787 120.978V110.821H320.432V139.571H315.021V136.622C314.227 137.885 313.322 138.803 312.307 139.376C311.291 139.949 310.028 140.235 308.518 140.235C306.031 140.235 303.934 139.233 302.229 137.228C300.536 135.209 299.689 132.625 299.689 129.474C299.689 125.841 300.523 122.983 302.189 120.899C303.869 118.816 306.109 117.774 308.908 117.774ZM310.119 135.548C311.695 135.548 312.893 134.962 313.713 133.79C314.533 132.618 314.943 131.101 314.943 129.239C314.943 126.635 314.286 124.773 312.971 123.653C312.163 122.976 311.226 122.638 310.158 122.638C308.531 122.638 307.333 123.256 306.564 124.493C305.809 125.717 305.432 127.241 305.432 129.063C305.432 131.03 305.816 132.605 306.584 133.79C307.365 134.962 308.544 135.548 310.119 135.548Z" fill="white"/>
<path d="M86.2246 197.431H98.7754V199.54H88.498V204.767H98.002V206.759H88.498V212.595H98.9512V214.646H86.2246V197.431ZM102.76 202.095L106.111 212.313L109.615 202.095H111.924L107.189 214.646H104.939L100.311 202.095H102.76ZM118.955 201.813C119.846 201.813 120.709 202.024 121.545 202.446C122.381 202.86 123.018 203.399 123.455 204.063C123.877 204.696 124.158 205.435 124.299 206.278C124.424 206.856 124.486 207.778 124.486 209.044H115.287C115.326 210.317 115.627 211.341 116.189 212.114C116.752 212.88 117.623 213.263 118.803 213.263C119.904 213.263 120.783 212.899 121.439 212.173C121.814 211.751 122.08 211.263 122.236 210.708H124.311C124.256 211.169 124.072 211.685 123.76 212.255C123.455 212.817 123.111 213.278 122.729 213.638C122.088 214.263 121.295 214.685 120.35 214.903C119.842 215.028 119.268 215.091 118.627 215.091C117.064 215.091 115.74 214.524 114.654 213.392C113.568 212.251 113.025 210.657 113.025 208.61C113.025 206.595 113.572 204.958 114.666 203.7C115.76 202.442 117.189 201.813 118.955 201.813ZM122.318 207.368C122.232 206.454 122.033 205.724 121.721 205.177C121.143 204.161 120.178 203.653 118.826 203.653C117.857 203.653 117.045 204.005 116.389 204.708C115.732 205.403 115.385 206.29 115.346 207.368H122.318ZM127.146 202.095H129.15V204.263C129.314 203.841 129.717 203.329 130.357 202.728C130.998 202.118 131.736 201.813 132.572 201.813C132.611 201.813 132.678 201.817 132.771 201.825C132.865 201.833 133.025 201.849 133.252 201.872V204.099C133.127 204.075 133.01 204.06 132.9 204.052C132.799 204.044 132.686 204.04 132.561 204.04C131.498 204.04 130.682 204.384 130.111 205.071C129.541 205.751 129.256 206.536 129.256 207.427V214.646H127.146V202.095ZM142.92 202.095H145.252C144.955 202.899 144.295 204.735 143.271 207.603C142.506 209.759 141.865 211.517 141.35 212.876C140.131 216.079 139.271 218.032 138.771 218.735C138.271 219.438 137.412 219.79 136.193 219.79C135.896 219.79 135.666 219.778 135.502 219.755C135.346 219.731 135.15 219.688 134.916 219.626V217.704C135.283 217.806 135.549 217.868 135.713 217.892C135.877 217.915 136.021 217.927 136.146 217.927C136.537 217.927 136.822 217.86 137.002 217.728C137.189 217.603 137.346 217.446 137.471 217.259C137.51 217.196 137.65 216.876 137.893 216.298C138.135 215.72 138.311 215.29 138.42 215.009L133.779 202.095H136.17L139.533 212.313L142.92 202.095ZM147.502 198.591H149.635V202.095H151.639V203.817H149.635V212.009C149.635 212.446 149.783 212.739 150.08 212.888C150.244 212.974 150.518 213.017 150.9 213.017C151.002 213.017 151.111 213.017 151.229 213.017C151.346 213.009 151.482 212.997 151.639 212.981V214.646C151.396 214.716 151.143 214.767 150.877 214.798C150.619 214.829 150.338 214.845 150.033 214.845C149.049 214.845 148.381 214.595 148.029 214.095C147.678 213.587 147.502 212.931 147.502 212.126V203.817H145.803V202.095H147.502V198.591ZM153.76 197.372H155.869V203.794C156.369 203.161 156.818 202.716 157.217 202.458C157.896 202.013 158.744 201.79 159.76 201.79C161.58 201.79 162.814 202.427 163.463 203.7C163.814 204.396 163.99 205.36 163.99 206.595V214.646H161.822V206.735C161.822 205.813 161.705 205.138 161.471 204.708C161.088 204.021 160.369 203.677 159.314 203.677C158.439 203.677 157.646 203.978 156.936 204.579C156.225 205.181 155.869 206.317 155.869 207.989V214.646H153.76V197.372ZM167.119 202.153H169.264V214.646H167.119V202.153ZM167.119 197.431H169.264V199.821H167.119V197.431ZM172.463 202.095H174.467V203.876C175.061 203.142 175.689 202.614 176.354 202.294C177.018 201.974 177.756 201.813 178.568 201.813C180.35 201.813 181.553 202.435 182.178 203.677C182.521 204.356 182.693 205.329 182.693 206.595V214.646H180.549V206.735C180.549 205.97 180.436 205.353 180.209 204.884C179.834 204.103 179.154 203.712 178.17 203.712C177.67 203.712 177.26 203.763 176.939 203.864C176.361 204.036 175.854 204.38 175.416 204.896C175.064 205.31 174.834 205.739 174.725 206.185C174.623 206.622 174.572 207.251 174.572 208.071V214.646H172.463V202.095ZM190.252 201.872C191.236 201.872 192.096 202.114 192.83 202.599C193.229 202.872 193.635 203.271 194.049 203.794V202.212H195.994V213.626C195.994 215.22 195.76 216.478 195.291 217.399C194.416 219.103 192.764 219.954 190.334 219.954C188.982 219.954 187.846 219.649 186.924 219.04C186.002 218.438 185.486 217.493 185.377 216.204H187.521C187.623 216.767 187.826 217.2 188.131 217.505C188.607 217.974 189.357 218.208 190.381 218.208C191.998 218.208 193.057 217.638 193.557 216.497C193.854 215.825 193.99 214.626 193.967 212.899C193.545 213.54 193.037 214.017 192.443 214.329C191.85 214.642 191.064 214.798 190.088 214.798C188.729 214.798 187.537 214.317 186.514 213.356C185.498 212.388 184.99 210.79 184.99 208.563C184.99 206.462 185.502 204.821 186.525 203.642C187.557 202.462 188.799 201.872 190.252 201.872ZM194.049 208.317C194.049 206.763 193.729 205.61 193.088 204.86C192.447 204.11 191.631 203.735 190.639 203.735C189.154 203.735 188.139 204.431 187.592 205.821C187.303 206.563 187.158 207.536 187.158 208.739C187.158 210.153 187.443 211.231 188.014 211.974C188.592 212.708 189.365 213.075 190.334 213.075C191.85 213.075 192.916 212.392 193.533 211.024C193.877 210.251 194.049 209.349 194.049 208.317ZM205.861 202.095H207.865V203.876C208.459 203.142 209.088 202.614 209.752 202.294C210.416 201.974 211.154 201.813 211.967 201.813C213.748 201.813 214.951 202.435 215.576 203.677C215.92 204.356 216.092 205.329 216.092 206.595V214.646H213.947V206.735C213.947 205.97 213.834 205.353 213.607 204.884C213.232 204.103 212.553 203.712 211.568 203.712C211.068 203.712 210.658 203.763 210.338 203.864C209.76 204.036 209.252 204.38 208.814 204.896C208.463 205.31 208.232 205.739 208.123 206.185C208.021 206.622 207.971 207.251 207.971 208.071V214.646H205.861V202.095ZM224.447 201.813C225.338 201.813 226.201 202.024 227.037 202.446C227.873 202.86 228.51 203.399 228.947 204.063C229.369 204.696 229.65 205.435 229.791 206.278C229.916 206.856 229.979 207.778 229.979 209.044H220.779C220.818 210.317 221.119 211.341 221.682 212.114C222.244 212.88 223.115 213.263 224.295 213.263C225.396 213.263 226.275 212.899 226.932 212.173C227.307 211.751 227.572 211.263 227.729 210.708H229.803C229.748 211.169 229.564 211.685 229.252 212.255C228.947 212.817 228.604 213.278 228.221 213.638C227.58 214.263 226.787 214.685 225.842 214.903C225.334 215.028 224.76 215.091 224.119 215.091C222.557 215.091 221.232 214.524 220.146 213.392C219.061 212.251 218.518 210.657 218.518 208.61C218.518 206.595 219.064 204.958 220.158 203.7C221.252 202.442 222.682 201.813 224.447 201.813ZM227.811 207.368C227.725 206.454 227.525 205.724 227.213 205.177C226.635 204.161 225.67 203.653 224.318 203.653C223.35 203.653 222.537 204.005 221.881 204.708C221.225 205.403 220.877 206.29 220.838 207.368H227.811ZM237.807 201.813C238.697 201.813 239.561 202.024 240.396 202.446C241.232 202.86 241.869 203.399 242.307 204.063C242.729 204.696 243.01 205.435 243.15 206.278C243.275 206.856 243.338 207.778 243.338 209.044H234.139C234.178 210.317 234.479 211.341 235.041 212.114C235.604 212.88 236.475 213.263 237.654 213.263C238.756 213.263 239.635 212.899 240.291 212.173C240.666 211.751 240.932 211.263 241.088 210.708H243.162C243.107 211.169 242.924 211.685 242.611 212.255C242.307 212.817 241.963 213.278 241.58 213.638C240.939 214.263 240.146 214.685 239.201 214.903C238.693 215.028 238.119 215.091 237.479 215.091C235.916 215.091 234.592 214.524 233.506 213.392C232.42 212.251 231.877 210.657 231.877 208.61C231.877 206.595 232.424 204.958 233.518 203.7C234.611 202.442 236.041 201.813 237.807 201.813ZM241.17 207.368C241.084 206.454 240.885 205.724 240.572 205.177C239.994 204.161 239.029 203.653 237.678 203.653C236.709 203.653 235.896 204.005 235.24 204.708C234.584 205.403 234.236 206.29 234.197 207.368H241.17ZM247.275 208.517C247.275 209.86 247.561 210.985 248.131 211.892C248.701 212.798 249.615 213.251 250.873 213.251C251.85 213.251 252.65 212.833 253.275 211.997C253.908 211.153 254.225 209.946 254.225 208.376C254.225 206.79 253.9 205.618 253.252 204.86C252.604 204.095 251.803 203.712 250.85 203.712C249.787 203.712 248.924 204.118 248.26 204.931C247.604 205.743 247.275 206.938 247.275 208.517ZM250.451 201.872C251.412 201.872 252.217 202.075 252.865 202.481C253.24 202.716 253.666 203.126 254.143 203.712V197.372H256.17V214.646H254.271V212.899C253.779 213.673 253.197 214.231 252.525 214.575C251.854 214.919 251.084 215.091 250.217 215.091C248.818 215.091 247.607 214.505 246.584 213.333C245.561 212.153 245.049 210.587 245.049 208.634C245.049 206.806 245.514 205.224 246.443 203.888C247.381 202.544 248.717 201.872 250.451 201.872ZM264.525 201.813C265.416 201.813 266.279 202.024 267.115 202.446C267.951 202.86 268.588 203.399 269.025 204.063C269.447 204.696 269.729 205.435 269.869 206.278C269.994 206.856 270.057 207.778 270.057 209.044H260.857C260.896 210.317 261.197 211.341 261.76 212.114C262.322 212.88 263.193 213.263 264.373 213.263C265.475 213.263 266.354 212.899 267.01 212.173C267.385 211.751 267.65 211.263 267.807 210.708H269.881C269.826 211.169 269.643 211.685 269.33 212.255C269.025 212.817 268.682 213.278 268.299 213.638C267.658 214.263 266.865 214.685 265.92 214.903C265.412 215.028 264.838 215.091 264.197 215.091C262.635 215.091 261.311 214.524 260.225 213.392C259.139 212.251 258.596 210.657 258.596 208.61C258.596 206.595 259.143 204.958 260.236 203.7C261.33 202.442 262.76 201.813 264.525 201.813ZM267.889 207.368C267.803 206.454 267.604 205.724 267.291 205.177C266.713 204.161 265.748 203.653 264.396 203.653C263.428 203.653 262.615 204.005 261.959 204.708C261.303 205.403 260.955 206.29 260.916 207.368H267.889ZM273.994 208.517C273.994 209.86 274.279 210.985 274.85 211.892C275.42 212.798 276.334 213.251 277.592 213.251C278.568 213.251 279.369 212.833 279.994 211.997C280.627 211.153 280.943 209.946 280.943 208.376C280.943 206.79 280.619 205.618 279.971 204.86C279.322 204.095 278.521 203.712 277.568 203.712C276.506 203.712 275.643 204.118 274.979 204.931C274.322 205.743 273.994 206.938 273.994 208.517ZM277.17 201.872C278.131 201.872 278.936 202.075 279.584 202.481C279.959 202.716 280.385 203.126 280.861 203.712V197.372H282.889V214.646H280.99V212.899C280.498 213.673 279.916 214.231 279.244 214.575C278.572 214.919 277.803 215.091 276.936 215.091C275.537 215.091 274.326 214.505 273.303 213.333C272.279 212.153 271.768 210.587 271.768 208.634C271.768 206.806 272.232 205.224 273.162 203.888C274.1 202.544 275.436 201.872 277.17 201.872ZM293.119 198.591H295.252V202.095H297.256V203.817H295.252V212.009C295.252 212.446 295.4 212.739 295.697 212.888C295.861 212.974 296.135 213.017 296.518 213.017C296.619 213.017 296.729 213.017 296.846 213.017C296.963 213.009 297.1 212.997 297.256 212.981V214.646C297.014 214.716 296.76 214.767 296.494 214.798C296.236 214.829 295.955 214.845 295.65 214.845C294.666 214.845 293.998 214.595 293.646 214.095C293.295 213.587 293.119 212.931 293.119 212.126V203.817H291.42V202.095H293.119V198.591ZM304.357 213.286C305.756 213.286 306.713 212.759 307.229 211.704C307.752 210.642 308.014 209.462 308.014 208.165C308.014 206.993 307.826 206.04 307.451 205.306C306.857 204.149 305.834 203.571 304.381 203.571C303.092 203.571 302.154 204.063 301.568 205.048C300.982 206.032 300.689 207.22 300.689 208.61C300.689 209.946 300.982 211.06 301.568 211.95C302.154 212.841 303.084 213.286 304.357 213.286ZM304.439 201.731C306.057 201.731 307.424 202.271 308.541 203.349C309.658 204.427 310.217 206.013 310.217 208.106C310.217 210.13 309.725 211.802 308.74 213.122C307.756 214.442 306.229 215.103 304.158 215.103C302.432 215.103 301.061 214.521 300.045 213.356C299.029 212.185 298.521 210.614 298.521 208.646C298.521 206.536 299.057 204.856 300.127 203.606C301.197 202.356 302.635 201.731 304.439 201.731ZM319.475 202.095H321.479V204.263C321.643 203.841 322.045 203.329 322.686 202.728C323.326 202.118 324.064 201.813 324.9 201.813C324.939 201.813 325.006 201.817 325.1 201.825C325.193 201.833 325.354 201.849 325.58 201.872V204.099C325.455 204.075 325.338 204.06 325.229 204.052C325.127 204.044 325.014 204.04 324.889 204.04C323.826 204.04 323.01 204.384 322.439 205.071C321.869 205.751 321.584 206.536 321.584 207.427V214.646H319.475V202.095ZM329.518 202.095V210.427C329.518 211.067 329.619 211.591 329.822 211.997C330.197 212.747 330.896 213.122 331.92 213.122C333.389 213.122 334.389 212.466 334.92 211.153C335.209 210.45 335.354 209.485 335.354 208.259V202.095H337.463V214.646H335.471L335.494 212.794C335.221 213.271 334.881 213.673 334.475 214.001C333.67 214.657 332.693 214.985 331.545 214.985C329.756 214.985 328.537 214.388 327.889 213.192C327.537 212.552 327.361 211.696 327.361 210.626V202.095H329.518ZM340.768 202.095H342.771V203.876C343.365 203.142 343.994 202.614 344.658 202.294C345.322 201.974 346.061 201.813 346.873 201.813C348.654 201.813 349.857 202.435 350.482 203.677C350.826 204.356 350.998 205.329 350.998 206.595V214.646H348.854V206.735C348.854 205.97 348.74 205.353 348.514 204.884C348.139 204.103 347.459 203.712 346.475 203.712C345.975 203.712 345.564 203.763 345.244 203.864C344.666 204.036 344.158 204.38 343.721 204.896C343.369 205.31 343.139 205.739 343.029 206.185C342.928 206.622 342.877 207.251 342.877 208.071V214.646H340.768V202.095ZM362.424 211.306C362.424 211.915 362.646 212.396 363.092 212.747C363.537 213.099 364.064 213.274 364.674 213.274C365.416 213.274 366.135 213.103 366.83 212.759C368.002 212.188 368.588 211.255 368.588 209.958V208.259C368.33 208.423 367.998 208.56 367.592 208.669C367.186 208.778 366.787 208.856 366.396 208.903L365.119 209.067C364.354 209.169 363.779 209.329 363.396 209.548C362.748 209.915 362.424 210.501 362.424 211.306ZM367.533 207.04C368.018 206.978 368.342 206.774 368.506 206.431C368.6 206.243 368.646 205.974 368.646 205.622C368.646 204.903 368.389 204.384 367.873 204.063C367.365 203.735 366.635 203.571 365.682 203.571C364.58 203.571 363.799 203.868 363.338 204.462C363.08 204.79 362.912 205.278 362.834 205.927H360.865C360.904 204.38 361.404 203.306 362.365 202.704C363.334 202.095 364.455 201.79 365.729 201.79C367.205 201.79 368.404 202.071 369.326 202.634C370.24 203.196 370.697 204.071 370.697 205.259V212.489C370.697 212.708 370.74 212.884 370.826 213.017C370.92 213.149 371.111 213.216 371.4 213.216C371.494 213.216 371.6 213.212 371.717 213.204C371.834 213.188 371.959 213.169 372.092 213.146V214.704C371.764 214.798 371.514 214.856 371.342 214.88C371.17 214.903 370.936 214.915 370.639 214.915C369.912 214.915 369.385 214.657 369.057 214.142C368.885 213.868 368.764 213.481 368.693 212.981C368.264 213.544 367.646 214.032 366.842 214.446C366.037 214.86 365.15 215.067 364.182 215.067C363.018 215.067 362.064 214.716 361.322 214.013C360.588 213.302 360.221 212.415 360.221 211.353C360.221 210.188 360.584 209.286 361.311 208.646C362.037 208.005 362.99 207.61 364.17 207.462L367.533 207.04ZM91.0176 241.228C92.002 241.228 92.8184 240.817 93.4668 239.997C94.123 239.169 94.4512 237.935 94.4512 236.294C94.4512 235.294 94.3066 234.435 94.0176 233.716C93.4707 232.333 92.4707 231.642 91.0176 231.642C89.5566 231.642 88.5566 232.372 88.0176 233.833C87.7285 234.614 87.584 235.606 87.584 236.81C87.584 237.778 87.7285 238.603 88.0176 239.282C88.5645 240.579 89.5645 241.228 91.0176 241.228ZM85.5566 230.153H87.6074V231.817C88.0293 231.247 88.4902 230.806 88.9902 230.493C89.7012 230.024 90.5371 229.79 91.498 229.79C92.9199 229.79 94.127 230.337 95.1191 231.431C96.1113 232.517 96.6074 234.071 96.6074 236.095C96.6074 238.829 95.8926 240.782 94.4629 241.954C93.5566 242.696 92.502 243.067 91.2988 243.067C90.3535 243.067 89.5605 242.86 88.9199 242.446C88.5449 242.212 88.127 241.81 87.666 241.239V247.649H85.5566V230.153ZM99.1387 230.095H101.143V232.263C101.307 231.841 101.709 231.329 102.35 230.728C102.99 230.118 103.729 229.813 104.564 229.813C104.604 229.813 104.67 229.817 104.764 229.825C104.857 229.833 105.018 229.849 105.244 229.872V232.099C105.119 232.075 105.002 232.06 104.893 232.052C104.791 232.044 104.678 232.04 104.553 232.04C103.49 232.04 102.674 232.384 102.104 233.071C101.533 233.751 101.248 234.536 101.248 235.427V242.646H99.1387V230.095ZM112.053 241.286C113.451 241.286 114.408 240.759 114.924 239.704C115.447 238.642 115.709 237.462 115.709 236.165C115.709 234.993 115.521 234.04 115.146 233.306C114.553 232.149 113.529 231.571 112.076 231.571C110.787 231.571 109.85 232.063 109.264 233.048C108.678 234.032 108.385 235.22 108.385 236.61C108.385 237.946 108.678 239.06 109.264 239.95C109.85 240.841 110.779 241.286 112.053 241.286ZM112.135 229.731C113.752 229.731 115.119 230.271 116.236 231.349C117.354 232.427 117.912 234.013 117.912 236.106C117.912 238.13 117.42 239.802 116.436 241.122C115.451 242.442 113.924 243.103 111.854 243.103C110.127 243.103 108.756 242.521 107.74 241.356C106.725 240.185 106.217 238.614 106.217 236.646C106.217 234.536 106.752 232.856 107.822 231.606C108.893 230.356 110.33 229.731 112.135 229.731ZM121.768 236.517C121.768 237.86 122.053 238.985 122.623 239.892C123.193 240.798 124.107 241.251 125.365 241.251C126.342 241.251 127.143 240.833 127.768 239.997C128.4 239.153 128.717 237.946 128.717 236.376C128.717 234.79 128.393 233.618 127.744 232.86C127.096 232.095 126.295 231.712 125.342 231.712C124.279 231.712 123.416 232.118 122.752 232.931C122.096 233.743 121.768 234.938 121.768 236.517ZM124.943 229.872C125.904 229.872 126.709 230.075 127.357 230.481C127.732 230.716 128.158 231.126 128.635 231.712V225.372H130.662V242.646H128.764V240.899C128.271 241.673 127.689 242.231 127.018 242.575C126.346 242.919 125.576 243.091 124.709 243.091C123.311 243.091 122.1 242.505 121.076 241.333C120.053 240.153 119.541 238.587 119.541 236.634C119.541 234.806 120.006 233.224 120.936 231.888C121.873 230.544 123.209 229.872 124.943 229.872ZM135.9 230.095V238.427C135.9 239.067 136.002 239.591 136.205 239.997C136.58 240.747 137.279 241.122 138.303 241.122C139.771 241.122 140.771 240.466 141.303 239.153C141.592 238.45 141.736 237.485 141.736 236.259V230.095H143.846V242.646H141.854L141.877 240.794C141.604 241.271 141.264 241.673 140.857 242.001C140.053 242.657 139.076 242.985 137.928 242.985C136.139 242.985 134.92 242.388 134.271 241.192C133.92 240.552 133.744 239.696 133.744 238.626V230.095H135.9ZM151.99 229.731C153.404 229.731 154.553 230.075 155.436 230.763C156.326 231.45 156.861 232.634 157.041 234.313H154.99C154.865 233.54 154.58 232.899 154.135 232.392C153.689 231.876 152.975 231.618 151.99 231.618C150.646 231.618 149.686 232.274 149.107 233.587C148.732 234.438 148.545 235.489 148.545 236.739C148.545 237.997 148.811 239.056 149.342 239.915C149.873 240.774 150.709 241.204 151.85 241.204C152.725 241.204 153.416 240.938 153.924 240.407C154.439 239.868 154.795 239.134 154.99 238.204H157.041C156.807 239.868 156.221 241.087 155.283 241.86C154.346 242.626 153.146 243.009 151.686 243.009C150.045 243.009 148.736 242.411 147.76 241.216C146.783 240.013 146.295 238.513 146.295 236.716C146.295 234.513 146.83 232.798 147.9 231.571C148.971 230.345 150.334 229.731 151.99 229.731ZM164.377 229.813C165.268 229.813 166.131 230.024 166.967 230.446C167.803 230.86 168.439 231.399 168.877 232.063C169.299 232.696 169.58 233.435 169.721 234.278C169.846 234.856 169.908 235.778 169.908 237.044H160.709C160.748 238.317 161.049 239.341 161.611 240.114C162.174 240.88 163.045 241.263 164.225 241.263C165.326 241.263 166.205 240.899 166.861 240.173C167.236 239.751 167.502 239.263 167.658 238.708H169.732C169.678 239.169 169.494 239.685 169.182 240.255C168.877 240.817 168.533 241.278 168.15 241.638C167.51 242.263 166.717 242.685 165.771 242.903C165.264 243.028 164.689 243.091 164.049 243.091C162.486 243.091 161.162 242.524 160.076 241.392C158.99 240.251 158.447 238.657 158.447 236.61C158.447 234.595 158.994 232.958 160.088 231.7C161.182 230.442 162.611 229.813 164.377 229.813ZM167.74 235.368C167.654 234.454 167.455 233.724 167.143 233.177C166.564 232.161 165.6 231.653 164.248 231.653C163.279 231.653 162.467 232.005 161.811 232.708C161.154 233.403 160.807 234.29 160.768 235.368H167.74ZM179.025 225.372H181.076V231.618C181.537 231.017 182.088 230.56 182.729 230.247C183.369 229.927 184.064 229.767 184.814 229.767C186.377 229.767 187.643 230.306 188.611 231.384C189.588 232.454 190.076 234.036 190.076 236.13C190.076 238.114 189.596 239.763 188.635 241.075C187.674 242.388 186.342 243.044 184.639 243.044C183.686 243.044 182.881 242.813 182.225 242.353C181.834 242.079 181.416 241.642 180.971 241.04V242.646H179.025V225.372ZM184.51 241.181C185.65 241.181 186.502 240.728 187.064 239.821C187.635 238.915 187.92 237.72 187.92 236.235C187.92 234.915 187.635 233.821 187.064 232.954C186.502 232.087 185.67 231.653 184.568 231.653C183.607 231.653 182.764 232.009 182.037 232.72C181.318 233.431 180.959 234.603 180.959 236.235C180.959 237.415 181.107 238.372 181.404 239.106C181.959 240.489 182.994 241.181 184.51 241.181ZM194.658 230.095V238.427C194.658 239.067 194.76 239.591 194.963 239.997C195.338 240.747 196.037 241.122 197.061 241.122C198.529 241.122 199.529 240.466 200.061 239.153C200.35 238.45 200.494 237.485 200.494 236.259V230.095H202.604V242.646H200.611L200.635 240.794C200.361 241.271 200.021 241.673 199.615 242.001C198.811 242.657 197.834 242.985 196.686 242.985C194.896 242.985 193.678 242.388 193.029 241.192C192.678 240.552 192.502 239.696 192.502 238.626V230.095H194.658ZM207.162 238.708C207.225 239.411 207.4 239.95 207.689 240.325C208.221 241.005 209.143 241.345 210.455 241.345C211.236 241.345 211.924 241.177 212.518 240.841C213.111 240.497 213.408 239.97 213.408 239.259C213.408 238.72 213.17 238.31 212.693 238.028C212.389 237.856 211.787 237.657 210.889 237.431L209.213 237.009C208.143 236.743 207.354 236.446 206.846 236.118C205.939 235.548 205.486 234.759 205.486 233.751C205.486 232.563 205.912 231.603 206.764 230.868C207.623 230.134 208.775 229.767 210.221 229.767C212.111 229.767 213.475 230.321 214.311 231.431C214.834 232.134 215.088 232.892 215.072 233.704H213.08C213.041 233.228 212.873 232.794 212.576 232.403C212.092 231.849 211.252 231.571 210.057 231.571C209.26 231.571 208.654 231.724 208.24 232.028C207.834 232.333 207.631 232.735 207.631 233.235C207.631 233.782 207.9 234.22 208.439 234.548C208.752 234.743 209.213 234.915 209.822 235.063L211.217 235.403C212.732 235.771 213.748 236.126 214.264 236.47C215.084 237.009 215.494 237.856 215.494 239.013C215.494 240.13 215.068 241.095 214.217 241.907C213.373 242.72 212.084 243.126 210.35 243.126C208.482 243.126 207.158 242.704 206.377 241.86C205.604 241.009 205.189 239.958 205.135 238.708H207.162ZM217.908 230.153H220.053V242.646H217.908V230.153ZM217.908 225.431H220.053V227.821H217.908V225.431ZM223.252 230.095H225.256V231.876C225.85 231.142 226.479 230.614 227.143 230.294C227.807 229.974 228.545 229.813 229.357 229.813C231.139 229.813 232.342 230.435 232.967 231.677C233.311 232.356 233.482 233.329 233.482 234.595V242.646H231.338V234.735C231.338 233.97 231.225 233.353 230.998 232.884C230.623 232.103 229.943 231.712 228.959 231.712C228.459 231.712 228.049 231.763 227.729 231.864C227.15 232.036 226.643 232.38 226.205 232.896C225.854 233.31 225.623 233.739 225.514 234.185C225.412 234.622 225.361 235.251 225.361 236.071V242.646H223.252V230.095ZM241.838 229.813C242.729 229.813 243.592 230.024 244.428 230.446C245.264 230.86 245.9 231.399 246.338 232.063C246.76 232.696 247.041 233.435 247.182 234.278C247.307 234.856 247.369 235.778 247.369 237.044H238.17C238.209 238.317 238.51 239.341 239.072 240.114C239.635 240.88 240.506 241.263 241.686 241.263C242.787 241.263 243.666 240.899 244.322 240.173C244.697 239.751 244.963 239.263 245.119 238.708H247.193C247.139 239.169 246.955 239.685 246.643 240.255C246.338 240.817 245.994 241.278 245.611 241.638C244.971 242.263 244.178 242.685 243.232 242.903C242.725 243.028 242.15 243.091 241.51 243.091C239.947 243.091 238.623 242.524 237.537 241.392C236.451 240.251 235.908 238.657 235.908 236.61C235.908 234.595 236.455 232.958 237.549 231.7C238.643 230.442 240.072 229.813 241.838 229.813ZM245.201 235.368C245.115 234.454 244.916 233.724 244.604 233.177C244.025 232.161 243.061 231.653 241.709 231.653C240.74 231.653 239.928 232.005 239.271 232.708C238.615 233.403 238.268 234.29 238.229 235.368H245.201ZM251.225 238.708C251.287 239.411 251.463 239.95 251.752 240.325C252.283 241.005 253.205 241.345 254.518 241.345C255.299 241.345 255.986 241.177 256.58 240.841C257.174 240.497 257.471 239.97 257.471 239.259C257.471 238.72 257.232 238.31 256.756 238.028C256.451 237.856 255.85 237.657 254.951 237.431L253.275 237.009C252.205 236.743 251.416 236.446 250.908 236.118C250.002 235.548 249.549 234.759 249.549 233.751C249.549 232.563 249.975 231.603 250.826 230.868C251.686 230.134 252.838 229.767 254.283 229.767C256.174 229.767 257.537 230.321 258.373 231.431C258.896 232.134 259.15 232.892 259.135 233.704H257.143C257.104 233.228 256.936 232.794 256.639 232.403C256.154 231.849 255.314 231.571 254.119 231.571C253.322 231.571 252.717 231.724 252.303 232.028C251.896 232.333 251.693 232.735 251.693 233.235C251.693 233.782 251.963 234.22 252.502 234.548C252.814 234.743 253.275 234.915 253.885 235.063L255.279 235.403C256.795 235.771 257.811 236.126 258.326 236.47C259.146 237.009 259.557 237.856 259.557 239.013C259.557 240.13 259.131 241.095 258.279 241.907C257.436 242.72 256.146 243.126 254.412 243.126C252.545 243.126 251.221 242.704 250.439 241.86C249.666 241.009 249.252 239.958 249.197 238.708H251.225ZM263.225 238.708C263.287 239.411 263.463 239.95 263.752 240.325C264.283 241.005 265.205 241.345 266.518 241.345C267.299 241.345 267.986 241.177 268.58 240.841C269.174 240.497 269.471 239.97 269.471 239.259C269.471 238.72 269.232 238.31 268.756 238.028C268.451 237.856 267.85 237.657 266.951 237.431L265.275 237.009C264.205 236.743 263.416 236.446 262.908 236.118C262.002 235.548 261.549 234.759 261.549 233.751C261.549 232.563 261.975 231.603 262.826 230.868C263.686 230.134 264.838 229.767 266.283 229.767C268.174 229.767 269.537 230.321 270.373 231.431C270.896 232.134 271.15 232.892 271.135 233.704H269.143C269.104 233.228 268.936 232.794 268.639 232.403C268.154 231.849 267.314 231.571 266.119 231.571C265.322 231.571 264.717 231.724 264.303 232.028C263.896 232.333 263.693 232.735 263.693 233.235C263.693 233.782 263.963 234.22 264.502 234.548C264.814 234.743 265.275 234.915 265.885 235.063L267.279 235.403C268.795 235.771 269.811 236.126 270.326 236.47C271.146 237.009 271.557 237.856 271.557 239.013C271.557 240.13 271.131 241.095 270.279 241.907C269.436 242.72 268.146 243.126 266.412 243.126C264.545 243.126 263.221 242.704 262.439 241.86C261.666 241.009 261.252 239.958 261.197 238.708H263.225ZM274.416 245.095C274.955 245.001 275.334 244.622 275.553 243.958C275.67 243.606 275.729 243.267 275.729 242.938C275.729 242.884 275.725 242.833 275.717 242.786C275.717 242.747 275.709 242.7 275.693 242.646H274.416V240.091H276.924V242.458C276.924 243.388 276.736 244.204 276.361 244.907C275.986 245.61 275.338 246.044 274.416 246.208V245.095ZM287.33 230.153H289.475V242.646H287.33V230.153ZM287.33 225.431H289.475V227.821H287.33V225.431ZM292.674 230.095H294.678V231.876C295.271 231.142 295.9 230.614 296.564 230.294C297.229 229.974 297.967 229.813 298.779 229.813C300.561 229.813 301.764 230.435 302.389 231.677C302.732 232.356 302.904 233.329 302.904 234.595V242.646H300.76V234.735C300.76 233.97 300.646 233.353 300.42 232.884C300.045 232.103 299.365 231.712 298.381 231.712C297.881 231.712 297.471 231.763 297.15 231.864C296.572 232.036 296.064 232.38 295.627 232.896C295.275 233.31 295.045 233.739 294.936 234.185C294.834 234.622 294.783 235.251 294.783 236.071V242.646H292.674V230.095ZM310.873 229.731C312.287 229.731 313.436 230.075 314.318 230.763C315.209 231.45 315.744 232.634 315.924 234.313H313.873C313.748 233.54 313.463 232.899 313.018 232.392C312.572 231.876 311.857 231.618 310.873 231.618C309.529 231.618 308.568 232.274 307.99 233.587C307.615 234.438 307.428 235.489 307.428 236.739C307.428 237.997 307.693 239.056 308.225 239.915C308.756 240.774 309.592 241.204 310.732 241.204C311.607 241.204 312.299 240.938 312.807 240.407C313.322 239.868 313.678 239.134 313.873 238.204H315.924C315.689 239.868 315.104 241.087 314.166 241.86C313.229 242.626 312.029 243.009 310.568 243.009C308.928 243.009 307.619 242.411 306.643 241.216C305.666 240.013 305.178 238.513 305.178 236.716C305.178 234.513 305.713 232.798 306.783 231.571C307.854 230.345 309.217 229.731 310.873 229.731ZM318.092 225.431H320.201V242.646H318.092V225.431ZM325.486 230.095V238.427C325.486 239.067 325.588 239.591 325.791 239.997C326.166 240.747 326.865 241.122 327.889 241.122C329.357 241.122 330.357 240.466 330.889 239.153C331.178 238.45 331.322 237.485 331.322 236.259V230.095H333.432V242.646H331.439L331.463 240.794C331.189 241.271 330.85 241.673 330.443 242.001C329.639 242.657 328.662 242.985 327.514 242.985C325.725 242.985 324.506 242.388 323.857 241.192C323.506 240.552 323.33 239.696 323.33 238.626V230.095H325.486ZM338.072 236.517C338.072 237.86 338.357 238.985 338.928 239.892C339.498 240.798 340.412 241.251 341.67 241.251C342.646 241.251 343.447 240.833 344.072 239.997C344.705 239.153 345.021 237.946 345.021 236.376C345.021 234.79 344.697 233.618 344.049 232.86C343.4 232.095 342.6 231.712 341.646 231.712C340.584 231.712 339.721 232.118 339.057 232.931C338.4 233.743 338.072 234.938 338.072 236.517ZM341.248 229.872C342.209 229.872 343.014 230.075 343.662 230.481C344.037 230.716 344.463 231.126 344.939 231.712V225.372H346.967V242.646H345.068V240.899C344.576 241.673 343.994 242.231 343.322 242.575C342.65 242.919 341.881 243.091 341.014 243.091C339.615 243.091 338.404 242.505 337.381 241.333C336.357 240.153 335.846 238.587 335.846 236.634C335.846 234.806 336.311 233.224 337.24 231.888C338.178 230.544 339.514 229.872 341.248 229.872ZM350.096 230.153H352.24V242.646H350.096V230.153ZM350.096 225.431H352.24V227.821H350.096V225.431ZM355.439 230.095H357.443V231.876C358.037 231.142 358.666 230.614 359.33 230.294C359.994 229.974 360.732 229.813 361.545 229.813C363.326 229.813 364.529 230.435 365.154 231.677C365.498 232.356 365.67 233.329 365.67 234.595V242.646H363.525V234.735C363.525 233.97 363.412 233.353 363.186 232.884C362.811 232.103 362.131 231.712 361.146 231.712C360.646 231.712 360.236 231.763 359.916 231.864C359.338 232.036 358.83 232.38 358.393 232.896C358.041 233.31 357.811 233.739 357.701 234.185C357.6 234.622 357.549 235.251 357.549 236.071V242.646H355.439V230.095ZM373.229 229.872C374.213 229.872 375.072 230.114 375.807 230.599C376.205 230.872 376.611 231.271 377.025 231.794V230.212H378.971V241.626C378.971 243.22 378.736 244.478 378.268 245.399C377.393 247.103 375.74 247.954 373.311 247.954C371.959 247.954 370.822 247.649 369.9 247.04C368.979 246.438 368.463 245.493 368.354 244.204H370.498C370.6 244.767 370.803 245.2 371.107 245.505C371.584 245.974 372.334 246.208 373.357 246.208C374.975 246.208 376.033 245.638 376.533 244.497C376.83 243.825 376.967 242.626 376.943 240.899C376.521 241.54 376.014 242.017 375.42 242.329C374.826 242.642 374.041 242.798 373.064 242.798C371.705 242.798 370.514 242.317 369.49 241.356C368.475 240.388 367.967 238.79 367.967 236.563C367.967 234.462 368.479 232.821 369.502 231.642C370.533 230.462 371.775 229.872 373.229 229.872ZM377.025 236.317C377.025 234.763 376.705 233.61 376.064 232.86C375.424 232.11 374.607 231.735 373.615 231.735C372.131 231.735 371.115 232.431 370.568 233.821C370.279 234.563 370.135 235.536 370.135 236.739C370.135 238.153 370.42 239.231 370.99 239.974C371.568 240.708 372.342 241.075 373.311 241.075C374.826 241.075 375.893 240.392 376.51 239.024C376.854 238.251 377.025 237.349 377.025 236.317ZM85.7207 258.153H87.8652V270.646H85.7207V258.153ZM85.7207 253.431H87.8652V255.821H85.7207V253.431ZM91.0645 258.095H93.0684V259.876C93.6621 259.142 94.291 258.614 94.9551 258.294C95.6191 257.974 96.3574 257.813 97.1699 257.813C98.9512 257.813 100.154 258.435 100.779 259.677C101.123 260.356 101.295 261.329 101.295 262.595V270.646H99.1504V262.735C99.1504 261.97 99.0371 261.353 98.8105 260.884C98.4355 260.103 97.7559 259.712 96.7715 259.712C96.2715 259.712 95.8613 259.763 95.541 259.864C94.9629 260.036 94.4551 260.38 94.0176 260.896C93.666 261.31 93.4355 261.739 93.3262 262.185C93.2246 262.622 93.1738 263.251 93.1738 264.071V270.646H91.0645V258.095ZM105.455 258.095L108.807 268.313L112.311 258.095H114.619L109.885 270.646H107.635L103.006 258.095H105.455ZM121.65 257.813C122.541 257.813 123.404 258.024 124.24 258.446C125.076 258.86 125.713 259.399 126.15 260.063C126.572 260.696 126.854 261.435 126.994 262.278C127.119 262.856 127.182 263.778 127.182 265.044H117.982C118.021 266.317 118.322 267.341 118.885 268.114C119.447 268.88 120.318 269.263 121.498 269.263C122.6 269.263 123.479 268.899 124.135 268.173C124.51 267.751 124.775 267.263 124.932 266.708H127.006C126.951 267.169 126.768 267.685 126.455 268.255C126.15 268.817 125.807 269.278 125.424 269.638C124.783 270.263 123.99 270.685 123.045 270.903C122.537 271.028 121.963 271.091 121.322 271.091C119.76 271.091 118.436 270.524 117.35 269.392C116.264 268.251 115.721 266.657 115.721 264.61C115.721 262.595 116.268 260.958 117.361 259.7C118.455 258.442 119.885 257.813 121.65 257.813ZM125.014 263.368C124.928 262.454 124.729 261.724 124.416 261.177C123.838 260.161 122.873 259.653 121.521 259.653C120.553 259.653 119.74 260.005 119.084 260.708C118.428 261.403 118.08 262.29 118.041 263.368H125.014ZM129.783 258.095H131.787V259.876C132.381 259.142 133.01 258.614 133.674 258.294C134.338 257.974 135.076 257.813 135.889 257.813C137.67 257.813 138.873 258.435 139.498 259.677C139.842 260.356 140.014 261.329 140.014 262.595V270.646H137.869V262.735C137.869 261.97 137.756 261.353 137.529 260.884C137.154 260.103 136.475 259.712 135.49 259.712C134.99 259.712 134.58 259.763 134.26 259.864C133.682 260.036 133.174 260.38 132.736 260.896C132.385 261.31 132.154 261.739 132.045 262.185C131.943 262.622 131.893 263.251 131.893 264.071V270.646H129.783V258.095ZM143.564 254.591H145.697V258.095H147.701V259.817H145.697V268.009C145.697 268.446 145.846 268.739 146.143 268.888C146.307 268.974 146.58 269.017 146.963 269.017C147.064 269.017 147.174 269.017 147.291 269.017C147.408 269.009 147.545 268.997 147.701 268.981V270.646C147.459 270.716 147.205 270.767 146.939 270.798C146.682 270.829 146.4 270.845 146.096 270.845C145.111 270.845 144.443 270.595 144.092 270.095C143.74 269.587 143.564 268.931 143.564 268.126V259.817H141.865V258.095H143.564V254.591ZM154.803 269.286C156.201 269.286 157.158 268.759 157.674 267.704C158.197 266.642 158.459 265.462 158.459 264.165C158.459 262.993 158.271 262.04 157.896 261.306C157.303 260.149 156.279 259.571 154.826 259.571C153.537 259.571 152.6 260.063 152.014 261.048C151.428 262.032 151.135 263.22 151.135 264.61C151.135 265.946 151.428 267.06 152.014 267.95C152.6 268.841 153.529 269.286 154.803 269.286ZM154.885 257.731C156.502 257.731 157.869 258.271 158.986 259.349C160.104 260.427 160.662 262.013 160.662 264.106C160.662 266.13 160.17 267.802 159.186 269.122C158.201 270.442 156.674 271.103 154.604 271.103C152.877 271.103 151.506 270.521 150.49 269.356C149.475 268.185 148.967 266.614 148.967 264.646C148.967 262.536 149.502 260.856 150.572 259.606C151.643 258.356 153.08 257.731 154.885 257.731ZM163.24 258.095H165.244V260.263C165.408 259.841 165.811 259.329 166.451 258.728C167.092 258.118 167.83 257.813 168.666 257.813C168.705 257.813 168.771 257.817 168.865 257.825C168.959 257.833 169.119 257.849 169.346 257.872V260.099C169.221 260.075 169.104 260.06 168.994 260.052C168.893 260.044 168.779 260.04 168.654 260.04C167.592 260.04 166.775 260.384 166.205 261.071C165.635 261.751 165.35 262.536 165.35 263.427V270.646H163.24V258.095ZM179.014 258.095H181.346C181.049 258.899 180.389 260.735 179.365 263.603C178.6 265.759 177.959 267.517 177.443 268.876C176.225 272.079 175.365 274.032 174.865 274.735C174.365 275.438 173.506 275.79 172.287 275.79C171.99 275.79 171.76 275.778 171.596 275.755C171.439 275.731 171.244 275.688 171.01 275.626V273.704C171.377 273.806 171.643 273.868 171.807 273.892C171.971 273.915 172.115 273.927 172.24 273.927C172.631 273.927 172.916 273.86 173.096 273.728C173.283 273.603 173.439 273.446 173.564 273.259C173.604 273.196 173.744 272.876 173.986 272.298C174.229 271.72 174.404 271.29 174.514 271.009L169.873 258.095H172.264L175.627 268.313L179.014 258.095ZM191.471 267.306C191.471 267.915 191.693 268.396 192.139 268.747C192.584 269.099 193.111 269.274 193.721 269.274C194.463 269.274 195.182 269.103 195.877 268.759C197.049 268.188 197.635 267.255 197.635 265.958V264.259C197.377 264.423 197.045 264.56 196.639 264.669C196.232 264.778 195.834 264.856 195.443 264.903L194.166 265.067C193.4 265.169 192.826 265.329 192.443 265.548C191.795 265.915 191.471 266.501 191.471 267.306ZM196.58 263.04C197.064 262.978 197.389 262.774 197.553 262.431C197.646 262.243 197.693 261.974 197.693 261.622C197.693 260.903 197.436 260.384 196.92 260.063C196.412 259.735 195.682 259.571 194.729 259.571C193.627 259.571 192.846 259.868 192.385 260.462C192.127 260.79 191.959 261.278 191.881 261.927H189.912C189.951 260.38 190.451 259.306 191.412 258.704C192.381 258.095 193.502 257.79 194.775 257.79C196.252 257.79 197.451 258.071 198.373 258.634C199.287 259.196 199.744 260.071 199.744 261.259V268.489C199.744 268.708 199.787 268.884 199.873 269.017C199.967 269.149 200.158 269.216 200.447 269.216C200.541 269.216 200.646 269.212 200.764 269.204C200.881 269.188 201.006 269.169 201.139 269.146V270.704C200.811 270.798 200.561 270.856 200.389 270.88C200.217 270.903 199.982 270.915 199.686 270.915C198.959 270.915 198.432 270.657 198.104 270.142C197.932 269.868 197.811 269.481 197.74 268.981C197.311 269.544 196.693 270.032 195.889 270.446C195.084 270.86 194.197 271.067 193.229 271.067C192.064 271.067 191.111 270.716 190.369 270.013C189.635 269.302 189.268 268.415 189.268 267.353C189.268 266.188 189.631 265.286 190.357 264.646C191.084 264.005 192.037 263.61 193.217 263.462L196.58 263.04ZM203.213 258.095H205.217V259.876C205.811 259.142 206.439 258.614 207.104 258.294C207.768 257.974 208.506 257.813 209.318 257.813C211.1 257.813 212.303 258.435 212.928 259.677C213.271 260.356 213.443 261.329 213.443 262.595V270.646H211.299V262.735C211.299 261.97 211.186 261.353 210.959 260.884C210.584 260.103 209.904 259.712 208.92 259.712C208.42 259.712 208.01 259.763 207.689 259.864C207.111 260.036 206.604 260.38 206.166 260.896C205.814 261.31 205.584 261.739 205.475 262.185C205.373 262.622 205.322 263.251 205.322 264.071V270.646H203.213V258.095ZM217.908 264.517C217.908 265.86 218.193 266.985 218.764 267.892C219.334 268.798 220.248 269.251 221.506 269.251C222.482 269.251 223.283 268.833 223.908 267.997C224.541 267.153 224.857 265.946 224.857 264.376C224.857 262.79 224.533 261.618 223.885 260.86C223.236 260.095 222.436 259.712 221.482 259.712C220.42 259.712 219.557 260.118 218.893 260.931C218.236 261.743 217.908 262.938 217.908 264.517ZM221.084 257.872C222.045 257.872 222.85 258.075 223.498 258.481C223.873 258.716 224.299 259.126 224.775 259.712V253.372H226.803V270.646H224.904V268.899C224.412 269.673 223.83 270.231 223.158 270.575C222.486 270.919 221.717 271.091 220.85 271.091C219.451 271.091 218.24 270.505 217.217 269.333C216.193 268.153 215.682 266.587 215.682 264.634C215.682 262.806 216.146 261.224 217.076 259.888C218.014 258.544 219.35 257.872 221.084 257.872ZM238.229 267.306C238.229 267.915 238.451 268.396 238.896 268.747C239.342 269.099 239.869 269.274 240.479 269.274C241.221 269.274 241.939 269.103 242.635 268.759C243.807 268.188 244.393 267.255 244.393 265.958V264.259C244.135 264.423 243.803 264.56 243.396 264.669C242.99 264.778 242.592 264.856 242.201 264.903L240.924 265.067C240.158 265.169 239.584 265.329 239.201 265.548C238.553 265.915 238.229 266.501 238.229 267.306ZM243.338 263.04C243.822 262.978 244.146 262.774 244.311 262.431C244.404 262.243 244.451 261.974 244.451 261.622C244.451 260.903 244.193 260.384 243.678 260.063C243.17 259.735 242.439 259.571 241.486 259.571C240.385 259.571 239.604 259.868 239.143 260.462C238.885 260.79 238.717 261.278 238.639 261.927H236.67C236.709 260.38 237.209 259.306 238.17 258.704C239.139 258.095 240.26 257.79 241.533 257.79C243.01 257.79 244.209 258.071 245.131 258.634C246.045 259.196 246.502 260.071 246.502 261.259V268.489C246.502 268.708 246.545 268.884 246.631 269.017C246.725 269.149 246.916 269.216 247.205 269.216C247.299 269.216 247.404 269.212 247.521 269.204C247.639 269.188 247.764 269.169 247.896 269.146V270.704C247.568 270.798 247.318 270.856 247.146 270.88C246.975 270.903 246.74 270.915 246.443 270.915C245.717 270.915 245.189 270.657 244.861 270.142C244.689 269.868 244.568 269.481 244.498 268.981C244.068 269.544 243.451 270.032 242.646 270.446C241.842 270.86 240.955 271.067 239.986 271.067C238.822 271.067 237.869 270.716 237.127 270.013C236.393 269.302 236.025 268.415 236.025 267.353C236.025 266.188 236.389 265.286 237.115 264.646C237.842 264.005 238.795 263.61 239.975 263.462L243.338 263.04ZM254.811 257.731C256.225 257.731 257.373 258.075 258.256 258.763C259.146 259.45 259.682 260.634 259.861 262.313H257.811C257.686 261.54 257.4 260.899 256.955 260.392C256.51 259.876 255.795 259.618 254.811 259.618C253.467 259.618 252.506 260.274 251.928 261.587C251.553 262.438 251.365 263.489 251.365 264.739C251.365 265.997 251.631 267.056 252.162 267.915C252.693 268.774 253.529 269.204 254.67 269.204C255.545 269.204 256.236 268.938 256.744 268.407C257.26 267.868 257.615 267.134 257.811 266.204H259.861C259.627 267.868 259.041 269.087 258.104 269.86C257.166 270.626 255.967 271.009 254.506 271.009C252.865 271.009 251.557 270.411 250.58 269.216C249.604 268.013 249.115 266.513 249.115 264.716C249.115 262.513 249.65 260.798 250.721 259.571C251.791 258.345 253.154 257.731 254.811 257.731ZM266.811 257.731C268.225 257.731 269.373 258.075 270.256 258.763C271.146 259.45 271.682 260.634 271.861 262.313H269.811C269.686 261.54 269.4 260.899 268.955 260.392C268.51 259.876 267.795 259.618 266.811 259.618C265.467 259.618 264.506 260.274 263.928 261.587C263.553 262.438 263.365 263.489 263.365 264.739C263.365 265.997 263.631 267.056 264.162 267.915C264.693 268.774 265.529 269.204 266.67 269.204C267.545 269.204 268.236 268.938 268.744 268.407C269.26 267.868 269.615 267.134 269.811 266.204H271.861C271.627 267.868 271.041 269.087 270.104 269.86C269.166 270.626 267.967 271.009 266.506 271.009C264.865 271.009 263.557 270.411 262.58 269.216C261.604 268.013 261.115 266.513 261.115 264.716C261.115 262.513 261.65 260.798 262.721 259.571C263.791 258.345 265.154 257.731 266.811 257.731ZM278.951 269.286C280.35 269.286 281.307 268.759 281.822 267.704C282.346 266.642 282.607 265.462 282.607 264.165C282.607 262.993 282.42 262.04 282.045 261.306C281.451 260.149 280.428 259.571 278.975 259.571C277.686 259.571 276.748 260.063 276.162 261.048C275.576 262.032 275.283 263.22 275.283 264.61C275.283 265.946 275.576 267.06 276.162 267.95C276.748 268.841 277.678 269.286 278.951 269.286ZM279.033 257.731C280.65 257.731 282.018 258.271 283.135 259.349C284.252 260.427 284.811 262.013 284.811 264.106C284.811 266.13 284.318 267.802 283.334 269.122C282.35 270.442 280.822 271.103 278.752 271.103C277.025 271.103 275.654 270.521 274.639 269.356C273.623 268.185 273.115 266.614 273.115 264.646C273.115 262.536 273.65 260.856 274.721 259.606C275.791 258.356 277.229 257.731 279.033 257.731ZM289.439 258.095V266.427C289.439 267.067 289.541 267.591 289.744 267.997C290.119 268.747 290.818 269.122 291.842 269.122C293.311 269.122 294.311 268.466 294.842 267.153C295.131 266.45 295.275 265.485 295.275 264.259V258.095H297.385V270.646H295.393L295.416 268.794C295.143 269.271 294.803 269.673 294.396 270.001C293.592 270.657 292.615 270.985 291.467 270.985C289.678 270.985 288.459 270.388 287.811 269.192C287.459 268.552 287.283 267.696 287.283 266.626V258.095H289.439ZM300.689 258.095H302.693V259.876C303.287 259.142 303.916 258.614 304.58 258.294C305.244 257.974 305.982 257.813 306.795 257.813C308.576 257.813 309.779 258.435 310.404 259.677C310.748 260.356 310.92 261.329 310.92 262.595V270.646H308.775V262.735C308.775 261.97 308.662 261.353 308.436 260.884C308.061 260.103 307.381 259.712 306.396 259.712C305.896 259.712 305.486 259.763 305.166 259.864C304.588 260.036 304.08 260.38 303.643 260.896C303.291 261.31 303.061 261.739 302.951 262.185C302.85 262.622 302.799 263.251 302.799 264.071V270.646H300.689V258.095ZM314.471 254.591H316.604V258.095H318.607V259.817H316.604V268.009C316.604 268.446 316.752 268.739 317.049 268.888C317.213 268.974 317.486 269.017 317.869 269.017C317.971 269.017 318.08 269.017 318.197 269.017C318.314 269.009 318.451 268.997 318.607 268.981V270.646C318.365 270.716 318.111 270.767 317.846 270.798C317.588 270.829 317.307 270.845 317.002 270.845C316.018 270.845 315.35 270.595 314.998 270.095C314.646 269.587 314.471 268.931 314.471 268.126V259.817H312.771V258.095H314.471V254.591ZM320.729 258.153H322.873V270.646H320.729V258.153ZM320.729 253.431H322.873V255.821H320.729V253.431ZM326.072 258.095H328.076V259.876C328.67 259.142 329.299 258.614 329.963 258.294C330.627 257.974 331.365 257.813 332.178 257.813C333.959 257.813 335.162 258.435 335.787 259.677C336.131 260.356 336.303 261.329 336.303 262.595V270.646H334.158V262.735C334.158 261.97 334.045 261.353 333.818 260.884C333.443 260.103 332.764 259.712 331.779 259.712C331.279 259.712 330.869 259.763 330.549 259.864C329.971 260.036 329.463 260.38 329.025 260.896C328.674 261.31 328.443 261.739 328.334 262.185C328.232 262.622 328.182 263.251 328.182 264.071V270.646H326.072V258.095ZM343.861 257.872C344.846 257.872 345.705 258.114 346.439 258.599C346.838 258.872 347.244 259.271 347.658 259.794V258.212H349.604V269.626C349.604 271.22 349.369 272.478 348.9 273.399C348.025 275.103 346.373 275.954 343.943 275.954C342.592 275.954 341.455 275.649 340.533 275.04C339.611 274.438 339.096 273.493 338.986 272.204H341.131C341.232 272.767 341.436 273.2 341.74 273.505C342.217 273.974 342.967 274.208 343.99 274.208C345.607 274.208 346.666 273.638 347.166 272.497C347.463 271.825 347.6 270.626 347.576 268.899C347.154 269.54 346.646 270.017 346.053 270.329C345.459 270.642 344.674 270.798 343.697 270.798C342.338 270.798 341.146 270.317 340.123 269.356C339.107 268.388 338.6 266.79 338.6 264.563C338.6 262.462 339.111 260.821 340.135 259.642C341.166 258.462 342.408 257.872 343.861 257.872ZM347.658 264.317C347.658 262.763 347.338 261.61 346.697 260.86C346.057 260.11 345.24 259.735 344.248 259.735C342.764 259.735 341.748 260.431 341.201 261.821C340.912 262.563 340.768 263.536 340.768 264.739C340.768 266.153 341.053 267.231 341.623 267.974C342.201 268.708 342.975 269.075 343.943 269.075C345.459 269.075 346.525 268.392 347.143 267.024C347.486 266.251 347.658 265.349 347.658 264.317Z" fill="#8EBCFF"/>
<path d="M136.975 408.488C138.003 408.358 138.752 408.124 139.221 407.785C140.041 407.186 140.451 406.151 140.451 404.68C140.451 403.56 140.067 402.674 139.299 402.023C138.843 401.646 138.068 401.255 136.975 400.852V408.488ZM135.119 388.078C133.986 388.104 133.146 388.41 132.6 388.996C132.053 389.569 131.779 390.357 131.779 391.359C131.779 392.453 132.189 393.319 133.01 393.957C133.465 394.309 134.169 394.634 135.119 394.934V388.078ZM137.014 416.77H135.119V412.883C132.554 412.596 130.64 412.036 129.377 411.203C127.15 409.706 126.057 407.154 126.096 403.547H131.369C131.551 405.188 131.805 406.288 132.131 406.848C132.639 407.72 133.635 408.286 135.119 408.547V400.207L133.537 399.738C131.05 399.009 129.292 397.993 128.264 396.691C127.248 395.389 126.74 393.82 126.74 391.984C126.74 390.773 126.936 389.673 127.326 388.684C127.73 387.694 128.29 386.841 129.006 386.125C129.93 385.201 130.959 384.562 132.092 384.211C132.782 383.99 133.791 383.827 135.119 383.723V381.125H136.975V383.762C139.097 383.931 140.764 384.452 141.975 385.324C144.175 386.717 145.314 388.977 145.393 392.102H140.256C140.152 390.943 139.956 390.096 139.67 389.562C139.175 388.638 138.277 388.13 136.975 388.039V395.48C140.074 396.548 142.157 397.492 143.225 398.312C144.982 399.68 145.861 401.607 145.861 404.094C145.861 407.375 144.657 409.758 142.248 411.242C140.777 412.154 139.032 412.688 137.014 412.844V416.77ZM148.459 412.141C148.511 410.109 148.947 408.254 149.768 406.574C150.562 404.686 152.437 402.688 155.393 400.578C157.958 398.742 159.618 397.427 160.373 396.633C161.532 395.396 162.111 394.042 162.111 392.57C162.111 391.372 161.779 390.376 161.115 389.582C160.451 388.788 159.501 388.391 158.264 388.391C156.571 388.391 155.419 389.022 154.807 390.285C154.455 391.014 154.247 392.173 154.182 393.762H148.771C148.863 391.353 149.299 389.406 150.08 387.922C151.564 385.096 154.201 383.684 157.99 383.684C160.985 383.684 163.368 384.517 165.139 386.184C166.91 387.837 167.795 390.031 167.795 392.766C167.795 394.862 167.17 396.724 165.92 398.352C165.1 399.432 163.752 400.637 161.877 401.965L159.65 403.547C158.257 404.536 157.3 405.253 156.779 405.695C156.271 406.138 155.842 406.652 155.49 407.238H167.854V412.141H148.459ZM170.666 393.781C170.666 390.747 171.538 388.293 173.283 386.418C175.041 384.53 177.32 383.586 180.119 383.586C184.429 383.586 187.385 385.493 188.986 389.309C189.898 391.47 190.354 394.315 190.354 397.844C190.354 401.268 189.917 404.126 189.045 406.418C187.378 410.78 184.318 412.961 179.865 412.961C177.743 412.961 175.835 412.336 174.143 411.086C172.45 409.823 171.48 407.987 171.232 405.578H176.779C176.91 406.411 177.261 407.089 177.834 407.609C178.407 408.13 179.169 408.391 180.119 408.391C181.955 408.391 183.244 407.375 183.986 405.344C184.39 404.224 184.644 402.59 184.748 400.441C184.24 401.079 183.7 401.568 183.127 401.906C182.085 402.531 180.803 402.844 179.279 402.844C177.027 402.844 175.028 402.069 173.283 400.52C171.538 398.957 170.666 396.711 170.666 393.781ZM180.49 398.312C181.258 398.312 181.981 398.091 182.658 397.648C183.921 396.841 184.553 395.441 184.553 393.449C184.553 391.848 184.175 390.578 183.42 389.641C182.678 388.703 181.656 388.234 180.354 388.234C179.403 388.234 178.589 388.501 177.912 389.035C176.844 389.868 176.311 391.281 176.311 393.273C176.311 394.953 176.649 396.216 177.326 397.062C178.016 397.896 179.071 398.312 180.49 398.312ZM192.932 393.781C192.932 390.747 193.804 388.293 195.549 386.418C197.307 384.53 199.585 383.586 202.385 383.586C206.695 383.586 209.65 385.493 211.252 389.309C212.163 391.47 212.619 394.315 212.619 397.844C212.619 401.268 212.183 404.126 211.311 406.418C209.644 410.78 206.584 412.961 202.131 412.961C200.008 412.961 198.101 412.336 196.408 411.086C194.715 409.823 193.745 407.987 193.498 405.578H199.045C199.175 406.411 199.527 407.089 200.1 407.609C200.673 408.13 201.434 408.391 202.385 408.391C204.221 408.391 205.51 407.375 206.252 405.344C206.656 404.224 206.91 402.59 207.014 400.441C206.506 401.079 205.965 401.568 205.393 401.906C204.351 402.531 203.068 402.844 201.545 402.844C199.292 402.844 197.294 402.069 195.549 400.52C193.804 398.957 192.932 396.711 192.932 393.781ZM202.756 398.312C203.524 398.312 204.247 398.091 204.924 397.648C206.187 396.841 206.818 395.441 206.818 393.449C206.818 391.848 206.441 390.578 205.686 389.641C204.943 388.703 203.921 388.234 202.619 388.234C201.669 388.234 200.855 388.501 200.178 389.035C199.11 389.868 198.576 391.281 198.576 393.273C198.576 394.953 198.915 396.216 199.592 397.062C200.282 397.896 201.337 398.312 202.756 398.312ZM222.971 382.473H227.6L216.408 412.141H211.818L222.971 382.473ZM251.525 390.383C252.463 390.383 253.387 390.565 254.299 390.93C255.21 391.294 256.037 391.932 256.779 392.844C257.378 393.586 257.782 394.497 257.99 395.578C258.12 396.294 258.186 397.342 258.186 398.723L258.146 412.141H252.443V398.586C252.443 397.779 252.313 397.115 252.053 396.594C251.558 395.604 250.646 395.109 249.318 395.109C247.782 395.109 246.721 395.747 246.135 397.023C245.835 397.701 245.686 398.514 245.686 399.465V412.141H240.08V399.465C240.08 398.202 239.95 397.284 239.689 396.711C239.221 395.682 238.303 395.168 236.936 395.168C235.347 395.168 234.279 395.682 233.732 396.711C233.433 397.297 233.283 398.169 233.283 399.328V412.141H227.639V390.891H233.049V393.996C233.739 392.889 234.39 392.102 235.002 391.633C236.083 390.799 237.482 390.383 239.201 390.383C240.829 390.383 242.144 390.741 243.146 391.457C243.954 392.121 244.566 392.974 244.982 394.016C245.712 392.766 246.617 391.848 247.697 391.262C248.843 390.676 250.119 390.383 251.525 390.383ZM272.873 408.215C274.501 408.215 275.751 407.635 276.623 406.477C277.495 405.318 277.932 403.671 277.932 401.535C277.932 399.4 277.495 397.759 276.623 396.613C275.751 395.454 274.501 394.875 272.873 394.875C271.245 394.875 269.989 395.454 269.104 396.613C268.231 397.759 267.795 399.4 267.795 401.535C267.795 403.671 268.231 405.318 269.104 406.477C269.989 407.635 271.245 408.215 272.873 408.215ZM283.771 401.535C283.771 404.66 282.873 407.336 281.076 409.562C279.279 411.776 276.551 412.883 272.893 412.883C269.234 412.883 266.506 411.776 264.709 409.562C262.912 407.336 262.014 404.66 262.014 401.535C262.014 398.462 262.912 395.799 264.709 393.547C266.506 391.294 269.234 390.168 272.893 390.168C276.551 390.168 279.279 391.294 281.076 393.547C282.873 395.799 283.771 398.462 283.771 401.535ZM299.572 390.344C301.773 390.344 303.57 390.923 304.963 392.082C306.369 393.228 307.072 395.135 307.072 397.805V412.141H301.369V399.191C301.369 398.072 301.219 397.212 300.92 396.613C300.373 395.52 299.331 394.973 297.795 394.973C295.907 394.973 294.611 395.773 293.908 397.375C293.544 398.221 293.361 399.302 293.361 400.617V412.141H287.814V390.891H293.186V393.996C293.902 392.902 294.579 392.115 295.217 391.633C296.363 390.773 297.814 390.344 299.572 390.344ZM310.041 395.012V391.047H313.01V385.109H318.518V391.047H321.975V395.012H318.518V406.262C318.518 407.134 318.628 407.681 318.85 407.902C319.071 408.111 319.748 408.215 320.881 408.215C321.05 408.215 321.226 408.215 321.408 408.215C321.604 408.202 321.792 408.189 321.975 408.176V412.336L319.338 412.434C316.708 412.525 314.911 412.069 313.947 411.066C313.322 410.428 313.01 409.445 313.01 408.117V395.012H310.041ZM337.287 390.305C338.602 390.305 339.794 390.533 340.861 390.988C341.942 391.444 342.827 392.141 343.518 393.078C344.104 393.872 344.462 394.693 344.592 395.539C344.722 396.372 344.787 397.74 344.787 399.641V412.141H339.104V399.191C339.104 398.046 338.908 397.121 338.518 396.418C338.01 395.428 337.046 394.934 335.627 394.934C334.156 394.934 333.036 395.428 332.268 396.418C331.512 397.395 331.135 398.794 331.135 400.617V412.141H325.588V383.449H331.135V393.625C331.942 392.388 332.873 391.529 333.928 391.047C334.995 390.552 336.115 390.305 337.287 390.305Z" fill="white"/>
<path d="M180.4 458.828C181.736 458.766 182.658 458.277 183.166 457.363C183.432 456.895 183.564 456.352 183.564 455.734C183.564 454.758 183.205 454.016 182.486 453.508C182.072 453.211 181.377 452.93 180.4 452.664V458.828ZM176.428 447.52C176.428 448.293 176.682 448.898 177.189 449.336C177.705 449.773 178.396 450.078 179.264 450.25V444.742C178.24 444.781 177.51 445.094 177.072 445.68C176.643 446.266 176.428 446.879 176.428 447.52ZM174.318 447.66C174.318 446.473 174.752 445.402 175.619 444.449C176.494 443.496 177.717 443.012 179.287 442.996V441.438H180.4V442.973C181.955 443.082 183.146 443.543 183.975 444.355C184.811 445.16 185.248 446.227 185.287 447.555H183.236C183.182 446.961 183.021 446.449 182.756 446.02C182.264 445.23 181.479 444.816 180.4 444.777V450.473C182.213 450.98 183.443 451.457 184.092 451.902C185.146 452.637 185.674 453.723 185.674 455.16C185.674 457.238 184.998 458.715 183.646 459.59C182.896 460.074 181.814 460.395 180.4 460.551V462.824H179.287V460.551C177.014 460.402 175.471 459.598 174.658 458.137C174.213 457.348 173.99 456.281 173.99 454.938H176.064C176.127 456.008 176.295 456.789 176.568 457.281C177.053 458.164 177.951 458.66 179.264 458.77V452.383C177.576 452.062 176.33 451.527 175.525 450.777C174.721 450.027 174.318 448.988 174.318 447.66ZM187.35 460.047C187.428 458.602 187.725 457.344 188.24 456.273C188.764 455.203 189.779 454.23 191.287 453.355L193.537 452.055C194.545 451.469 195.252 450.969 195.658 450.555C196.299 449.906 196.619 449.164 196.619 448.328C196.619 447.352 196.326 446.578 195.74 446.008C195.154 445.43 194.373 445.141 193.396 445.141C191.951 445.141 190.951 445.688 190.396 446.781C190.1 447.367 189.936 448.18 189.904 449.219H187.76C187.783 447.758 188.053 446.566 188.568 445.645C189.482 444.02 191.096 443.207 193.408 443.207C195.33 443.207 196.732 443.727 197.615 444.766C198.506 445.805 198.951 446.961 198.951 448.234C198.951 449.578 198.479 450.727 197.533 451.68C196.986 452.234 196.006 452.906 194.592 453.695L192.986 454.586C192.221 455.008 191.619 455.41 191.182 455.793C190.4 456.473 189.908 457.227 189.705 458.055H198.869V460.047H187.35ZM201.951 462.496C202.49 462.402 202.869 462.023 203.088 461.359C203.205 461.008 203.264 460.668 203.264 460.34C203.264 460.285 203.26 460.234 203.252 460.188C203.252 460.148 203.244 460.102 203.229 460.047H201.951V457.492H204.459V459.859C204.459 460.789 204.271 461.605 203.896 462.309C203.521 463.012 202.873 463.445 201.951 463.609V462.496ZM209.826 455.992C209.889 457.156 210.338 457.961 211.174 458.406C211.604 458.641 212.088 458.758 212.627 458.758C213.635 458.758 214.494 458.34 215.205 457.504C215.916 456.66 216.42 454.953 216.717 452.383C216.248 453.125 215.666 453.648 214.971 453.953C214.283 454.25 213.541 454.398 212.744 454.398C211.127 454.398 209.846 453.895 208.9 452.887C207.963 451.879 207.494 450.582 207.494 448.996C207.494 447.473 207.959 446.133 208.889 444.977C209.818 443.82 211.189 443.242 213.002 443.242C215.447 443.242 217.135 444.344 218.064 446.547C218.58 447.758 218.838 449.273 218.838 451.094C218.838 453.148 218.529 454.969 217.912 456.555C216.889 459.195 215.154 460.516 212.709 460.516C211.068 460.516 209.822 460.086 208.971 459.227C208.119 458.367 207.693 457.289 207.693 455.992H209.826ZM213.025 452.547C213.861 452.547 214.623 452.273 215.311 451.727C216.006 451.172 216.354 450.207 216.354 448.832C216.354 447.598 216.041 446.68 215.416 446.078C214.799 445.469 214.01 445.164 213.049 445.164C212.018 445.164 211.197 445.512 210.588 446.207C209.986 446.895 209.686 447.816 209.686 448.973C209.686 450.066 209.951 450.938 210.482 451.586C211.014 452.227 211.861 452.547 213.025 452.547ZM223.186 455.992C223.248 457.156 223.697 457.961 224.533 458.406C224.963 458.641 225.447 458.758 225.986 458.758C226.994 458.758 227.854 458.34 228.564 457.504C229.275 456.66 229.779 454.953 230.076 452.383C229.607 453.125 229.025 453.648 228.33 453.953C227.643 454.25 226.9 454.398 226.104 454.398C224.486 454.398 223.205 453.895 222.26 452.887C221.322 451.879 220.854 450.582 220.854 448.996C220.854 447.473 221.318 446.133 222.248 444.977C223.178 443.82 224.549 443.242 226.361 443.242C228.807 443.242 230.494 444.344 231.424 446.547C231.939 447.758 232.197 449.273 232.197 451.094C232.197 453.148 231.889 454.969 231.271 456.555C230.248 459.195 228.514 460.516 226.068 460.516C224.428 460.516 223.182 460.086 222.33 459.227C221.479 458.367 221.053 457.289 221.053 455.992H223.186ZM226.385 452.547C227.221 452.547 227.982 452.273 228.67 451.727C229.365 451.172 229.713 450.207 229.713 448.832C229.713 447.598 229.4 446.68 228.775 446.078C228.158 445.469 227.369 445.164 226.408 445.164C225.377 445.164 224.557 445.512 223.947 446.207C223.346 446.895 223.045 447.816 223.045 448.973C223.045 450.066 223.311 450.938 223.842 451.586C224.373 452.227 225.221 452.547 226.385 452.547ZM239.85 443.266C242.021 443.266 243.592 444.16 244.561 445.949C245.311 447.332 245.686 449.227 245.686 451.633C245.686 453.914 245.346 455.801 244.666 457.293C243.682 459.434 242.072 460.504 239.838 460.504C237.822 460.504 236.322 459.629 235.338 457.879C234.518 456.418 234.107 454.457 234.107 451.996C234.107 450.09 234.354 448.453 234.846 447.086C235.768 444.539 237.436 443.266 239.85 443.266ZM239.826 458.582C240.92 458.582 241.791 458.098 242.439 457.129C243.088 456.16 243.412 454.355 243.412 451.715C243.412 449.809 243.178 448.242 242.709 447.016C242.24 445.781 241.33 445.164 239.979 445.164C238.736 445.164 237.826 445.75 237.248 446.922C236.678 448.086 236.393 449.805 236.393 452.078C236.393 453.789 236.576 455.164 236.943 456.203C237.506 457.789 238.467 458.582 239.826 458.582ZM252.178 442.832H253.959L248.498 460.047H246.717L252.178 442.832ZM262.783 447.496H265.115C264.818 448.301 264.158 450.137 263.135 453.004C262.369 455.16 261.729 456.918 261.213 458.277C259.994 461.48 259.135 463.434 258.635 464.137C258.135 464.84 257.275 465.191 256.057 465.191C255.76 465.191 255.529 465.18 255.365 465.156C255.209 465.133 255.014 465.09 254.779 465.027V463.105C255.146 463.207 255.412 463.27 255.576 463.293C255.74 463.316 255.885 463.328 256.01 463.328C256.4 463.328 256.686 463.262 256.865 463.129C257.053 463.004 257.209 462.848 257.334 462.66C257.373 462.598 257.514 462.277 257.756 461.699C257.998 461.121 258.174 460.691 258.283 460.41L253.643 447.496H256.033L259.396 457.715L262.783 447.496ZM272.17 447.215C273.061 447.215 273.924 447.426 274.76 447.848C275.596 448.262 276.232 448.801 276.67 449.465C277.092 450.098 277.373 450.836 277.514 451.68C277.639 452.258 277.701 453.18 277.701 454.445H268.502C268.541 455.719 268.842 456.742 269.404 457.516C269.967 458.281 270.838 458.664 272.018 458.664C273.119 458.664 273.998 458.301 274.654 457.574C275.029 457.152 275.295 456.664 275.451 456.109H277.525C277.471 456.57 277.287 457.086 276.975 457.656C276.67 458.219 276.326 458.68 275.943 459.039C275.303 459.664 274.51 460.086 273.564 460.305C273.057 460.43 272.482 460.492 271.842 460.492C270.279 460.492 268.955 459.926 267.869 458.793C266.783 457.652 266.24 456.059 266.24 454.012C266.24 451.996 266.787 450.359 267.881 449.102C268.975 447.844 270.404 447.215 272.17 447.215ZM275.533 452.77C275.447 451.855 275.248 451.125 274.936 450.578C274.357 449.562 273.393 449.055 272.041 449.055C271.072 449.055 270.26 449.406 269.604 450.109C268.947 450.805 268.6 451.691 268.561 452.77H275.533ZM281.92 456.707C281.92 457.316 282.143 457.797 282.588 458.148C283.033 458.5 283.561 458.676 284.17 458.676C284.912 458.676 285.631 458.504 286.326 458.16C287.498 457.59 288.084 456.656 288.084 455.359V453.66C287.826 453.824 287.494 453.961 287.088 454.07C286.682 454.18 286.283 454.258 285.893 454.305L284.615 454.469C283.85 454.57 283.275 454.73 282.893 454.949C282.244 455.316 281.92 455.902 281.92 456.707ZM287.029 452.441C287.514 452.379 287.838 452.176 288.002 451.832C288.096 451.645 288.143 451.375 288.143 451.023C288.143 450.305 287.885 449.785 287.369 449.465C286.861 449.137 286.131 448.973 285.178 448.973C284.076 448.973 283.295 449.27 282.834 449.863C282.576 450.191 282.408 450.68 282.33 451.328H280.361C280.4 449.781 280.9 448.707 281.861 448.105C282.83 447.496 283.951 447.191 285.225 447.191C286.701 447.191 287.9 447.473 288.822 448.035C289.736 448.598 290.193 449.473 290.193 450.66V457.891C290.193 458.109 290.236 458.285 290.322 458.418C290.416 458.551 290.607 458.617 290.896 458.617C290.99 458.617 291.096 458.613 291.213 458.605C291.33 458.59 291.455 458.57 291.588 458.547V460.105C291.26 460.199 291.01 460.258 290.838 460.281C290.666 460.305 290.432 460.316 290.135 460.316C289.408 460.316 288.881 460.059 288.553 459.543C288.381 459.27 288.26 458.883 288.189 458.383C287.76 458.945 287.143 459.434 286.338 459.848C285.533 460.262 284.646 460.469 283.678 460.469C282.514 460.469 281.561 460.117 280.818 459.414C280.084 458.703 279.717 457.816 279.717 456.754C279.717 455.59 280.08 454.688 280.807 454.047C281.533 453.406 282.486 453.012 283.666 452.863L287.029 452.441ZM293.721 447.496H295.725V449.664C295.889 449.242 296.291 448.73 296.932 448.129C297.572 447.52 298.311 447.215 299.146 447.215C299.186 447.215 299.252 447.219 299.346 447.227C299.439 447.234 299.6 447.25 299.826 447.273V449.5C299.701 449.477 299.584 449.461 299.475 449.453C299.373 449.445 299.26 449.441 299.135 449.441C298.072 449.441 297.256 449.785 296.686 450.473C296.115 451.152 295.83 451.938 295.83 452.828V460.047H293.721V447.496Z" fill="white"/>
</g>
</svg>
