<svg width="662" height="1336" viewBox="0 0 662 1336" fill="none" xmlns="http://www.w3.org/2000/svg">
<path d="M-35.1311 1335.35C71.5855 779.712 -559.086 415.884 -559.086 140.242C-559.086 36.253 -478.658 0.177246 -396.668 0.177246C-182.973 0.177246 91.6273 269.78 91.6273 645.424C91.6273 930.946 54.4056 1060.74 -35.1311 1335.35Z" fill="white" fill-opacity="0.2"/>
<path d="M287.622 174.777C406.182 174.777 463.836 315.998 463.836 438.858C463.836 697.292 179.863 1117.1 -35.1313 1335.35C42.9464 1092.84 93.579 890.762 93.579 524.104C93.579 450.798 105.69 174.777 287.622 174.777Z" fill="white" fill-opacity="0.2"/>
<path d="M562.874 539.383C625.994 539.383 661.783 585.601 661.783 643.629C661.783 865.603 114.011 1255.88 -35.1313 1335.22C437.548 833.89 387.834 539.383 562.874 539.383Z" fill="white" fill-opacity="0.2"/>
</svg>
