<svg width="685" height="1336" viewBox="0 0 685 1336" fill="none" xmlns="http://www.w3.org/2000/svg">
<path d="M697.707 1335.98C590.99 780.337 1221.66 416.509 1221.66 140.867C1221.66 36.878 1141.23 0.802246 1059.24 0.802246C845.549 0.802246 570.949 270.405 570.949 646.049C570.949 931.571 608.17 1061.37 697.707 1335.98Z" fill="white" fill-opacity="0.2"/>
<path d="M374.954 175.402C256.394 175.402 198.74 316.623 198.74 439.483C198.74 697.917 482.713 1117.72 697.708 1335.97C619.63 1093.46 568.997 891.387 568.997 524.729C568.997 451.423 556.887 175.402 374.954 175.402Z" fill="white" fill-opacity="0.2"/>
<path d="M99.7016 540.008C36.5821 540.008 0.792725 586.226 0.792725 644.254C0.792725 866.228 548.565 1256.51 697.708 1335.85C225.028 834.515 274.742 540.008 99.7016 540.008Z" fill="white" fill-opacity="0.2"/>
</svg>
