<svg xmlns="http://www.w3.org/2000/svg" width="123" height="124" viewBox="0 0 123 124">
  <g id="grower_liquidations" transform="translate(-1059 -8811)">
    <rect id="Rectangle_1495" data-name="Rectangle 1495" width="123" height="124" rx="5" transform="translate(1059 8811)" fill="#b0d3ff"/>
    <g id="bx-calculator" transform="translate(1075 8822.263)">
      <path id="Path_10179" data-name="Path 10179" d="M79.256,2H12.532C7.275,2,3,6.536,3,12.113v80.9c0,5.577,4.275,10.113,9.532,10.113H79.256c5.257,0,9.532-4.536,9.532-10.113v-80.9C88.788,6.536,84.513,2,79.256,2ZM12.532,93.018v-80.9H79.256l0,80.9Z" fill="#0f61cb"/>
      <path id="Path_10180" data-name="Path 10180" d="M7,36.339h9.532V46.452H7ZM7,56.565h9.532V66.679H7ZM26.064,36.339H35.6V46.452H26.064ZM7,6H54.66V26.226H7ZM26.064,56.565H35.6V66.679H26.064ZM45.128,36.339H54.66V66.679H45.128Z" transform="translate(15.064 16.226)" fill="#0f61cb"/>
    </g>
  </g>
</svg>
