<svg xmlns="http://www.w3.org/2000/svg" width="123" height="124" viewBox="0 0 123 124">
  <g id="packouts" transform="translate(-1059 -8583)">
    <rect id="Rectangle_1494" data-name="Rectangle 1494" width="123" height="124" rx="5" transform="translate(1059 8583)" fill="#b0d3ff"/>
    <path id="bx-package" d="M96.965,30.4a3.638,3.638,0,0,0,0-1v-.381a3.679,3.679,0,0,0-.332-.763,1.67,1.67,0,0,0-.237-.381l-.475-.62-.38-.286-.57-.429L52.237,2.695a4.731,4.731,0,0,0-4.748,0L4.754,26.534l-.427.334L3.8,27.25a1.956,1.956,0,0,0-.332.524,1.858,1.858,0,0,0-.38.477,2.819,2.819,0,0,0-.285.668,1.436,1.436,0,0,0,0,.477A3.621,3.621,0,0,0,2,30.4V68.54a4.771,4.771,0,0,0,2.469,4.148L47.2,96.527a3.555,3.555,0,0,0,.617.286H48.3a5.013,5.013,0,0,0,2.374,0h.475l.665-.286,42.734-23.84a4.771,4.771,0,0,0,2.422-4.148ZM49.483,48.848,16.53,30.4l13.105-7.247L62.066,41.744Zm0-36.808L82.436,30.4,71.8,36.356,39.369,17.714ZM11.5,38.5l33.238,18.69V84.274L11.5,65.727ZM54.231,84.274V57.192l14.245-8.01v14.59L77.972,59V43.842l9.5-5.292V65.727Z" transform="translate(1071 8595.307)" fill="#0f61cb"/>
  </g>
</svg>
