<svg xmlns="http://www.w3.org/2000/svg" width="123" height="124" viewBox="0 0 123 124">
  <g id="purchasing" transform="translate(-302 -9381)">
    <rect id="Rectangle_1497" data-name="Rectangle 1497" width="123" height="124" rx="5" transform="translate(302 9381)" fill="#b0d3ff"/>
    <g id="bx-basket" transform="translate(314 9393.496)">
      <path id="Path_10177" data-name="Path 10177" d="M92.243,33.991H85.5L67.868,2.5,59.622,7.312,74.56,33.991H24.432L39.375,7.312,31.125,2.5,13.494,33.991H6.749A4.722,4.722,0,0,0,2.977,35.9a4.931,4.931,0,0,0-.811,4.216L15.46,89.864A9.556,9.556,0,0,0,24.627,97H74.37a9.56,9.56,0,0,0,9.167-7.15L96.831,40.108a4.916,4.916,0,0,0-.807-4.22,4.707,4.707,0,0,0-3.781-1.9ZM74.365,87.31v0H24.627L12.971,43.685h73.05Z" transform="translate(0 0)" fill="#0e61ce"/>
      <path id="Path_10178" data-name="Path 10178" d="M9,13h9.5V37.236H9Zm19,0h9.5V37.236H28Z" transform="translate(26.247 40.38)" fill="#0e61ce"/>
    </g>
  </g>
</svg>
