<svg xmlns="http://www.w3.org/2000/svg" width="123" height="124" viewBox="0 0 123 124">
  <g id="shipping" transform="translate(-302 -10071)">
    <rect id="Rectangle_1500" data-name="Rectangle 1500" width="123" height="124" rx="5" transform="translate(302 10071)" fill="#b0d3ff"/>
    <path id="bx-objects-horizontal-right" d="M87.5,2H97V97H87.5ZM78,59a4.75,4.75,0,0,0-4.75-4.75H6.75A4.75,4.75,0,0,0,2,59V82.75A4.75,4.75,0,0,0,6.75,87.5h66.5A4.75,4.75,0,0,0,78,82.75ZM68.5,78h-57V63.75h57ZM25.75,44.75h47.5A4.75,4.75,0,0,0,78,40V16.25a4.75,4.75,0,0,0-4.75-4.75H25.75A4.75,4.75,0,0,0,21,16.25V40A4.75,4.75,0,0,0,25.75,44.75ZM30.5,21h38V35.25h-38Z" transform="translate(314 10083.263)" fill="#0e61ce"/>
  </g>
</svg>
